<mxfile host="app.diagrams.net" modified="2023-06-12T16:02:56.062Z" agent="Mozilla/5.0 (Macintosh; Intel Mac OS X 10_15_7) AppleWebKit/537.36 (KHTML, like Gecko) Chrome/114.0.0.0 Safari/537.36" etag="0SuEMxoe_IRpeaFuXAae" version="21.3.8" type="github" pages="4">
  <diagram name="หน้า-1" id="efOhrzQufDu9XPNtCZQz">
    <mxGraphModel dx="849" dy="749" grid="1" gridSize="10" guides="1" tooltips="1" connect="1" arrows="1" fold="1" page="1" pageScale="1" pageWidth="827" pageHeight="1169" math="0" shadow="0">
      <root>
        <mxCell id="0" />
        <mxCell id="1" parent="0" />
        <mxCell id="giqosQM8oBIp1dlh9zMc-1" value="เริ่ม" style="ellipse;whiteSpace=wrap;html=1;" vertex="1" parent="1">
          <mxGeometry x="70" y="40" width="80" height="40" as="geometry" />
        </mxCell>
        <mxCell id="giqosQM8oBIp1dlh9zMc-2" value="ตรวจสอบสิทธิ์การใช้งาน" style="rounded=1;whiteSpace=wrap;html=1;" vertex="1" parent="1">
          <mxGeometry x="40" y="120" width="140" height="30" as="geometry" />
        </mxCell>
        <mxCell id="giqosQM8oBIp1dlh9zMc-3" value="" style="edgeStyle=orthogonalEdgeStyle;rounded=0;orthogonalLoop=1;jettySize=auto;html=1;" edge="1" parent="1" source="giqosQM8oBIp1dlh9zMc-1" target="giqosQM8oBIp1dlh9zMc-2">
          <mxGeometry relative="1" as="geometry" />
        </mxCell>
        <mxCell id="giqosQM8oBIp1dlh9zMc-4" value="มี ?" style="rhombus;whiteSpace=wrap;html=1;" vertex="1" parent="1">
          <mxGeometry x="80" y="180" width="60" height="60" as="geometry" />
        </mxCell>
        <mxCell id="giqosQM8oBIp1dlh9zMc-5" value="" style="edgeStyle=orthogonalEdgeStyle;rounded=0;orthogonalLoop=1;jettySize=auto;html=1;" edge="1" parent="1" source="giqosQM8oBIp1dlh9zMc-2" target="giqosQM8oBIp1dlh9zMc-4">
          <mxGeometry relative="1" as="geometry" />
        </mxCell>
        <mxCell id="giqosQM8oBIp1dlh9zMc-6" style="edgeStyle=orthogonalEdgeStyle;rounded=0;orthogonalLoop=1;jettySize=auto;html=1;entryX=-0.022;entryY=0.676;entryDx=0;entryDy=0;entryPerimeter=0;" edge="1" parent="1" source="giqosQM8oBIp1dlh9zMc-4" target="giqosQM8oBIp1dlh9zMc-20">
          <mxGeometry relative="1" as="geometry">
            <Array as="points">
              <mxPoint x="110" y="644" />
            </Array>
            <mxPoint x="265" y="750" as="targetPoint" />
          </mxGeometry>
        </mxCell>
        <mxCell id="giqosQM8oBIp1dlh9zMc-7" value="ไม่" style="edgeLabel;html=1;align=center;verticalAlign=middle;resizable=0;points=[];" vertex="1" connectable="0" parent="giqosQM8oBIp1dlh9zMc-6">
          <mxGeometry x="-0.8925" y="1" relative="1" as="geometry">
            <mxPoint as="offset" />
          </mxGeometry>
        </mxCell>
        <mxCell id="giqosQM8oBIp1dlh9zMc-8" value="ตรวจสอบ Account &lt;br&gt;สถานะการใช้งาน" style="rounded=1;whiteSpace=wrap;html=1;" vertex="1" parent="1">
          <mxGeometry x="256.35" y="189" width="170" height="40" as="geometry" />
        </mxCell>
        <mxCell id="giqosQM8oBIp1dlh9zMc-9" value="" style="edgeStyle=orthogonalEdgeStyle;rounded=0;orthogonalLoop=1;jettySize=auto;html=1;" edge="1" parent="1" source="giqosQM8oBIp1dlh9zMc-4" target="giqosQM8oBIp1dlh9zMc-8">
          <mxGeometry relative="1" as="geometry">
            <Array as="points">
              <mxPoint x="220" y="210" />
              <mxPoint x="220" y="210" />
            </Array>
          </mxGeometry>
        </mxCell>
        <mxCell id="giqosQM8oBIp1dlh9zMc-10" value="ใช่" style="edgeLabel;html=1;align=center;verticalAlign=middle;resizable=0;points=[];" vertex="1" connectable="0" parent="giqosQM8oBIp1dlh9zMc-9">
          <mxGeometry x="-0.7797" y="-1" relative="1" as="geometry">
            <mxPoint as="offset" />
          </mxGeometry>
        </mxCell>
        <mxCell id="giqosQM8oBIp1dlh9zMc-11" value="มีใน&lt;br&gt;ระบบ &lt;br&gt;?" style="rhombus;whiteSpace=wrap;html=1;" vertex="1" parent="1">
          <mxGeometry x="303.85" y="268" width="75" height="70" as="geometry" />
        </mxCell>
        <mxCell id="giqosQM8oBIp1dlh9zMc-12" value="" style="edgeStyle=orthogonalEdgeStyle;rounded=0;orthogonalLoop=1;jettySize=auto;html=1;" edge="1" parent="1" source="giqosQM8oBIp1dlh9zMc-8" target="giqosQM8oBIp1dlh9zMc-11">
          <mxGeometry relative="1" as="geometry" />
        </mxCell>
        <mxCell id="giqosQM8oBIp1dlh9zMc-13" value="status&lt;br style=&quot;border-color: var(--border-color);&quot;&gt;= 1 ?" style="rhombus;whiteSpace=wrap;html=1;" vertex="1" parent="1">
          <mxGeometry x="311.35" y="388" width="60" height="60" as="geometry" />
        </mxCell>
        <mxCell id="giqosQM8oBIp1dlh9zMc-14" value="" style="edgeStyle=orthogonalEdgeStyle;rounded=0;orthogonalLoop=1;jettySize=auto;html=1;" edge="1" parent="1" source="giqosQM8oBIp1dlh9zMc-11" target="giqosQM8oBIp1dlh9zMc-13">
          <mxGeometry relative="1" as="geometry" />
        </mxCell>
        <mxCell id="giqosQM8oBIp1dlh9zMc-15" value="ใช่" style="edgeLabel;html=1;align=center;verticalAlign=middle;resizable=0;points=[];" vertex="1" connectable="0" parent="giqosQM8oBIp1dlh9zMc-14">
          <mxGeometry x="-0.3254" y="2" relative="1" as="geometry">
            <mxPoint x="-2" as="offset" />
          </mxGeometry>
        </mxCell>
        <mxCell id="giqosQM8oBIp1dlh9zMc-16" value="Locked&lt;br style=&quot;border-color: var(--border-color);&quot;&gt;= 1 ?&amp;nbsp;" style="rhombus;whiteSpace=wrap;html=1;" vertex="1" parent="1">
          <mxGeometry x="311.35" y="518" width="60" height="60" as="geometry" />
        </mxCell>
        <mxCell id="giqosQM8oBIp1dlh9zMc-17" value="" style="edgeStyle=orthogonalEdgeStyle;rounded=0;orthogonalLoop=1;jettySize=auto;html=1;" edge="1" parent="1" source="giqosQM8oBIp1dlh9zMc-13" target="giqosQM8oBIp1dlh9zMc-16">
          <mxGeometry relative="1" as="geometry" />
        </mxCell>
        <mxCell id="giqosQM8oBIp1dlh9zMc-18" value="ไม่" style="edgeLabel;html=1;align=center;verticalAlign=middle;resizable=0;points=[];" vertex="1" connectable="0" parent="giqosQM8oBIp1dlh9zMc-17">
          <mxGeometry x="-0.3745" relative="1" as="geometry">
            <mxPoint as="offset" />
          </mxGeometry>
        </mxCell>
        <mxCell id="giqosQM8oBIp1dlh9zMc-19" style="edgeStyle=orthogonalEdgeStyle;rounded=0;orthogonalLoop=1;jettySize=auto;html=1;entryX=0;entryY=0.5;entryDx=0;entryDy=0;" edge="1" parent="1" source="giqosQM8oBIp1dlh9zMc-20" target="giqosQM8oBIp1dlh9zMc-64">
          <mxGeometry relative="1" as="geometry">
            <Array as="points">
              <mxPoint x="239" y="1120" />
            </Array>
          </mxGeometry>
        </mxCell>
        <mxCell id="giqosQM8oBIp1dlh9zMc-20" value="" style="ellipse;whiteSpace=wrap;html=1;aspect=fixed;" vertex="1" parent="1">
          <mxGeometry x="213.75" y="610" width="50" height="50" as="geometry" />
        </mxCell>
        <mxCell id="giqosQM8oBIp1dlh9zMc-21" style="edgeStyle=orthogonalEdgeStyle;rounded=0;orthogonalLoop=1;jettySize=auto;html=1;" edge="1" parent="1" source="giqosQM8oBIp1dlh9zMc-22" target="giqosQM8oBIp1dlh9zMc-20">
          <mxGeometry relative="1" as="geometry">
            <Array as="points">
              <mxPoint x="140" y="303" />
              <mxPoint x="140" y="630" />
            </Array>
          </mxGeometry>
        </mxCell>
        <mxCell id="giqosQM8oBIp1dlh9zMc-22" value="rerturn Error Code&amp;nbsp;001&lt;span style=&quot;font-size: medium; text-align: start;&quot;&gt;&lt;/span&gt;" style="rounded=1;whiteSpace=wrap;html=1;" vertex="1" parent="1">
          <mxGeometry x="150" y="283" width="77.5" height="40" as="geometry" />
        </mxCell>
        <mxCell id="giqosQM8oBIp1dlh9zMc-23" style="edgeStyle=orthogonalEdgeStyle;rounded=0;orthogonalLoop=1;jettySize=auto;html=1;" edge="1" parent="1" source="giqosQM8oBIp1dlh9zMc-11" target="giqosQM8oBIp1dlh9zMc-22">
          <mxGeometry relative="1" as="geometry">
            <mxPoint x="240.10000000000002" y="408" as="targetPoint" />
          </mxGeometry>
        </mxCell>
        <mxCell id="giqosQM8oBIp1dlh9zMc-24" value="ไม่" style="edgeLabel;html=1;align=center;verticalAlign=middle;resizable=0;points=[];" vertex="1" connectable="0" parent="giqosQM8oBIp1dlh9zMc-23">
          <mxGeometry x="-0.6573" y="2" relative="1" as="geometry">
            <mxPoint as="offset" />
          </mxGeometry>
        </mxCell>
        <mxCell id="giqosQM8oBIp1dlh9zMc-25" style="edgeStyle=orthogonalEdgeStyle;rounded=0;orthogonalLoop=1;jettySize=auto;html=1;entryX=0.5;entryY=0;entryDx=0;entryDy=0;" edge="1" parent="1" source="giqosQM8oBIp1dlh9zMc-26" target="giqosQM8oBIp1dlh9zMc-20">
          <mxGeometry relative="1" as="geometry" />
        </mxCell>
        <mxCell id="giqosQM8oBIp1dlh9zMc-26" value="rerturn Error Code&amp;nbsp;011&lt;span style=&quot;font-size: medium; text-align: start;&quot;&gt;&lt;/span&gt;" style="rounded=1;whiteSpace=wrap;html=1;" vertex="1" parent="1">
          <mxGeometry x="200" y="528" width="77.5" height="40" as="geometry" />
        </mxCell>
        <mxCell id="giqosQM8oBIp1dlh9zMc-27" value="" style="edgeStyle=orthogonalEdgeStyle;rounded=0;orthogonalLoop=1;jettySize=auto;html=1;" edge="1" parent="1" source="giqosQM8oBIp1dlh9zMc-16" target="giqosQM8oBIp1dlh9zMc-26">
          <mxGeometry relative="1" as="geometry" />
        </mxCell>
        <mxCell id="giqosQM8oBIp1dlh9zMc-28" value="ใช่" style="edgeLabel;html=1;align=center;verticalAlign=middle;resizable=0;points=[];" vertex="1" connectable="0" parent="giqosQM8oBIp1dlh9zMc-27">
          <mxGeometry x="-0.4608" y="1" relative="1" as="geometry">
            <mxPoint as="offset" />
          </mxGeometry>
        </mxCell>
        <mxCell id="giqosQM8oBIp1dlh9zMc-29" style="edgeStyle=orthogonalEdgeStyle;rounded=0;orthogonalLoop=1;jettySize=auto;html=1;" edge="1" parent="1" source="giqosQM8oBIp1dlh9zMc-30" target="giqosQM8oBIp1dlh9zMc-20">
          <mxGeometry relative="1" as="geometry">
            <mxPoint x="240" y="610" as="targetPoint" />
            <Array as="points">
              <mxPoint x="180" y="418" />
              <mxPoint x="180" y="620" />
            </Array>
          </mxGeometry>
        </mxCell>
        <mxCell id="giqosQM8oBIp1dlh9zMc-30" value="rerturn Error Code&amp;nbsp;004&lt;span style=&quot;font-size: medium; text-align: start;&quot;&gt;&lt;/span&gt;" style="rounded=1;whiteSpace=wrap;html=1;" vertex="1" parent="1">
          <mxGeometry x="200" y="398" width="77.5" height="40" as="geometry" />
        </mxCell>
        <mxCell id="giqosQM8oBIp1dlh9zMc-31" value="" style="edgeStyle=orthogonalEdgeStyle;rounded=0;orthogonalLoop=1;jettySize=auto;html=1;" edge="1" parent="1" source="giqosQM8oBIp1dlh9zMc-13" target="giqosQM8oBIp1dlh9zMc-30">
          <mxGeometry relative="1" as="geometry" />
        </mxCell>
        <mxCell id="giqosQM8oBIp1dlh9zMc-32" value="ใช่" style="edgeLabel;html=1;align=center;verticalAlign=middle;resizable=0;points=[];" vertex="1" connectable="0" parent="giqosQM8oBIp1dlh9zMc-31">
          <mxGeometry x="-0.4608" y="2" relative="1" as="geometry">
            <mxPoint as="offset" />
          </mxGeometry>
        </mxCell>
        <mxCell id="giqosQM8oBIp1dlh9zMc-33" value="" style="edgeStyle=orthogonalEdgeStyle;rounded=0;orthogonalLoop=1;jettySize=auto;html=1;entryX=0.1;entryY=0.5;entryDx=0;entryDy=0;entryPerimeter=0;" edge="1" parent="1" source="giqosQM8oBIp1dlh9zMc-16" target="giqosQM8oBIp1dlh9zMc-38">
          <mxGeometry relative="1" as="geometry">
            <mxPoint x="414" y="548" as="targetPoint" />
          </mxGeometry>
        </mxCell>
        <mxCell id="giqosQM8oBIp1dlh9zMc-34" value="" style="edgeStyle=orthogonalEdgeStyle;rounded=0;orthogonalLoop=1;jettySize=auto;html=1;" edge="1" parent="1" source="giqosQM8oBIp1dlh9zMc-38">
          <mxGeometry relative="1" as="geometry">
            <mxPoint x="530" y="548" as="targetPoint" />
          </mxGeometry>
        </mxCell>
        <mxCell id="giqosQM8oBIp1dlh9zMc-35" value="ไม่" style="edgeLabel;html=1;align=center;verticalAlign=middle;resizable=0;points=[];" vertex="1" connectable="0" parent="giqosQM8oBIp1dlh9zMc-34">
          <mxGeometry x="-0.3115" y="3" relative="1" as="geometry">
            <mxPoint as="offset" />
          </mxGeometry>
        </mxCell>
        <mxCell id="giqosQM8oBIp1dlh9zMc-36" style="edgeStyle=orthogonalEdgeStyle;rounded=0;orthogonalLoop=1;jettySize=auto;html=1;entryX=0.5;entryY=0;entryDx=0;entryDy=0;" edge="1" parent="1" source="giqosQM8oBIp1dlh9zMc-38" target="giqosQM8oBIp1dlh9zMc-61">
          <mxGeometry relative="1" as="geometry">
            <mxPoint x="447" y="940" as="targetPoint" />
          </mxGeometry>
        </mxCell>
        <mxCell id="giqosQM8oBIp1dlh9zMc-37" value="ใช่" style="edgeLabel;html=1;align=center;verticalAlign=middle;resizable=0;points=[];" vertex="1" connectable="0" parent="giqosQM8oBIp1dlh9zMc-36">
          <mxGeometry x="-0.3215" y="2" relative="1" as="geometry">
            <mxPoint as="offset" />
          </mxGeometry>
        </mxCell>
        <mxCell id="giqosQM8oBIp1dlh9zMc-38" value="Super&lt;br&gt;Admin ?" style="rhombus;whiteSpace=wrap;html=1;" vertex="1" parent="1">
          <mxGeometry x="414" y="512" width="66" height="72" as="geometry" />
        </mxCell>
        <mxCell id="giqosQM8oBIp1dlh9zMc-39" value="" style="edgeStyle=orthogonalEdgeStyle;rounded=0;orthogonalLoop=1;jettySize=auto;html=1;" edge="1" parent="1" source="giqosQM8oBIp1dlh9zMc-40" target="giqosQM8oBIp1dlh9zMc-45">
          <mxGeometry relative="1" as="geometry" />
        </mxCell>
        <mxCell id="giqosQM8oBIp1dlh9zMc-40" value="ตรวจสอบสิทธิ์การใช้งาน Company นี้ไหม&lt;span style=&quot;font-size: medium; text-align: start;&quot;&gt;&lt;/span&gt;" style="rounded=1;whiteSpace=wrap;html=1;" vertex="1" parent="1">
          <mxGeometry x="530" y="528" width="110" height="42" as="geometry" />
        </mxCell>
        <mxCell id="giqosQM8oBIp1dlh9zMc-41" value="" style="edgeStyle=orthogonalEdgeStyle;rounded=0;orthogonalLoop=1;jettySize=auto;html=1;" edge="1" parent="1" source="giqosQM8oBIp1dlh9zMc-45" target="giqosQM8oBIp1dlh9zMc-49">
          <mxGeometry relative="1" as="geometry" />
        </mxCell>
        <mxCell id="giqosQM8oBIp1dlh9zMc-42" value="ใช่" style="edgeLabel;html=1;align=center;verticalAlign=middle;resizable=0;points=[];" vertex="1" connectable="0" parent="giqosQM8oBIp1dlh9zMc-41">
          <mxGeometry x="-0.2859" relative="1" as="geometry">
            <mxPoint as="offset" />
          </mxGeometry>
        </mxCell>
        <mxCell id="giqosQM8oBIp1dlh9zMc-43" style="edgeStyle=orthogonalEdgeStyle;rounded=0;orthogonalLoop=1;jettySize=auto;html=1;" edge="1" parent="1" source="giqosQM8oBIp1dlh9zMc-45" target="giqosQM8oBIp1dlh9zMc-51">
          <mxGeometry relative="1" as="geometry">
            <mxPoint x="680" y="645.9999999999998" as="targetPoint" />
          </mxGeometry>
        </mxCell>
        <mxCell id="giqosQM8oBIp1dlh9zMc-44" value="ไม่" style="edgeLabel;html=1;align=center;verticalAlign=middle;resizable=0;points=[];" vertex="1" connectable="0" parent="giqosQM8oBIp1dlh9zMc-43">
          <mxGeometry x="-0.0865" y="2" relative="1" as="geometry">
            <mxPoint as="offset" />
          </mxGeometry>
        </mxCell>
        <mxCell id="giqosQM8oBIp1dlh9zMc-45" value="มี ?" style="rhombus;whiteSpace=wrap;html=1;" vertex="1" parent="1">
          <mxGeometry x="552" y="610" width="66" height="72" as="geometry" />
        </mxCell>
        <mxCell id="giqosQM8oBIp1dlh9zMc-46" value="ใช่" style="edgeStyle=orthogonalEdgeStyle;rounded=0;orthogonalLoop=1;jettySize=auto;html=1;" edge="1" parent="1" source="giqosQM8oBIp1dlh9zMc-49" target="giqosQM8oBIp1dlh9zMc-55">
          <mxGeometry relative="1" as="geometry" />
        </mxCell>
        <mxCell id="giqosQM8oBIp1dlh9zMc-47" value="" style="edgeStyle=orthogonalEdgeStyle;rounded=0;orthogonalLoop=1;jettySize=auto;html=1;" edge="1" parent="1" source="giqosQM8oBIp1dlh9zMc-49" target="giqosQM8oBIp1dlh9zMc-57">
          <mxGeometry relative="1" as="geometry" />
        </mxCell>
        <mxCell id="giqosQM8oBIp1dlh9zMc-48" value="ไม่" style="edgeLabel;html=1;align=center;verticalAlign=middle;resizable=0;points=[];" vertex="1" connectable="0" parent="giqosQM8oBIp1dlh9zMc-47">
          <mxGeometry x="-0.1127" relative="1" as="geometry">
            <mxPoint as="offset" />
          </mxGeometry>
        </mxCell>
        <mxCell id="giqosQM8oBIp1dlh9zMc-49" value="Company &lt;br&gt;มีในระบบ&lt;br&gt;ไหม ?" style="rhombus;whiteSpace=wrap;html=1;" vertex="1" parent="1">
          <mxGeometry x="540" y="740" width="90" height="80" as="geometry" />
        </mxCell>
        <mxCell id="giqosQM8oBIp1dlh9zMc-50" style="edgeStyle=orthogonalEdgeStyle;rounded=0;orthogonalLoop=1;jettySize=auto;html=1;entryX=1;entryY=0.5;entryDx=0;entryDy=0;" edge="1" parent="1" source="giqosQM8oBIp1dlh9zMc-51" target="giqosQM8oBIp1dlh9zMc-63">
          <mxGeometry relative="1" as="geometry">
            <mxPoint x="780" y="800" as="targetPoint" />
            <Array as="points">
              <mxPoint x="778" y="646" />
              <mxPoint x="778" y="1015" />
            </Array>
          </mxGeometry>
        </mxCell>
        <mxCell id="giqosQM8oBIp1dlh9zMc-51" value="rerturn Error Code&amp;nbsp;002&lt;span style=&quot;font-size: medium; text-align: start;&quot;&gt;&lt;/span&gt;" style="rounded=1;whiteSpace=wrap;html=1;" vertex="1" parent="1">
          <mxGeometry x="680" y="626" width="77.5" height="40" as="geometry" />
        </mxCell>
        <mxCell id="giqosQM8oBIp1dlh9zMc-52" value="" style="edgeStyle=orthogonalEdgeStyle;rounded=0;orthogonalLoop=1;jettySize=auto;html=1;" edge="1" parent="1" source="giqosQM8oBIp1dlh9zMc-55" target="giqosQM8oBIp1dlh9zMc-59">
          <mxGeometry relative="1" as="geometry" />
        </mxCell>
        <mxCell id="giqosQM8oBIp1dlh9zMc-53" value="ไม่" style="edgeLabel;html=1;align=center;verticalAlign=middle;resizable=0;points=[];" vertex="1" connectable="0" parent="giqosQM8oBIp1dlh9zMc-52">
          <mxGeometry x="-0.2152" y="2" relative="1" as="geometry">
            <mxPoint as="offset" />
          </mxGeometry>
        </mxCell>
        <mxCell id="giqosQM8oBIp1dlh9zMc-54" style="edgeStyle=orthogonalEdgeStyle;rounded=0;orthogonalLoop=1;jettySize=auto;html=1;entryX=1;entryY=0.5;entryDx=0;entryDy=0;" edge="1" parent="1" source="giqosQM8oBIp1dlh9zMc-55" target="giqosQM8oBIp1dlh9zMc-61">
          <mxGeometry relative="1" as="geometry">
            <Array as="points">
              <mxPoint x="585" y="980" />
            </Array>
          </mxGeometry>
        </mxCell>
        <mxCell id="giqosQM8oBIp1dlh9zMc-55" value="Company &lt;br&gt;Active ?" style="rhombus;whiteSpace=wrap;html=1;" vertex="1" parent="1">
          <mxGeometry x="540" y="860" width="90" height="80" as="geometry" />
        </mxCell>
        <mxCell id="giqosQM8oBIp1dlh9zMc-56" style="edgeStyle=orthogonalEdgeStyle;rounded=0;orthogonalLoop=1;jettySize=auto;html=1;entryX=1;entryY=0;entryDx=0;entryDy=0;" edge="1" parent="1" source="giqosQM8oBIp1dlh9zMc-57" target="giqosQM8oBIp1dlh9zMc-63">
          <mxGeometry relative="1" as="geometry">
            <Array as="points">
              <mxPoint x="770" y="780" />
              <mxPoint x="770" y="997" />
            </Array>
          </mxGeometry>
        </mxCell>
        <mxCell id="giqosQM8oBIp1dlh9zMc-57" value="rerturn Error Code&amp;nbsp;007&lt;span style=&quot;font-size: medium; text-align: start;&quot;&gt;&lt;/span&gt;" style="rounded=1;whiteSpace=wrap;html=1;" vertex="1" parent="1">
          <mxGeometry x="680" y="760" width="77.5" height="40" as="geometry" />
        </mxCell>
        <mxCell id="giqosQM8oBIp1dlh9zMc-58" style="edgeStyle=orthogonalEdgeStyle;rounded=0;orthogonalLoop=1;jettySize=auto;html=1;" edge="1" parent="1" source="giqosQM8oBIp1dlh9zMc-59" target="giqosQM8oBIp1dlh9zMc-63">
          <mxGeometry relative="1" as="geometry" />
        </mxCell>
        <mxCell id="giqosQM8oBIp1dlh9zMc-59" value="rerturn Error Code&amp;nbsp;051&lt;span style=&quot;font-size: medium; text-align: start;&quot;&gt;&lt;/span&gt;" style="rounded=1;whiteSpace=wrap;html=1;" vertex="1" parent="1">
          <mxGeometry x="680" y="880" width="77.5" height="40" as="geometry" />
        </mxCell>
        <mxCell id="giqosQM8oBIp1dlh9zMc-60" value="" style="edgeStyle=orthogonalEdgeStyle;rounded=0;orthogonalLoop=1;jettySize=auto;html=1;" edge="1" parent="1" source="giqosQM8oBIp1dlh9zMc-61" target="giqosQM8oBIp1dlh9zMc-66">
          <mxGeometry relative="1" as="geometry" />
        </mxCell>
        <mxCell id="giqosQM8oBIp1dlh9zMc-61" value="ดึงข้อมูลบุคคลที่เกี่ยวข้องกับในบริษัท" style="rounded=1;whiteSpace=wrap;html=1;" vertex="1" parent="1">
          <mxGeometry x="387" y="950" width="120" height="40" as="geometry" />
        </mxCell>
        <mxCell id="giqosQM8oBIp1dlh9zMc-62" style="edgeStyle=orthogonalEdgeStyle;rounded=0;orthogonalLoop=1;jettySize=auto;html=1;entryX=1;entryY=1;entryDx=0;entryDy=0;" edge="1" parent="1" source="giqosQM8oBIp1dlh9zMc-63" target="giqosQM8oBIp1dlh9zMc-64">
          <mxGeometry relative="1" as="geometry">
            <Array as="points">
              <mxPoint x="719" y="1140" />
              <mxPoint x="450" y="1140" />
            </Array>
          </mxGeometry>
        </mxCell>
        <mxCell id="giqosQM8oBIp1dlh9zMc-63" value="" style="ellipse;whiteSpace=wrap;html=1;aspect=fixed;" vertex="1" parent="1">
          <mxGeometry x="693.75" y="990" width="50" height="50" as="geometry" />
        </mxCell>
        <mxCell id="giqosQM8oBIp1dlh9zMc-64" value="สิ้นสุด" style="ellipse;whiteSpace=wrap;html=1;" vertex="1" parent="1">
          <mxGeometry x="362" y="1090" width="103" height="60" as="geometry" />
        </mxCell>
        <mxCell id="giqosQM8oBIp1dlh9zMc-65" style="edgeStyle=orthogonalEdgeStyle;rounded=0;orthogonalLoop=1;jettySize=auto;html=1;entryX=1;entryY=0.5;entryDx=0;entryDy=0;" edge="1" parent="1" source="giqosQM8oBIp1dlh9zMc-66" target="giqosQM8oBIp1dlh9zMc-64">
          <mxGeometry relative="1" as="geometry" />
        </mxCell>
        <mxCell id="giqosQM8oBIp1dlh9zMc-66" value="ส่งกลับข้อมูลบุคคลที่เกี่ยวข้องกับในบริษัท" style="rounded=1;whiteSpace=wrap;html=1;" vertex="1" parent="1">
          <mxGeometry x="387" y="1020" width="120" height="40" as="geometry" />
        </mxCell>
      </root>
    </mxGraphModel>
  </diagram>
  <diagram id="_46EiQOxFHWBeZduHOn6" name="หน้า-2">
    <mxGraphModel dx="739" dy="652" grid="1" gridSize="10" guides="1" tooltips="1" connect="1" arrows="1" fold="1" page="1" pageScale="1" pageWidth="827" pageHeight="1169" math="0" shadow="0">
      <root>
        <mxCell id="0" />
        <mxCell id="1" parent="0" />
        <mxCell id="z0cjqU6uOOZi0T0NemjR-1" value="เริ่ม" style="ellipse;whiteSpace=wrap;html=1;" vertex="1" parent="1">
          <mxGeometry x="75" y="20" width="80" height="40" as="geometry" />
        </mxCell>
        <mxCell id="z0cjqU6uOOZi0T0NemjR-2" value="ตรวจสอบสิทธิ์การใช้งาน" style="rounded=1;whiteSpace=wrap;html=1;" vertex="1" parent="1">
          <mxGeometry x="45" y="100" width="140" height="30" as="geometry" />
        </mxCell>
        <mxCell id="z0cjqU6uOOZi0T0NemjR-3" value="" style="edgeStyle=orthogonalEdgeStyle;rounded=0;orthogonalLoop=1;jettySize=auto;html=1;" edge="1" parent="1" source="z0cjqU6uOOZi0T0NemjR-1" target="z0cjqU6uOOZi0T0NemjR-2">
          <mxGeometry relative="1" as="geometry" />
        </mxCell>
        <mxCell id="z0cjqU6uOOZi0T0NemjR-4" value="มี ?" style="rhombus;whiteSpace=wrap;html=1;" vertex="1" parent="1">
          <mxGeometry x="85" y="160" width="60" height="60" as="geometry" />
        </mxCell>
        <mxCell id="z0cjqU6uOOZi0T0NemjR-5" value="" style="edgeStyle=orthogonalEdgeStyle;rounded=0;orthogonalLoop=1;jettySize=auto;html=1;" edge="1" parent="1" source="z0cjqU6uOOZi0T0NemjR-2" target="z0cjqU6uOOZi0T0NemjR-4">
          <mxGeometry relative="1" as="geometry" />
        </mxCell>
        <mxCell id="z0cjqU6uOOZi0T0NemjR-6" style="edgeStyle=orthogonalEdgeStyle;rounded=0;orthogonalLoop=1;jettySize=auto;html=1;entryX=-0.022;entryY=0.676;entryDx=0;entryDy=0;entryPerimeter=0;" edge="1" parent="1" source="z0cjqU6uOOZi0T0NemjR-4" target="z0cjqU6uOOZi0T0NemjR-19">
          <mxGeometry relative="1" as="geometry">
            <Array as="points">
              <mxPoint x="115" y="624" />
            </Array>
            <mxPoint x="270" y="730" as="targetPoint" />
          </mxGeometry>
        </mxCell>
        <mxCell id="z0cjqU6uOOZi0T0NemjR-7" value="ไม่" style="edgeLabel;html=1;align=center;verticalAlign=middle;resizable=0;points=[];" vertex="1" connectable="0" parent="z0cjqU6uOOZi0T0NemjR-6">
          <mxGeometry x="-0.8925" y="1" relative="1" as="geometry">
            <mxPoint as="offset" />
          </mxGeometry>
        </mxCell>
        <mxCell id="z0cjqU6uOOZi0T0NemjR-8" value="ตรวจสอบ Account &lt;br&gt;สถานะการใช้งาน" style="rounded=1;whiteSpace=wrap;html=1;" vertex="1" parent="1">
          <mxGeometry x="261.35" y="169" width="170" height="40" as="geometry" />
        </mxCell>
        <mxCell id="z0cjqU6uOOZi0T0NemjR-9" value="" style="edgeStyle=orthogonalEdgeStyle;rounded=0;orthogonalLoop=1;jettySize=auto;html=1;" edge="1" parent="1" source="z0cjqU6uOOZi0T0NemjR-4" target="z0cjqU6uOOZi0T0NemjR-8">
          <mxGeometry relative="1" as="geometry">
            <Array as="points">
              <mxPoint x="225" y="190" />
              <mxPoint x="225" y="190" />
            </Array>
          </mxGeometry>
        </mxCell>
        <mxCell id="z0cjqU6uOOZi0T0NemjR-10" value="ใช่" style="edgeLabel;html=1;align=center;verticalAlign=middle;resizable=0;points=[];" vertex="1" connectable="0" parent="z0cjqU6uOOZi0T0NemjR-9">
          <mxGeometry x="-0.7797" y="-1" relative="1" as="geometry">
            <mxPoint as="offset" />
          </mxGeometry>
        </mxCell>
        <mxCell id="z0cjqU6uOOZi0T0NemjR-11" value="มีใน&lt;br&gt;ระบบ &lt;br&gt;?" style="rhombus;whiteSpace=wrap;html=1;" vertex="1" parent="1">
          <mxGeometry x="308.85" y="248" width="75" height="70" as="geometry" />
        </mxCell>
        <mxCell id="z0cjqU6uOOZi0T0NemjR-12" value="" style="edgeStyle=orthogonalEdgeStyle;rounded=0;orthogonalLoop=1;jettySize=auto;html=1;" edge="1" parent="1" source="z0cjqU6uOOZi0T0NemjR-8" target="z0cjqU6uOOZi0T0NemjR-11">
          <mxGeometry relative="1" as="geometry" />
        </mxCell>
        <mxCell id="z0cjqU6uOOZi0T0NemjR-13" value="status&lt;br style=&quot;border-color: var(--border-color);&quot;&gt;= 1 ?" style="rhombus;whiteSpace=wrap;html=1;" vertex="1" parent="1">
          <mxGeometry x="316.35" y="368" width="60" height="60" as="geometry" />
        </mxCell>
        <mxCell id="z0cjqU6uOOZi0T0NemjR-14" value="" style="edgeStyle=orthogonalEdgeStyle;rounded=0;orthogonalLoop=1;jettySize=auto;html=1;" edge="1" parent="1" source="z0cjqU6uOOZi0T0NemjR-11" target="z0cjqU6uOOZi0T0NemjR-13">
          <mxGeometry relative="1" as="geometry" />
        </mxCell>
        <mxCell id="z0cjqU6uOOZi0T0NemjR-15" value="ใช่" style="edgeLabel;html=1;align=center;verticalAlign=middle;resizable=0;points=[];" vertex="1" connectable="0" parent="z0cjqU6uOOZi0T0NemjR-14">
          <mxGeometry x="-0.3254" y="2" relative="1" as="geometry">
            <mxPoint x="-2" as="offset" />
          </mxGeometry>
        </mxCell>
        <mxCell id="z0cjqU6uOOZi0T0NemjR-16" value="Locked&lt;br style=&quot;border-color: var(--border-color);&quot;&gt;= 1 ?&amp;nbsp;" style="rhombus;whiteSpace=wrap;html=1;" vertex="1" parent="1">
          <mxGeometry x="316.35" y="498" width="60" height="60" as="geometry" />
        </mxCell>
        <mxCell id="z0cjqU6uOOZi0T0NemjR-17" value="" style="edgeStyle=orthogonalEdgeStyle;rounded=0;orthogonalLoop=1;jettySize=auto;html=1;" edge="1" parent="1" source="z0cjqU6uOOZi0T0NemjR-13" target="z0cjqU6uOOZi0T0NemjR-16">
          <mxGeometry relative="1" as="geometry" />
        </mxCell>
        <mxCell id="z0cjqU6uOOZi0T0NemjR-18" value="ไม่" style="edgeLabel;html=1;align=center;verticalAlign=middle;resizable=0;points=[];" vertex="1" connectable="0" parent="z0cjqU6uOOZi0T0NemjR-17">
          <mxGeometry x="-0.3745" relative="1" as="geometry">
            <mxPoint as="offset" />
          </mxGeometry>
        </mxCell>
        <mxCell id="z0cjqU6uOOZi0T0NemjR-19" value="" style="ellipse;whiteSpace=wrap;html=1;aspect=fixed;" vertex="1" parent="1">
          <mxGeometry x="218.75" y="590" width="50" height="50" as="geometry" />
        </mxCell>
        <mxCell id="z0cjqU6uOOZi0T0NemjR-20" style="edgeStyle=orthogonalEdgeStyle;rounded=0;orthogonalLoop=1;jettySize=auto;html=1;" edge="1" parent="1" source="z0cjqU6uOOZi0T0NemjR-21" target="z0cjqU6uOOZi0T0NemjR-19">
          <mxGeometry relative="1" as="geometry">
            <Array as="points">
              <mxPoint x="145" y="283" />
              <mxPoint x="145" y="610" />
            </Array>
          </mxGeometry>
        </mxCell>
        <mxCell id="z0cjqU6uOOZi0T0NemjR-21" value="rerturn Error Code&amp;nbsp;001&lt;span style=&quot;font-size: medium; text-align: start;&quot;&gt;&lt;/span&gt;" style="rounded=1;whiteSpace=wrap;html=1;" vertex="1" parent="1">
          <mxGeometry x="155" y="263" width="77.5" height="40" as="geometry" />
        </mxCell>
        <mxCell id="z0cjqU6uOOZi0T0NemjR-22" style="edgeStyle=orthogonalEdgeStyle;rounded=0;orthogonalLoop=1;jettySize=auto;html=1;" edge="1" parent="1" source="z0cjqU6uOOZi0T0NemjR-11" target="z0cjqU6uOOZi0T0NemjR-21">
          <mxGeometry relative="1" as="geometry">
            <mxPoint x="245.10000000000002" y="388" as="targetPoint" />
          </mxGeometry>
        </mxCell>
        <mxCell id="z0cjqU6uOOZi0T0NemjR-23" value="ไม่" style="edgeLabel;html=1;align=center;verticalAlign=middle;resizable=0;points=[];" vertex="1" connectable="0" parent="z0cjqU6uOOZi0T0NemjR-22">
          <mxGeometry x="-0.6573" y="2" relative="1" as="geometry">
            <mxPoint as="offset" />
          </mxGeometry>
        </mxCell>
        <mxCell id="z0cjqU6uOOZi0T0NemjR-24" style="edgeStyle=orthogonalEdgeStyle;rounded=0;orthogonalLoop=1;jettySize=auto;html=1;entryX=0.5;entryY=0;entryDx=0;entryDy=0;" edge="1" parent="1" source="z0cjqU6uOOZi0T0NemjR-25" target="z0cjqU6uOOZi0T0NemjR-19">
          <mxGeometry relative="1" as="geometry" />
        </mxCell>
        <mxCell id="z0cjqU6uOOZi0T0NemjR-25" value="rerturn Error Code&amp;nbsp;011&lt;span style=&quot;font-size: medium; text-align: start;&quot;&gt;&lt;/span&gt;" style="rounded=1;whiteSpace=wrap;html=1;" vertex="1" parent="1">
          <mxGeometry x="205" y="508" width="77.5" height="40" as="geometry" />
        </mxCell>
        <mxCell id="z0cjqU6uOOZi0T0NemjR-26" value="" style="edgeStyle=orthogonalEdgeStyle;rounded=0;orthogonalLoop=1;jettySize=auto;html=1;" edge="1" parent="1" source="z0cjqU6uOOZi0T0NemjR-16" target="z0cjqU6uOOZi0T0NemjR-25">
          <mxGeometry relative="1" as="geometry" />
        </mxCell>
        <mxCell id="z0cjqU6uOOZi0T0NemjR-27" value="ใช่" style="edgeLabel;html=1;align=center;verticalAlign=middle;resizable=0;points=[];" vertex="1" connectable="0" parent="z0cjqU6uOOZi0T0NemjR-26">
          <mxGeometry x="-0.4608" y="1" relative="1" as="geometry">
            <mxPoint as="offset" />
          </mxGeometry>
        </mxCell>
        <mxCell id="z0cjqU6uOOZi0T0NemjR-28" style="edgeStyle=orthogonalEdgeStyle;rounded=0;orthogonalLoop=1;jettySize=auto;html=1;" edge="1" parent="1" source="z0cjqU6uOOZi0T0NemjR-29" target="z0cjqU6uOOZi0T0NemjR-19">
          <mxGeometry relative="1" as="geometry">
            <mxPoint x="245" y="590" as="targetPoint" />
            <Array as="points">
              <mxPoint x="185" y="398" />
              <mxPoint x="185" y="600" />
            </Array>
          </mxGeometry>
        </mxCell>
        <mxCell id="z0cjqU6uOOZi0T0NemjR-29" value="rerturn Error Code&amp;nbsp;004&lt;span style=&quot;font-size: medium; text-align: start;&quot;&gt;&lt;/span&gt;" style="rounded=1;whiteSpace=wrap;html=1;" vertex="1" parent="1">
          <mxGeometry x="205" y="378" width="77.5" height="40" as="geometry" />
        </mxCell>
        <mxCell id="z0cjqU6uOOZi0T0NemjR-30" value="" style="edgeStyle=orthogonalEdgeStyle;rounded=0;orthogonalLoop=1;jettySize=auto;html=1;" edge="1" parent="1" source="z0cjqU6uOOZi0T0NemjR-13" target="z0cjqU6uOOZi0T0NemjR-29">
          <mxGeometry relative="1" as="geometry" />
        </mxCell>
        <mxCell id="z0cjqU6uOOZi0T0NemjR-31" value="ใช่" style="edgeLabel;html=1;align=center;verticalAlign=middle;resizable=0;points=[];" vertex="1" connectable="0" parent="z0cjqU6uOOZi0T0NemjR-30">
          <mxGeometry x="-0.4608" y="2" relative="1" as="geometry">
            <mxPoint as="offset" />
          </mxGeometry>
        </mxCell>
        <mxCell id="z0cjqU6uOOZi0T0NemjR-32" value="" style="edgeStyle=orthogonalEdgeStyle;rounded=0;orthogonalLoop=1;jettySize=auto;html=1;entryX=0.1;entryY=0.5;entryDx=0;entryDy=0;entryPerimeter=0;" edge="1" parent="1" source="z0cjqU6uOOZi0T0NemjR-16" target="z0cjqU6uOOZi0T0NemjR-35">
          <mxGeometry relative="1" as="geometry">
            <mxPoint x="419" y="528" as="targetPoint" />
          </mxGeometry>
        </mxCell>
        <mxCell id="z0cjqU6uOOZi0T0NemjR-33" value="" style="edgeStyle=orthogonalEdgeStyle;rounded=0;orthogonalLoop=1;jettySize=auto;html=1;" edge="1" parent="1" source="z0cjqU6uOOZi0T0NemjR-35">
          <mxGeometry relative="1" as="geometry">
            <mxPoint x="535" y="528" as="targetPoint" />
          </mxGeometry>
        </mxCell>
        <mxCell id="z0cjqU6uOOZi0T0NemjR-34" value="ไม่" style="edgeLabel;html=1;align=center;verticalAlign=middle;resizable=0;points=[];" vertex="1" connectable="0" parent="z0cjqU6uOOZi0T0NemjR-33">
          <mxGeometry x="-0.3115" y="3" relative="1" as="geometry">
            <mxPoint as="offset" />
          </mxGeometry>
        </mxCell>
        <mxCell id="z0cjqU6uOOZi0T0NemjR-35" value="Super&lt;br&gt;Admin ?" style="rhombus;whiteSpace=wrap;html=1;" vertex="1" parent="1">
          <mxGeometry x="419" y="492" width="66" height="72" as="geometry" />
        </mxCell>
        <mxCell id="z0cjqU6uOOZi0T0NemjR-36" value="ตรวจสอบสิทธิ์การใช้งาน Company นี้ไหม&lt;span style=&quot;font-size: medium; text-align: start;&quot;&gt;&lt;/span&gt;" style="rounded=1;whiteSpace=wrap;html=1;" vertex="1" parent="1">
          <mxGeometry x="535" y="508" width="110" height="42" as="geometry" />
        </mxCell>
        <mxCell id="z0cjqU6uOOZi0T0NemjR-37" value="มี ?" style="rhombus;whiteSpace=wrap;html=1;" vertex="1" parent="1">
          <mxGeometry x="557" y="590" width="66" height="72" as="geometry" />
        </mxCell>
        <mxCell id="z0cjqU6uOOZi0T0NemjR-38" value="" style="edgeStyle=orthogonalEdgeStyle;rounded=0;orthogonalLoop=1;jettySize=auto;html=1;" edge="1" parent="1" source="z0cjqU6uOOZi0T0NemjR-36" target="z0cjqU6uOOZi0T0NemjR-37">
          <mxGeometry relative="1" as="geometry" />
        </mxCell>
        <mxCell id="z0cjqU6uOOZi0T0NemjR-39" value="Company &lt;br&gt;มีในระบบ&lt;br&gt;ไหม ?" style="rhombus;whiteSpace=wrap;html=1;" vertex="1" parent="1">
          <mxGeometry x="545" y="720" width="90" height="80" as="geometry" />
        </mxCell>
        <mxCell id="z0cjqU6uOOZi0T0NemjR-40" value="" style="edgeStyle=orthogonalEdgeStyle;rounded=0;orthogonalLoop=1;jettySize=auto;html=1;" edge="1" parent="1" source="z0cjqU6uOOZi0T0NemjR-37" target="z0cjqU6uOOZi0T0NemjR-39">
          <mxGeometry relative="1" as="geometry" />
        </mxCell>
        <mxCell id="z0cjqU6uOOZi0T0NemjR-41" value="ใช่" style="edgeLabel;html=1;align=center;verticalAlign=middle;resizable=0;points=[];" vertex="1" connectable="0" parent="z0cjqU6uOOZi0T0NemjR-40">
          <mxGeometry x="-0.2859" relative="1" as="geometry">
            <mxPoint as="offset" />
          </mxGeometry>
        </mxCell>
        <mxCell id="z0cjqU6uOOZi0T0NemjR-42" value="rerturn Error Code&amp;nbsp;002&lt;span style=&quot;font-size: medium; text-align: start;&quot;&gt;&lt;/span&gt;" style="rounded=1;whiteSpace=wrap;html=1;" vertex="1" parent="1">
          <mxGeometry x="685" y="606" width="77.5" height="40" as="geometry" />
        </mxCell>
        <mxCell id="z0cjqU6uOOZi0T0NemjR-43" style="edgeStyle=orthogonalEdgeStyle;rounded=0;orthogonalLoop=1;jettySize=auto;html=1;" edge="1" parent="1" source="z0cjqU6uOOZi0T0NemjR-37" target="z0cjqU6uOOZi0T0NemjR-42">
          <mxGeometry relative="1" as="geometry">
            <mxPoint x="685" y="625.9999999999998" as="targetPoint" />
          </mxGeometry>
        </mxCell>
        <mxCell id="z0cjqU6uOOZi0T0NemjR-44" value="ไม่" style="edgeLabel;html=1;align=center;verticalAlign=middle;resizable=0;points=[];" vertex="1" connectable="0" parent="z0cjqU6uOOZi0T0NemjR-43">
          <mxGeometry x="-0.0865" y="2" relative="1" as="geometry">
            <mxPoint as="offset" />
          </mxGeometry>
        </mxCell>
        <mxCell id="z0cjqU6uOOZi0T0NemjR-45" value="Company &lt;br&gt;Active ?" style="rhombus;whiteSpace=wrap;html=1;" vertex="1" parent="1">
          <mxGeometry x="545" y="840" width="90" height="80" as="geometry" />
        </mxCell>
        <mxCell id="z0cjqU6uOOZi0T0NemjR-46" value="ใช่" style="edgeStyle=orthogonalEdgeStyle;rounded=0;orthogonalLoop=1;jettySize=auto;html=1;" edge="1" parent="1" source="z0cjqU6uOOZi0T0NemjR-39" target="z0cjqU6uOOZi0T0NemjR-45">
          <mxGeometry relative="1" as="geometry" />
        </mxCell>
        <mxCell id="z0cjqU6uOOZi0T0NemjR-47" value="rerturn Error Code&amp;nbsp;007&lt;span style=&quot;font-size: medium; text-align: start;&quot;&gt;&lt;/span&gt;" style="rounded=1;whiteSpace=wrap;html=1;" vertex="1" parent="1">
          <mxGeometry x="685" y="740" width="77.5" height="40" as="geometry" />
        </mxCell>
        <mxCell id="z0cjqU6uOOZi0T0NemjR-48" value="" style="edgeStyle=orthogonalEdgeStyle;rounded=0;orthogonalLoop=1;jettySize=auto;html=1;" edge="1" parent="1" source="z0cjqU6uOOZi0T0NemjR-39" target="z0cjqU6uOOZi0T0NemjR-47">
          <mxGeometry relative="1" as="geometry" />
        </mxCell>
        <mxCell id="z0cjqU6uOOZi0T0NemjR-49" value="ไม่" style="edgeLabel;html=1;align=center;verticalAlign=middle;resizable=0;points=[];" vertex="1" connectable="0" parent="z0cjqU6uOOZi0T0NemjR-48">
          <mxGeometry x="-0.1127" relative="1" as="geometry">
            <mxPoint as="offset" />
          </mxGeometry>
        </mxCell>
        <mxCell id="z0cjqU6uOOZi0T0NemjR-50" value="rerturn Error Code&amp;nbsp;051&lt;span style=&quot;font-size: medium; text-align: start;&quot;&gt;&lt;/span&gt;" style="rounded=1;whiteSpace=wrap;html=1;" vertex="1" parent="1">
          <mxGeometry x="685" y="860" width="77.5" height="40" as="geometry" />
        </mxCell>
        <mxCell id="z0cjqU6uOOZi0T0NemjR-51" value="" style="edgeStyle=orthogonalEdgeStyle;rounded=0;orthogonalLoop=1;jettySize=auto;html=1;" edge="1" parent="1" source="z0cjqU6uOOZi0T0NemjR-45" target="z0cjqU6uOOZi0T0NemjR-50">
          <mxGeometry relative="1" as="geometry" />
        </mxCell>
        <mxCell id="z0cjqU6uOOZi0T0NemjR-52" value="ไม่" style="edgeLabel;html=1;align=center;verticalAlign=middle;resizable=0;points=[];" vertex="1" connectable="0" parent="z0cjqU6uOOZi0T0NemjR-51">
          <mxGeometry x="-0.2152" y="2" relative="1" as="geometry">
            <mxPoint as="offset" />
          </mxGeometry>
        </mxCell>
        <mxCell id="z0cjqU6uOOZi0T0NemjR-53" value="" style="edgeStyle=orthogonalEdgeStyle;rounded=0;orthogonalLoop=1;jettySize=auto;html=1;" edge="1" parent="1" source="z0cjqU6uOOZi0T0NemjR-54" target="z0cjqU6uOOZi0T0NemjR-70">
          <mxGeometry relative="1" as="geometry" />
        </mxCell>
        <mxCell id="z0cjqU6uOOZi0T0NemjR-54" value="ดึงข้อมูลบุคคลที่เกี่ยวข้องกับในบริษัท" style="rounded=1;whiteSpace=wrap;html=1;" vertex="1" parent="1">
          <mxGeometry x="392" y="860" width="120" height="40" as="geometry" />
        </mxCell>
        <mxCell id="z0cjqU6uOOZi0T0NemjR-55" style="edgeStyle=orthogonalEdgeStyle;rounded=0;orthogonalLoop=1;jettySize=auto;html=1;entryX=0.5;entryY=0;entryDx=0;entryDy=0;" edge="1" parent="1" source="z0cjqU6uOOZi0T0NemjR-35" target="z0cjqU6uOOZi0T0NemjR-54">
          <mxGeometry relative="1" as="geometry">
            <mxPoint x="452" y="920" as="targetPoint" />
          </mxGeometry>
        </mxCell>
        <mxCell id="z0cjqU6uOOZi0T0NemjR-56" value="ใช่" style="edgeLabel;html=1;align=center;verticalAlign=middle;resizable=0;points=[];" vertex="1" connectable="0" parent="z0cjqU6uOOZi0T0NemjR-55">
          <mxGeometry x="-0.3215" y="2" relative="1" as="geometry">
            <mxPoint as="offset" />
          </mxGeometry>
        </mxCell>
        <mxCell id="z0cjqU6uOOZi0T0NemjR-57" style="edgeStyle=orthogonalEdgeStyle;rounded=0;orthogonalLoop=1;jettySize=auto;html=1;entryX=1;entryY=0.5;entryDx=0;entryDy=0;" edge="1" parent="1" source="z0cjqU6uOOZi0T0NemjR-45" target="z0cjqU6uOOZi0T0NemjR-54">
          <mxGeometry relative="1" as="geometry">
            <Array as="points">
              <mxPoint x="512" y="880" />
            </Array>
          </mxGeometry>
        </mxCell>
        <mxCell id="z0cjqU6uOOZi0T0NemjR-58" value="" style="ellipse;whiteSpace=wrap;html=1;aspect=fixed;" vertex="1" parent="1">
          <mxGeometry x="698.75" y="970" width="50" height="50" as="geometry" />
        </mxCell>
        <mxCell id="z0cjqU6uOOZi0T0NemjR-59" style="edgeStyle=orthogonalEdgeStyle;rounded=0;orthogonalLoop=1;jettySize=auto;html=1;entryX=1;entryY=0.5;entryDx=0;entryDy=0;" edge="1" parent="1" source="z0cjqU6uOOZi0T0NemjR-42" target="z0cjqU6uOOZi0T0NemjR-58">
          <mxGeometry relative="1" as="geometry">
            <mxPoint x="785" y="780" as="targetPoint" />
            <Array as="points">
              <mxPoint x="783" y="626" />
              <mxPoint x="783" y="995" />
            </Array>
          </mxGeometry>
        </mxCell>
        <mxCell id="z0cjqU6uOOZi0T0NemjR-60" style="edgeStyle=orthogonalEdgeStyle;rounded=0;orthogonalLoop=1;jettySize=auto;html=1;entryX=1;entryY=0;entryDx=0;entryDy=0;" edge="1" parent="1" source="z0cjqU6uOOZi0T0NemjR-47" target="z0cjqU6uOOZi0T0NemjR-58">
          <mxGeometry relative="1" as="geometry">
            <Array as="points">
              <mxPoint x="775" y="760" />
              <mxPoint x="775" y="977" />
            </Array>
          </mxGeometry>
        </mxCell>
        <mxCell id="z0cjqU6uOOZi0T0NemjR-61" style="edgeStyle=orthogonalEdgeStyle;rounded=0;orthogonalLoop=1;jettySize=auto;html=1;" edge="1" parent="1" source="z0cjqU6uOOZi0T0NemjR-50" target="z0cjqU6uOOZi0T0NemjR-58">
          <mxGeometry relative="1" as="geometry" />
        </mxCell>
        <mxCell id="z0cjqU6uOOZi0T0NemjR-62" value="สิ้นสุด" style="ellipse;whiteSpace=wrap;html=1;" vertex="1" parent="1">
          <mxGeometry x="367" y="1070" width="103" height="60" as="geometry" />
        </mxCell>
        <mxCell id="z0cjqU6uOOZi0T0NemjR-63" style="edgeStyle=orthogonalEdgeStyle;rounded=0;orthogonalLoop=1;jettySize=auto;html=1;entryX=0;entryY=0.5;entryDx=0;entryDy=0;" edge="1" parent="1" source="z0cjqU6uOOZi0T0NemjR-19" target="z0cjqU6uOOZi0T0NemjR-62">
          <mxGeometry relative="1" as="geometry">
            <Array as="points">
              <mxPoint x="244" y="1100" />
            </Array>
          </mxGeometry>
        </mxCell>
        <mxCell id="z0cjqU6uOOZi0T0NemjR-64" style="edgeStyle=orthogonalEdgeStyle;rounded=0;orthogonalLoop=1;jettySize=auto;html=1;entryX=1;entryY=1;entryDx=0;entryDy=0;" edge="1" parent="1" source="z0cjqU6uOOZi0T0NemjR-58" target="z0cjqU6uOOZi0T0NemjR-62">
          <mxGeometry relative="1" as="geometry">
            <Array as="points">
              <mxPoint x="724" y="1120" />
              <mxPoint x="455" y="1120" />
            </Array>
          </mxGeometry>
        </mxCell>
        <mxCell id="z0cjqU6uOOZi0T0NemjR-65" style="edgeStyle=orthogonalEdgeStyle;rounded=0;orthogonalLoop=1;jettySize=auto;html=1;entryX=0;entryY=0;entryDx=0;entryDy=0;" edge="1" parent="1" source="z0cjqU6uOOZi0T0NemjR-66" target="z0cjqU6uOOZi0T0NemjR-62">
          <mxGeometry relative="1" as="geometry">
            <Array as="points">
              <mxPoint x="340" y="1080" />
              <mxPoint x="380" y="1080" />
              <mxPoint x="380" y="1079" />
            </Array>
          </mxGeometry>
        </mxCell>
        <mxCell id="z0cjqU6uOOZi0T0NemjR-66" value="ส่งกลับข้อมูลบุคคลที่เกี่ยวข้องกับในบริษัท" style="rounded=1;whiteSpace=wrap;html=1;" vertex="1" parent="1">
          <mxGeometry x="280" y="930" width="120" height="40" as="geometry" />
        </mxCell>
        <mxCell id="z0cjqU6uOOZi0T0NemjR-67" value="" style="edgeStyle=orthogonalEdgeStyle;rounded=0;orthogonalLoop=1;jettySize=auto;html=1;" edge="1" parent="1" source="z0cjqU6uOOZi0T0NemjR-70" target="z0cjqU6uOOZi0T0NemjR-66">
          <mxGeometry relative="1" as="geometry" />
        </mxCell>
        <mxCell id="z0cjqU6uOOZi0T0NemjR-68" value="ใช่" style="edgeLabel;html=1;align=center;verticalAlign=middle;resizable=0;points=[];" vertex="1" connectable="0" parent="z0cjqU6uOOZi0T0NemjR-67">
          <mxGeometry x="-0.3989" y="-1" relative="1" as="geometry">
            <mxPoint y="2" as="offset" />
          </mxGeometry>
        </mxCell>
        <mxCell id="z0cjqU6uOOZi0T0NemjR-69" style="edgeStyle=orthogonalEdgeStyle;rounded=0;orthogonalLoop=1;jettySize=auto;html=1;" edge="1" parent="1" source="z0cjqU6uOOZi0T0NemjR-70" target="z0cjqU6uOOZi0T0NemjR-72">
          <mxGeometry relative="1" as="geometry" />
        </mxCell>
        <mxCell id="z0cjqU6uOOZi0T0NemjR-70" value="มี?" style="rhombus;whiteSpace=wrap;html=1;" vertex="1" parent="1">
          <mxGeometry x="427.75" y="930" width="48.5" height="40" as="geometry" />
        </mxCell>
        <mxCell id="z0cjqU6uOOZi0T0NemjR-71" style="edgeStyle=orthogonalEdgeStyle;rounded=0;orthogonalLoop=1;jettySize=auto;html=1;" edge="1" parent="1" source="z0cjqU6uOOZi0T0NemjR-72" target="z0cjqU6uOOZi0T0NemjR-62">
          <mxGeometry relative="1" as="geometry" />
        </mxCell>
        <mxCell id="z0cjqU6uOOZi0T0NemjR-72" value="return Error code 054" style="rounded=1;whiteSpace=wrap;html=1;" vertex="1" parent="1">
          <mxGeometry x="477" y="1000" width="80" height="50" as="geometry" />
        </mxCell>
      </root>
    </mxGraphModel>
  </diagram>
  <diagram id="O6jawnzG-21F-62HTjFX" name="หน้า-3">
    <mxGraphModel dx="1433" dy="1264" grid="1" gridSize="10" guides="1" tooltips="1" connect="1" arrows="1" fold="1" page="1" pageScale="1" pageWidth="827" pageHeight="1169" math="0" shadow="0">
      <root>
        <mxCell id="0" />
        <mxCell id="1" parent="0" />
        <mxCell id="YyMaMgJApZJj3cnEreC1-1" value="เริ่ม" style="ellipse;whiteSpace=wrap;html=1;" vertex="1" parent="1">
          <mxGeometry x="75" y="20" width="80" height="40" as="geometry" />
        </mxCell>
        <mxCell id="YyMaMgJApZJj3cnEreC1-2" value="ตรวจสอบสิทธิ์การใช้งาน" style="rounded=1;whiteSpace=wrap;html=1;" vertex="1" parent="1">
          <mxGeometry x="45" y="100" width="140" height="30" as="geometry" />
        </mxCell>
        <mxCell id="YyMaMgJApZJj3cnEreC1-3" value="" style="edgeStyle=orthogonalEdgeStyle;rounded=0;orthogonalLoop=1;jettySize=auto;html=1;" edge="1" parent="1" source="YyMaMgJApZJj3cnEreC1-1" target="YyMaMgJApZJj3cnEreC1-2">
          <mxGeometry relative="1" as="geometry" />
        </mxCell>
        <mxCell id="YyMaMgJApZJj3cnEreC1-4" value="มี ?" style="rhombus;whiteSpace=wrap;html=1;" vertex="1" parent="1">
          <mxGeometry x="85" y="160" width="60" height="60" as="geometry" />
        </mxCell>
        <mxCell id="YyMaMgJApZJj3cnEreC1-5" value="" style="edgeStyle=orthogonalEdgeStyle;rounded=0;orthogonalLoop=1;jettySize=auto;html=1;" edge="1" parent="1" source="YyMaMgJApZJj3cnEreC1-2" target="YyMaMgJApZJj3cnEreC1-4">
          <mxGeometry relative="1" as="geometry" />
        </mxCell>
        <mxCell id="YyMaMgJApZJj3cnEreC1-6" style="edgeStyle=orthogonalEdgeStyle;rounded=0;orthogonalLoop=1;jettySize=auto;html=1;entryX=-0.022;entryY=0.676;entryDx=0;entryDy=0;entryPerimeter=0;" edge="1" parent="1" source="YyMaMgJApZJj3cnEreC1-4" target="YyMaMgJApZJj3cnEreC1-19">
          <mxGeometry relative="1" as="geometry">
            <Array as="points">
              <mxPoint x="115" y="690" />
              <mxPoint x="196" y="690" />
            </Array>
            <mxPoint x="270" y="730" as="targetPoint" />
          </mxGeometry>
        </mxCell>
        <mxCell id="YyMaMgJApZJj3cnEreC1-7" value="ไม่" style="edgeLabel;html=1;align=center;verticalAlign=middle;resizable=0;points=[];" vertex="1" connectable="0" parent="YyMaMgJApZJj3cnEreC1-6">
          <mxGeometry x="-0.8925" y="1" relative="1" as="geometry">
            <mxPoint as="offset" />
          </mxGeometry>
        </mxCell>
        <mxCell id="YyMaMgJApZJj3cnEreC1-8" value="ตรวจสอบ Account &lt;br&gt;สถานะการใช้งาน" style="rounded=1;whiteSpace=wrap;html=1;" vertex="1" parent="1">
          <mxGeometry x="261.35" y="169" width="170" height="40" as="geometry" />
        </mxCell>
        <mxCell id="YyMaMgJApZJj3cnEreC1-9" value="" style="edgeStyle=orthogonalEdgeStyle;rounded=0;orthogonalLoop=1;jettySize=auto;html=1;" edge="1" parent="1" source="YyMaMgJApZJj3cnEreC1-4" target="YyMaMgJApZJj3cnEreC1-8">
          <mxGeometry relative="1" as="geometry">
            <Array as="points">
              <mxPoint x="225" y="190" />
              <mxPoint x="225" y="190" />
            </Array>
          </mxGeometry>
        </mxCell>
        <mxCell id="YyMaMgJApZJj3cnEreC1-10" value="ใช่" style="edgeLabel;html=1;align=center;verticalAlign=middle;resizable=0;points=[];" vertex="1" connectable="0" parent="YyMaMgJApZJj3cnEreC1-9">
          <mxGeometry x="-0.7797" y="-1" relative="1" as="geometry">
            <mxPoint as="offset" />
          </mxGeometry>
        </mxCell>
        <mxCell id="YyMaMgJApZJj3cnEreC1-11" value="มีใน&lt;br&gt;ระบบ &lt;br&gt;?" style="rhombus;whiteSpace=wrap;html=1;" vertex="1" parent="1">
          <mxGeometry x="339" y="248" width="75" height="70" as="geometry" />
        </mxCell>
        <mxCell id="YyMaMgJApZJj3cnEreC1-12" value="" style="edgeStyle=orthogonalEdgeStyle;rounded=0;orthogonalLoop=1;jettySize=auto;html=1;" edge="1" parent="1" source="YyMaMgJApZJj3cnEreC1-8" target="YyMaMgJApZJj3cnEreC1-11">
          <mxGeometry relative="1" as="geometry" />
        </mxCell>
        <mxCell id="YyMaMgJApZJj3cnEreC1-13" value="status&lt;br style=&quot;border-color: var(--border-color);&quot;&gt;= 1 ?" style="rhombus;whiteSpace=wrap;html=1;" vertex="1" parent="1">
          <mxGeometry x="367" y="368" width="60" height="60" as="geometry" />
        </mxCell>
        <mxCell id="YyMaMgJApZJj3cnEreC1-14" value="" style="edgeStyle=orthogonalEdgeStyle;rounded=0;orthogonalLoop=1;jettySize=auto;html=1;" edge="1" parent="1" source="YyMaMgJApZJj3cnEreC1-11" target="YyMaMgJApZJj3cnEreC1-13">
          <mxGeometry relative="1" as="geometry" />
        </mxCell>
        <mxCell id="YyMaMgJApZJj3cnEreC1-15" value="ใช่" style="edgeLabel;html=1;align=center;verticalAlign=middle;resizable=0;points=[];" vertex="1" connectable="0" parent="YyMaMgJApZJj3cnEreC1-14">
          <mxGeometry x="-0.3254" y="2" relative="1" as="geometry">
            <mxPoint x="-2" as="offset" />
          </mxGeometry>
        </mxCell>
        <mxCell id="YyMaMgJApZJj3cnEreC1-16" value="Locked&lt;br style=&quot;border-color: var(--border-color);&quot;&gt;= 1 ?&amp;nbsp;" style="rhombus;whiteSpace=wrap;html=1;" vertex="1" parent="1">
          <mxGeometry x="367.75" y="498" width="60" height="60" as="geometry" />
        </mxCell>
        <mxCell id="YyMaMgJApZJj3cnEreC1-17" value="" style="edgeStyle=orthogonalEdgeStyle;rounded=0;orthogonalLoop=1;jettySize=auto;html=1;" edge="1" parent="1" source="YyMaMgJApZJj3cnEreC1-13" target="YyMaMgJApZJj3cnEreC1-16">
          <mxGeometry relative="1" as="geometry" />
        </mxCell>
        <mxCell id="YyMaMgJApZJj3cnEreC1-18" value="ไม่" style="edgeLabel;html=1;align=center;verticalAlign=middle;resizable=0;points=[];" vertex="1" connectable="0" parent="YyMaMgJApZJj3cnEreC1-17">
          <mxGeometry x="-0.3745" relative="1" as="geometry">
            <mxPoint as="offset" />
          </mxGeometry>
        </mxCell>
        <mxCell id="YyMaMgJApZJj3cnEreC1-19" value="1" style="ellipse;whiteSpace=wrap;html=1;aspect=fixed;" vertex="1" parent="1">
          <mxGeometry x="197.5" y="662" width="50" height="50" as="geometry" />
        </mxCell>
        <mxCell id="YyMaMgJApZJj3cnEreC1-20" style="edgeStyle=orthogonalEdgeStyle;rounded=0;orthogonalLoop=1;jettySize=auto;html=1;exitX=0.492;exitY=0.949;exitDx=0;exitDy=0;exitPerimeter=0;" edge="1" parent="1" source="YyMaMgJApZJj3cnEreC1-21" target="YyMaMgJApZJj3cnEreC1-19">
          <mxGeometry relative="1" as="geometry">
            <Array as="points">
              <mxPoint x="166" y="376" />
              <mxPoint x="150" y="376" />
              <mxPoint x="150" y="680" />
            </Array>
          </mxGeometry>
        </mxCell>
        <mxCell id="YyMaMgJApZJj3cnEreC1-21" value="rerturn Error Code&amp;nbsp;001&lt;span style=&quot;font-size: medium; text-align: start;&quot;&gt;&lt;/span&gt;" style="rounded=1;whiteSpace=wrap;html=1;" vertex="1" parent="1">
          <mxGeometry x="127.5" y="328" width="77.5" height="40" as="geometry" />
        </mxCell>
        <mxCell id="YyMaMgJApZJj3cnEreC1-22" style="edgeStyle=orthogonalEdgeStyle;rounded=0;orthogonalLoop=1;jettySize=auto;html=1;entryX=1;entryY=1;entryDx=0;entryDy=0;" edge="1" parent="1" source="YyMaMgJApZJj3cnEreC1-23" target="YyMaMgJApZJj3cnEreC1-19">
          <mxGeometry relative="1" as="geometry">
            <Array as="points">
              <mxPoint x="302" y="705" />
              <mxPoint x="244" y="705" />
            </Array>
          </mxGeometry>
        </mxCell>
        <mxCell id="YyMaMgJApZJj3cnEreC1-23" value="rerturn Error Code&amp;nbsp;011&lt;span style=&quot;font-size: medium; text-align: start;&quot;&gt;&lt;/span&gt;" style="rounded=1;whiteSpace=wrap;html=1;" vertex="1" parent="1">
          <mxGeometry x="263.5" y="646" width="77.5" height="40" as="geometry" />
        </mxCell>
        <mxCell id="YyMaMgJApZJj3cnEreC1-24" value="" style="edgeStyle=orthogonalEdgeStyle;rounded=0;orthogonalLoop=1;jettySize=auto;html=1;entryX=0.467;entryY=0.027;entryDx=0;entryDy=0;entryPerimeter=0;" edge="1" parent="1" source="YyMaMgJApZJj3cnEreC1-68" target="YyMaMgJApZJj3cnEreC1-70">
          <mxGeometry relative="1" as="geometry" />
        </mxCell>
        <mxCell id="YyMaMgJApZJj3cnEreC1-25" style="edgeStyle=orthogonalEdgeStyle;rounded=0;orthogonalLoop=1;jettySize=auto;html=1;" edge="1" parent="1" source="YyMaMgJApZJj3cnEreC1-26" target="YyMaMgJApZJj3cnEreC1-19">
          <mxGeometry relative="1" as="geometry">
            <mxPoint x="190" y="630" as="targetPoint" />
            <Array as="points">
              <mxPoint x="209" y="660" />
              <mxPoint x="209" y="660" />
            </Array>
          </mxGeometry>
        </mxCell>
        <mxCell id="YyMaMgJApZJj3cnEreC1-26" value="rerturn Error Code&amp;nbsp;004&lt;span style=&quot;font-size: medium; text-align: start;&quot;&gt;&lt;/span&gt;" style="rounded=1;whiteSpace=wrap;html=1;" vertex="1" parent="1">
          <mxGeometry x="170" y="468" width="77.5" height="40" as="geometry" />
        </mxCell>
        <mxCell id="YyMaMgJApZJj3cnEreC1-27" value="" style="edgeStyle=orthogonalEdgeStyle;rounded=0;orthogonalLoop=1;jettySize=auto;html=1;" edge="1" parent="1" source="YyMaMgJApZJj3cnEreC1-13" target="YyMaMgJApZJj3cnEreC1-63">
          <mxGeometry relative="1" as="geometry">
            <mxPoint x="300" y="380" as="targetPoint" />
          </mxGeometry>
        </mxCell>
        <mxCell id="YyMaMgJApZJj3cnEreC1-28" value="ใช่" style="edgeLabel;html=1;align=center;verticalAlign=middle;resizable=0;points=[];" vertex="1" connectable="0" parent="YyMaMgJApZJj3cnEreC1-27">
          <mxGeometry x="-0.4608" y="2" relative="1" as="geometry">
            <mxPoint as="offset" />
          </mxGeometry>
        </mxCell>
        <mxCell id="YyMaMgJApZJj3cnEreC1-29" value="" style="edgeStyle=orthogonalEdgeStyle;rounded=0;orthogonalLoop=1;jettySize=auto;html=1;entryX=0.1;entryY=0.5;entryDx=0;entryDy=0;entryPerimeter=0;" edge="1" parent="1" source="YyMaMgJApZJj3cnEreC1-16" target="YyMaMgJApZJj3cnEreC1-32">
          <mxGeometry relative="1" as="geometry">
            <mxPoint x="419" y="528" as="targetPoint" />
            <Array as="points">
              <mxPoint x="460" y="528" />
              <mxPoint x="460" y="354" />
            </Array>
          </mxGeometry>
        </mxCell>
        <mxCell id="YyMaMgJApZJj3cnEreC1-30" value="" style="edgeStyle=orthogonalEdgeStyle;rounded=0;orthogonalLoop=1;jettySize=auto;html=1;" edge="1" parent="1" source="YyMaMgJApZJj3cnEreC1-32" target="YyMaMgJApZJj3cnEreC1-33">
          <mxGeometry relative="1" as="geometry">
            <mxPoint x="535" y="528" as="targetPoint" />
            <Array as="points">
              <mxPoint x="590" y="354" />
            </Array>
          </mxGeometry>
        </mxCell>
        <mxCell id="YyMaMgJApZJj3cnEreC1-31" value="ไม่" style="edgeLabel;html=1;align=center;verticalAlign=middle;resizable=0;points=[];" vertex="1" connectable="0" parent="YyMaMgJApZJj3cnEreC1-30">
          <mxGeometry x="-0.3115" y="3" relative="1" as="geometry">
            <mxPoint as="offset" />
          </mxGeometry>
        </mxCell>
        <mxCell id="YyMaMgJApZJj3cnEreC1-32" value="Super&lt;br&gt;Admin ?" style="rhombus;whiteSpace=wrap;html=1;" vertex="1" parent="1">
          <mxGeometry x="476.25" y="318" width="66" height="72" as="geometry" />
        </mxCell>
        <mxCell id="YyMaMgJApZJj3cnEreC1-33" value="ตรวจสอบสิทธิ์การใช้งาน Company นี้ไหม&lt;span style=&quot;font-size: medium; text-align: start;&quot;&gt;&lt;/span&gt;" style="rounded=1;whiteSpace=wrap;html=1;" vertex="1" parent="1">
          <mxGeometry x="535" y="508" width="110" height="42" as="geometry" />
        </mxCell>
        <mxCell id="YyMaMgJApZJj3cnEreC1-34" value="มี ?" style="rhombus;whiteSpace=wrap;html=1;" vertex="1" parent="1">
          <mxGeometry x="557" y="590" width="66" height="72" as="geometry" />
        </mxCell>
        <mxCell id="YyMaMgJApZJj3cnEreC1-35" value="" style="edgeStyle=orthogonalEdgeStyle;rounded=0;orthogonalLoop=1;jettySize=auto;html=1;" edge="1" parent="1" source="YyMaMgJApZJj3cnEreC1-33" target="YyMaMgJApZJj3cnEreC1-34">
          <mxGeometry relative="1" as="geometry" />
        </mxCell>
        <mxCell id="YyMaMgJApZJj3cnEreC1-36" value="Company &lt;br&gt;มีในระบบ&lt;br&gt;ไหม ?" style="rhombus;whiteSpace=wrap;html=1;" vertex="1" parent="1">
          <mxGeometry x="545" y="720" width="90" height="80" as="geometry" />
        </mxCell>
        <mxCell id="YyMaMgJApZJj3cnEreC1-37" value="" style="edgeStyle=orthogonalEdgeStyle;rounded=0;orthogonalLoop=1;jettySize=auto;html=1;" edge="1" parent="1" source="YyMaMgJApZJj3cnEreC1-34" target="YyMaMgJApZJj3cnEreC1-36">
          <mxGeometry relative="1" as="geometry" />
        </mxCell>
        <mxCell id="YyMaMgJApZJj3cnEreC1-38" value="ใช่" style="edgeLabel;html=1;align=center;verticalAlign=middle;resizable=0;points=[];" vertex="1" connectable="0" parent="YyMaMgJApZJj3cnEreC1-37">
          <mxGeometry x="-0.2859" relative="1" as="geometry">
            <mxPoint as="offset" />
          </mxGeometry>
        </mxCell>
        <mxCell id="YyMaMgJApZJj3cnEreC1-39" style="edgeStyle=orthogonalEdgeStyle;rounded=0;orthogonalLoop=1;jettySize=auto;html=1;" edge="1" parent="1">
          <mxGeometry relative="1" as="geometry">
            <mxPoint x="737.5" y="626" as="sourcePoint" />
            <mxPoint x="760" y="626" as="targetPoint" />
          </mxGeometry>
        </mxCell>
        <mxCell id="YyMaMgJApZJj3cnEreC1-40" style="edgeStyle=orthogonalEdgeStyle;rounded=0;orthogonalLoop=1;jettySize=auto;html=1;" edge="1" parent="1" source="YyMaMgJApZJj3cnEreC1-34">
          <mxGeometry relative="1" as="geometry">
            <mxPoint x="660" y="626" as="targetPoint" />
          </mxGeometry>
        </mxCell>
        <mxCell id="YyMaMgJApZJj3cnEreC1-41" value="ไม่" style="edgeLabel;html=1;align=center;verticalAlign=middle;resizable=0;points=[];" vertex="1" connectable="0" parent="YyMaMgJApZJj3cnEreC1-40">
          <mxGeometry x="-0.0865" y="2" relative="1" as="geometry">
            <mxPoint as="offset" />
          </mxGeometry>
        </mxCell>
        <mxCell id="yH87mLTyiJubRlxHjX0a-9" style="edgeStyle=orthogonalEdgeStyle;rounded=0;orthogonalLoop=1;jettySize=auto;html=1;entryX=1;entryY=0.5;entryDx=0;entryDy=0;" edge="1" parent="1" source="YyMaMgJApZJj3cnEreC1-44" target="yH87mLTyiJubRlxHjX0a-2">
          <mxGeometry relative="1" as="geometry" />
        </mxCell>
        <mxCell id="yH87mLTyiJubRlxHjX0a-10" value="ใช่" style="edgeLabel;html=1;align=center;verticalAlign=middle;resizable=0;points=[];" vertex="1" connectable="0" parent="yH87mLTyiJubRlxHjX0a-9">
          <mxGeometry x="-0.1545" y="1" relative="1" as="geometry">
            <mxPoint as="offset" />
          </mxGeometry>
        </mxCell>
        <mxCell id="YyMaMgJApZJj3cnEreC1-44" value="Company &lt;br&gt;Active ?" style="rhombus;whiteSpace=wrap;html=1;" vertex="1" parent="1">
          <mxGeometry x="545" y="840" width="90" height="80" as="geometry" />
        </mxCell>
        <mxCell id="YyMaMgJApZJj3cnEreC1-45" value="ใช่" style="edgeStyle=orthogonalEdgeStyle;rounded=0;orthogonalLoop=1;jettySize=auto;html=1;" edge="1" parent="1" source="YyMaMgJApZJj3cnEreC1-36" target="YyMaMgJApZJj3cnEreC1-44">
          <mxGeometry relative="1" as="geometry" />
        </mxCell>
        <mxCell id="YyMaMgJApZJj3cnEreC1-46" value="" style="edgeStyle=orthogonalEdgeStyle;rounded=0;orthogonalLoop=1;jettySize=auto;html=1;" edge="1" parent="1" source="YyMaMgJApZJj3cnEreC1-36">
          <mxGeometry relative="1" as="geometry">
            <mxPoint x="685" y="760" as="targetPoint" />
          </mxGeometry>
        </mxCell>
        <mxCell id="YyMaMgJApZJj3cnEreC1-47" value="ไม่" style="edgeLabel;html=1;align=center;verticalAlign=middle;resizable=0;points=[];" vertex="1" connectable="0" parent="YyMaMgJApZJj3cnEreC1-46">
          <mxGeometry x="-0.1127" relative="1" as="geometry">
            <mxPoint as="offset" />
          </mxGeometry>
        </mxCell>
        <mxCell id="YyMaMgJApZJj3cnEreC1-48" value="" style="edgeStyle=orthogonalEdgeStyle;rounded=0;orthogonalLoop=1;jettySize=auto;html=1;" edge="1" parent="1" source="YyMaMgJApZJj3cnEreC1-44" target="YyMaMgJApZJj3cnEreC1-83">
          <mxGeometry relative="1" as="geometry">
            <mxPoint x="685" y="880" as="targetPoint" />
          </mxGeometry>
        </mxCell>
        <mxCell id="YyMaMgJApZJj3cnEreC1-49" value="ไม่" style="edgeLabel;html=1;align=center;verticalAlign=middle;resizable=0;points=[];" vertex="1" connectable="0" parent="YyMaMgJApZJj3cnEreC1-48">
          <mxGeometry x="-0.2152" y="2" relative="1" as="geometry">
            <mxPoint as="offset" />
          </mxGeometry>
        </mxCell>
        <mxCell id="YyMaMgJApZJj3cnEreC1-50" style="edgeStyle=orthogonalEdgeStyle;rounded=0;orthogonalLoop=1;jettySize=auto;html=1;entryX=0.5;entryY=0;entryDx=0;entryDy=0;" edge="1" parent="1" source="YyMaMgJApZJj3cnEreC1-32" target="yH87mLTyiJubRlxHjX0a-2">
          <mxGeometry relative="1" as="geometry">
            <mxPoint x="500" y="690" as="targetPoint" />
            <Array as="points">
              <mxPoint x="509" y="560" />
              <mxPoint x="450" y="560" />
            </Array>
          </mxGeometry>
        </mxCell>
        <mxCell id="YyMaMgJApZJj3cnEreC1-51" value="ใช่" style="edgeLabel;html=1;align=center;verticalAlign=middle;resizable=0;points=[];" vertex="1" connectable="0" parent="YyMaMgJApZJj3cnEreC1-50">
          <mxGeometry x="-0.3215" y="2" relative="1" as="geometry">
            <mxPoint as="offset" />
          </mxGeometry>
        </mxCell>
        <mxCell id="YyMaMgJApZJj3cnEreC1-53" value="2" style="ellipse;whiteSpace=wrap;html=1;aspect=fixed;" vertex="1" parent="1">
          <mxGeometry x="698.75" y="970" width="50" height="50" as="geometry" />
        </mxCell>
        <mxCell id="YyMaMgJApZJj3cnEreC1-54" style="edgeStyle=orthogonalEdgeStyle;rounded=0;orthogonalLoop=1;jettySize=auto;html=1;entryX=1;entryY=0.5;entryDx=0;entryDy=0;" edge="1" parent="1" source="YyMaMgJApZJj3cnEreC1-73" target="YyMaMgJApZJj3cnEreC1-53">
          <mxGeometry relative="1" as="geometry">
            <mxPoint x="785" y="780" as="targetPoint" />
            <Array as="points">
              <mxPoint x="910" y="692" />
              <mxPoint x="910" y="995" />
            </Array>
            <mxPoint x="800.0285714285715" y="646" as="sourcePoint" />
          </mxGeometry>
        </mxCell>
        <mxCell id="YyMaMgJApZJj3cnEreC1-55" style="edgeStyle=orthogonalEdgeStyle;rounded=0;orthogonalLoop=1;jettySize=auto;html=1;entryX=0;entryY=0.5;entryDx=0;entryDy=0;" edge="1" parent="1" target="YyMaMgJApZJj3cnEreC1-79">
          <mxGeometry relative="1" as="geometry">
            <Array as="points">
              <mxPoint x="780" y="760" />
              <mxPoint x="780" y="760" />
            </Array>
            <mxPoint x="762.5" y="760.037037037037" as="sourcePoint" />
          </mxGeometry>
        </mxCell>
        <mxCell id="YyMaMgJApZJj3cnEreC1-56" value="" style="edgeStyle=orthogonalEdgeStyle;rounded=0;orthogonalLoop=1;jettySize=auto;html=1;entryX=0.5;entryY=0;entryDx=0;entryDy=0;" edge="1" parent="1" source="YyMaMgJApZJj3cnEreC1-57" target="YyMaMgJApZJj3cnEreC1-21">
          <mxGeometry relative="1" as="geometry" />
        </mxCell>
        <mxCell id="YyMaMgJApZJj3cnEreC1-57" value="บันทึกข้อมูล&lt;span style=&quot;font-size: medium; text-align: start;&quot;&gt;&lt;/span&gt;" style="rounded=1;whiteSpace=wrap;html=1;" vertex="1" parent="1">
          <mxGeometry x="127.5" y="263" width="77.5" height="40" as="geometry" />
        </mxCell>
        <mxCell id="YyMaMgJApZJj3cnEreC1-58" value="" style="edgeStyle=orthogonalEdgeStyle;rounded=0;orthogonalLoop=1;jettySize=auto;html=1;" edge="1" parent="1" source="YyMaMgJApZJj3cnEreC1-11" target="YyMaMgJApZJj3cnEreC1-61">
          <mxGeometry relative="1" as="geometry">
            <mxPoint x="159" y="338" as="targetPoint" />
            <mxPoint x="309" y="283" as="sourcePoint" />
          </mxGeometry>
        </mxCell>
        <mxCell id="YyMaMgJApZJj3cnEreC1-59" value="ไม่" style="edgeLabel;html=1;align=center;verticalAlign=middle;resizable=0;points=[];" vertex="1" connectable="0" parent="YyMaMgJApZJj3cnEreC1-58">
          <mxGeometry x="-0.6573" y="2" relative="1" as="geometry">
            <mxPoint as="offset" />
          </mxGeometry>
        </mxCell>
        <mxCell id="YyMaMgJApZJj3cnEreC1-60" style="edgeStyle=orthogonalEdgeStyle;rounded=0;orthogonalLoop=1;jettySize=auto;html=1;" edge="1" parent="1" source="YyMaMgJApZJj3cnEreC1-61" target="YyMaMgJApZJj3cnEreC1-57">
          <mxGeometry relative="1" as="geometry" />
        </mxCell>
        <mxCell id="YyMaMgJApZJj3cnEreC1-61" value="สร้างข้อมูล ActivityLog&lt;span style=&quot;font-size: medium; text-align: start;&quot;&gt;&lt;/span&gt;" style="rounded=1;whiteSpace=wrap;html=1;" vertex="1" parent="1">
          <mxGeometry x="230" y="263" width="77.5" height="40" as="geometry" />
        </mxCell>
        <mxCell id="YyMaMgJApZJj3cnEreC1-62" style="edgeStyle=orthogonalEdgeStyle;rounded=0;orthogonalLoop=1;jettySize=auto;html=1;" edge="1" parent="1" source="YyMaMgJApZJj3cnEreC1-63" target="YyMaMgJApZJj3cnEreC1-65">
          <mxGeometry relative="1" as="geometry" />
        </mxCell>
        <mxCell id="YyMaMgJApZJj3cnEreC1-63" value="สร้างข้อมูล ActivityLog&lt;span style=&quot;font-size: medium; text-align: start;&quot;&gt;&lt;/span&gt;" style="rounded=1;whiteSpace=wrap;html=1;" vertex="1" parent="1">
          <mxGeometry x="261.35" y="378" width="77.5" height="40" as="geometry" />
        </mxCell>
        <mxCell id="YyMaMgJApZJj3cnEreC1-64" style="edgeStyle=orthogonalEdgeStyle;rounded=0;orthogonalLoop=1;jettySize=auto;html=1;entryX=0.5;entryY=0;entryDx=0;entryDy=0;" edge="1" parent="1" source="YyMaMgJApZJj3cnEreC1-65" target="YyMaMgJApZJj3cnEreC1-26">
          <mxGeometry relative="1" as="geometry">
            <Array as="points">
              <mxPoint x="194" y="438" />
            </Array>
          </mxGeometry>
        </mxCell>
        <mxCell id="YyMaMgJApZJj3cnEreC1-65" value="บันทึกข้อมูล&lt;span style=&quot;font-size: medium; text-align: start;&quot;&gt;&lt;/span&gt;" style="rounded=1;whiteSpace=wrap;html=1;" vertex="1" parent="1">
          <mxGeometry x="170" y="378" width="77.5" height="40" as="geometry" />
        </mxCell>
        <mxCell id="YyMaMgJApZJj3cnEreC1-66" value="" style="edgeStyle=orthogonalEdgeStyle;rounded=0;orthogonalLoop=1;jettySize=auto;html=1;" edge="1" parent="1" source="YyMaMgJApZJj3cnEreC1-16" target="YyMaMgJApZJj3cnEreC1-68">
          <mxGeometry relative="1" as="geometry">
            <mxPoint x="368" y="528" as="sourcePoint" />
            <mxPoint x="328" y="585" as="targetPoint" />
          </mxGeometry>
        </mxCell>
        <mxCell id="YyMaMgJApZJj3cnEreC1-67" value="ใช่" style="edgeLabel;html=1;align=center;verticalAlign=middle;resizable=0;points=[];" vertex="1" connectable="0" parent="YyMaMgJApZJj3cnEreC1-66">
          <mxGeometry x="-0.4608" y="1" relative="1" as="geometry">
            <mxPoint as="offset" />
          </mxGeometry>
        </mxCell>
        <mxCell id="YyMaMgJApZJj3cnEreC1-68" value="สร้างข้อมูล ActivityLog&lt;span style=&quot;font-size: medium; text-align: start;&quot;&gt;&lt;/span&gt;" style="rounded=1;whiteSpace=wrap;html=1;" vertex="1" parent="1">
          <mxGeometry x="261.35" y="508" width="77.5" height="40" as="geometry" />
        </mxCell>
        <mxCell id="YyMaMgJApZJj3cnEreC1-69" value="" style="edgeStyle=orthogonalEdgeStyle;rounded=0;orthogonalLoop=1;jettySize=auto;html=1;" edge="1" parent="1" source="YyMaMgJApZJj3cnEreC1-70" target="YyMaMgJApZJj3cnEreC1-23">
          <mxGeometry relative="1" as="geometry" />
        </mxCell>
        <mxCell id="YyMaMgJApZJj3cnEreC1-70" value="บันทึกข้อมูล&lt;span style=&quot;font-size: medium; text-align: start;&quot;&gt;&lt;/span&gt;" style="rounded=1;whiteSpace=wrap;html=1;" vertex="1" parent="1">
          <mxGeometry x="263.5" y="580" width="77.5" height="40" as="geometry" />
        </mxCell>
        <mxCell id="YyMaMgJApZJj3cnEreC1-71" style="edgeStyle=orthogonalEdgeStyle;rounded=0;orthogonalLoop=1;jettySize=auto;html=1;entryX=0.5;entryY=0;entryDx=0;entryDy=0;" edge="1" parent="1" source="YyMaMgJApZJj3cnEreC1-72" target="YyMaMgJApZJj3cnEreC1-73">
          <mxGeometry relative="1" as="geometry" />
        </mxCell>
        <mxCell id="YyMaMgJApZJj3cnEreC1-72" value="บันทึกข้อมูล" style="rounded=1;whiteSpace=wrap;html=1;" vertex="1" parent="1">
          <mxGeometry x="760" y="606" width="77.5" height="40" as="geometry" />
        </mxCell>
        <mxCell id="YyMaMgJApZJj3cnEreC1-73" value="rerturn Error Code&amp;nbsp;002&lt;span style=&quot;font-size: medium; text-align: start;&quot;&gt;&lt;/span&gt;" style="rounded=1;whiteSpace=wrap;html=1;" vertex="1" parent="1">
          <mxGeometry x="760" y="672" width="77.5" height="40" as="geometry" />
        </mxCell>
        <mxCell id="YyMaMgJApZJj3cnEreC1-74" value="สร้างข้อมูล ActivityLog&lt;span style=&quot;font-size: medium; text-align: start;&quot;&gt;&lt;/span&gt;" style="rounded=1;whiteSpace=wrap;html=1;" vertex="1" parent="1">
          <mxGeometry x="660" y="606" width="77.5" height="40" as="geometry" />
        </mxCell>
        <mxCell id="YyMaMgJApZJj3cnEreC1-75" style="edgeStyle=orthogonalEdgeStyle;rounded=0;orthogonalLoop=1;jettySize=auto;html=1;" edge="1" parent="1" source="YyMaMgJApZJj3cnEreC1-76">
          <mxGeometry relative="1" as="geometry">
            <mxPoint x="910" y="820" as="targetPoint" />
          </mxGeometry>
        </mxCell>
        <mxCell id="YyMaMgJApZJj3cnEreC1-76" value="rerturn Error Code&amp;nbsp;007&lt;span style=&quot;font-size: medium; text-align: start;&quot;&gt;&lt;/span&gt;" style="rounded=1;whiteSpace=wrap;html=1;" vertex="1" parent="1">
          <mxGeometry x="790" y="800" width="77.5" height="40" as="geometry" />
        </mxCell>
        <mxCell id="YyMaMgJApZJj3cnEreC1-77" value="สร้างข้อมูล ActivityLog&lt;span style=&quot;font-size: medium; text-align: start;&quot;&gt;&lt;/span&gt;" style="rounded=1;whiteSpace=wrap;html=1;" vertex="1" parent="1">
          <mxGeometry x="685" y="740" width="77.5" height="40" as="geometry" />
        </mxCell>
        <mxCell id="YyMaMgJApZJj3cnEreC1-78" style="edgeStyle=orthogonalEdgeStyle;rounded=0;orthogonalLoop=1;jettySize=auto;html=1;" edge="1" parent="1" source="YyMaMgJApZJj3cnEreC1-79" target="YyMaMgJApZJj3cnEreC1-76">
          <mxGeometry relative="1" as="geometry" />
        </mxCell>
        <mxCell id="YyMaMgJApZJj3cnEreC1-79" value="บันทึกข้อมูล" style="rounded=1;whiteSpace=wrap;html=1;" vertex="1" parent="1">
          <mxGeometry x="790" y="740" width="77.5" height="40" as="geometry" />
        </mxCell>
        <mxCell id="YyMaMgJApZJj3cnEreC1-80" style="edgeStyle=orthogonalEdgeStyle;rounded=0;orthogonalLoop=1;jettySize=auto;html=1;" edge="1" parent="1" source="YyMaMgJApZJj3cnEreC1-81" target="YyMaMgJApZJj3cnEreC1-53">
          <mxGeometry relative="1" as="geometry">
            <mxPoint x="829" y="990" as="targetPoint" />
          </mxGeometry>
        </mxCell>
        <mxCell id="YyMaMgJApZJj3cnEreC1-81" value="rerturn Error Code&amp;nbsp;051&lt;span style=&quot;font-size: medium; text-align: start;&quot;&gt;&lt;/span&gt;" style="rounded=1;whiteSpace=wrap;html=1;" vertex="1" parent="1">
          <mxGeometry x="790" y="920" width="77.5" height="40" as="geometry" />
        </mxCell>
        <mxCell id="YyMaMgJApZJj3cnEreC1-82" style="edgeStyle=orthogonalEdgeStyle;rounded=0;orthogonalLoop=1;jettySize=auto;html=1;entryX=-0.036;entryY=0.462;entryDx=0;entryDy=0;entryPerimeter=0;" edge="1" parent="1" source="YyMaMgJApZJj3cnEreC1-83" target="YyMaMgJApZJj3cnEreC1-85">
          <mxGeometry relative="1" as="geometry" />
        </mxCell>
        <mxCell id="YyMaMgJApZJj3cnEreC1-83" value="สร้างข้อมูล ActivityLog&lt;span style=&quot;font-size: medium; text-align: start;&quot;&gt;&lt;/span&gt;" style="rounded=1;whiteSpace=wrap;html=1;" vertex="1" parent="1">
          <mxGeometry x="682.5" y="860" width="77.5" height="40" as="geometry" />
        </mxCell>
        <mxCell id="YyMaMgJApZJj3cnEreC1-84" style="edgeStyle=orthogonalEdgeStyle;rounded=0;orthogonalLoop=1;jettySize=auto;html=1;" edge="1" parent="1" source="YyMaMgJApZJj3cnEreC1-85" target="YyMaMgJApZJj3cnEreC1-81">
          <mxGeometry relative="1" as="geometry" />
        </mxCell>
        <mxCell id="YyMaMgJApZJj3cnEreC1-85" value="บันทึกข้อมูล" style="rounded=1;whiteSpace=wrap;html=1;" vertex="1" parent="1">
          <mxGeometry x="790" y="860" width="77.5" height="40" as="geometry" />
        </mxCell>
        <mxCell id="yH87mLTyiJubRlxHjX0a-11" style="edgeStyle=orthogonalEdgeStyle;rounded=0;orthogonalLoop=1;jettySize=auto;html=1;entryX=0.537;entryY=0.143;entryDx=0;entryDy=0;entryPerimeter=0;" edge="1" parent="1" source="yH87mLTyiJubRlxHjX0a-2" target="yH87mLTyiJubRlxHjX0a-4">
          <mxGeometry relative="1" as="geometry" />
        </mxCell>
        <mxCell id="yH87mLTyiJubRlxHjX0a-19" value="ไม่" style="edgeLabel;html=1;align=center;verticalAlign=middle;resizable=0;points=[];" vertex="1" connectable="0" parent="yH87mLTyiJubRlxHjX0a-11">
          <mxGeometry x="0.0846" y="-1" relative="1" as="geometry">
            <mxPoint as="offset" />
          </mxGeometry>
        </mxCell>
        <mxCell id="yH87mLTyiJubRlxHjX0a-107" style="edgeStyle=orthogonalEdgeStyle;rounded=0;orthogonalLoop=1;jettySize=auto;html=1;" edge="1" parent="1" source="yH87mLTyiJubRlxHjX0a-2" target="yH87mLTyiJubRlxHjX0a-58">
          <mxGeometry relative="1" as="geometry" />
        </mxCell>
        <mxCell id="yH87mLTyiJubRlxHjX0a-108" value="ใช่" style="edgeLabel;html=1;align=center;verticalAlign=middle;resizable=0;points=[];" vertex="1" connectable="0" parent="yH87mLTyiJubRlxHjX0a-107">
          <mxGeometry x="-0.4681" y="-1" relative="1" as="geometry">
            <mxPoint as="offset" />
          </mxGeometry>
        </mxCell>
        <mxCell id="yH87mLTyiJubRlxHjX0a-2" value="มีตำแหน่ง&lt;br&gt;กรรมการเเละผู้บริหาร ?" style="rhombus;whiteSpace=wrap;html=1;" vertex="1" parent="1">
          <mxGeometry x="406.92" y="622" width="86" height="90" as="geometry" />
        </mxCell>
        <mxCell id="yH87mLTyiJubRlxHjX0a-18" style="edgeStyle=orthogonalEdgeStyle;rounded=0;orthogonalLoop=1;jettySize=auto;html=1;entryX=0.5;entryY=0;entryDx=0;entryDy=0;" edge="1" parent="1" source="yH87mLTyiJubRlxHjX0a-4" target="yH87mLTyiJubRlxHjX0a-7">
          <mxGeometry relative="1" as="geometry" />
        </mxCell>
        <mxCell id="yH87mLTyiJubRlxHjX0a-20" value="ไม่" style="edgeLabel;html=1;align=center;verticalAlign=middle;resizable=0;points=[];" vertex="1" connectable="0" parent="yH87mLTyiJubRlxHjX0a-18">
          <mxGeometry x="-0.4559" y="-2" relative="1" as="geometry">
            <mxPoint as="offset" />
          </mxGeometry>
        </mxCell>
        <mxCell id="yH87mLTyiJubRlxHjX0a-4" value="มีตำแหน่ง&lt;br&gt;กรรมการ ?" style="rhombus;whiteSpace=wrap;html=1;" vertex="1" parent="1">
          <mxGeometry x="335.15" y="760" width="64.85" height="70" as="geometry" />
        </mxCell>
        <mxCell id="yH87mLTyiJubRlxHjX0a-28" style="edgeStyle=orthogonalEdgeStyle;rounded=0;orthogonalLoop=1;jettySize=auto;html=1;entryX=0;entryY=1;entryDx=0;entryDy=0;" edge="1" parent="1" source="yH87mLTyiJubRlxHjX0a-25" target="YyMaMgJApZJj3cnEreC1-19">
          <mxGeometry relative="1" as="geometry">
            <Array as="points">
              <mxPoint x="89" y="705" />
            </Array>
          </mxGeometry>
        </mxCell>
        <mxCell id="yH87mLTyiJubRlxHjX0a-26" value="" style="edgeStyle=orthogonalEdgeStyle;rounded=0;orthogonalLoop=1;jettySize=auto;html=1;" edge="1" parent="1" source="yH87mLTyiJubRlxHjX0a-7" target="yH87mLTyiJubRlxHjX0a-24">
          <mxGeometry relative="1" as="geometry">
            <mxPoint x="160" y="830" as="targetPoint" />
            <mxPoint x="235" y="892" as="sourcePoint" />
          </mxGeometry>
        </mxCell>
        <mxCell id="yH87mLTyiJubRlxHjX0a-32" value="ไม่" style="edgeLabel;html=1;align=center;verticalAlign=middle;resizable=0;points=[];" vertex="1" connectable="0" parent="yH87mLTyiJubRlxHjX0a-26">
          <mxGeometry x="-0.2968" relative="1" as="geometry">
            <mxPoint as="offset" />
          </mxGeometry>
        </mxCell>
        <mxCell id="yH87mLTyiJubRlxHjX0a-44" value="" style="edgeStyle=orthogonalEdgeStyle;rounded=0;orthogonalLoop=1;jettySize=auto;html=1;" edge="1" parent="1">
          <mxGeometry relative="1" as="geometry">
            <mxPoint x="368.41999999999996" y="830" as="sourcePoint" />
            <mxPoint x="368.17999999999995" y="855" as="targetPoint" />
          </mxGeometry>
        </mxCell>
        <mxCell id="yH87mLTyiJubRlxHjX0a-45" value="มี" style="edgeLabel;html=1;align=center;verticalAlign=middle;resizable=0;points=[];" vertex="1" connectable="0" parent="yH87mLTyiJubRlxHjX0a-44">
          <mxGeometry x="-0.2909" relative="1" as="geometry">
            <mxPoint as="offset" />
          </mxGeometry>
        </mxCell>
        <mxCell id="yH87mLTyiJubRlxHjX0a-118" style="edgeStyle=orthogonalEdgeStyle;rounded=0;orthogonalLoop=1;jettySize=auto;html=1;" edge="1" parent="1" source="yH87mLTyiJubRlxHjX0a-58" target="yH87mLTyiJubRlxHjX0a-113">
          <mxGeometry relative="1" as="geometry" />
        </mxCell>
        <mxCell id="yH87mLTyiJubRlxHjX0a-137" style="edgeStyle=orthogonalEdgeStyle;rounded=0;orthogonalLoop=1;jettySize=auto;html=1;entryX=0.5;entryY=0;entryDx=0;entryDy=0;" edge="1" parent="1" source="yH87mLTyiJubRlxHjX0a-58" target="yH87mLTyiJubRlxHjX0a-131">
          <mxGeometry relative="1" as="geometry" />
        </mxCell>
        <mxCell id="yH87mLTyiJubRlxHjX0a-144" value="ใช่" style="edgeLabel;html=1;align=center;verticalAlign=middle;resizable=0;points=[];" vertex="1" connectable="0" parent="yH87mLTyiJubRlxHjX0a-137">
          <mxGeometry x="-0.4263" y="2" relative="1" as="geometry">
            <mxPoint as="offset" />
          </mxGeometry>
        </mxCell>
        <mxCell id="yH87mLTyiJubRlxHjX0a-58" value="มีตำแหน่ง&lt;br&gt;กรรมการในระบบไหม ?" style="rhombus;whiteSpace=wrap;html=1;" vertex="1" parent="1">
          <mxGeometry x="450" y="920" width="85" height="75" as="geometry" />
        </mxCell>
        <mxCell id="YyMaMgJApZJj3cnEreC1-87" value="Picture?" style="rhombus;whiteSpace=wrap;html=1;" vertex="1" parent="1">
          <mxGeometry x="419.92" y="1360" width="60" height="60" as="geometry" />
        </mxCell>
        <mxCell id="YyMaMgJApZJj3cnEreC1-88" style="edgeStyle=orthogonalEdgeStyle;rounded=0;orthogonalLoop=1;jettySize=auto;html=1;entryX=0.5;entryY=0;entryDx=0;entryDy=0;" edge="1" parent="1" source="YyMaMgJApZJj3cnEreC1-87" target="YyMaMgJApZJj3cnEreC1-97">
          <mxGeometry relative="1" as="geometry">
            <mxPoint x="449.92" y="1455" as="targetPoint" />
          </mxGeometry>
        </mxCell>
        <mxCell id="YyMaMgJApZJj3cnEreC1-89" value="ใช่" style="edgeLabel;html=1;align=center;verticalAlign=middle;resizable=0;points=[];" vertex="1" connectable="0" parent="YyMaMgJApZJj3cnEreC1-88">
          <mxGeometry x="-0.1526" y="1" relative="1" as="geometry">
            <mxPoint as="offset" />
          </mxGeometry>
        </mxCell>
        <mxCell id="YyMaMgJApZJj3cnEreC1-121" value="สิ้นสุด" style="ellipse;whiteSpace=wrap;html=1;" vertex="1" parent="1">
          <mxGeometry x="360.2" y="1930" width="100" height="50" as="geometry" />
        </mxCell>
        <mxCell id="YyMaMgJApZJj3cnEreC1-122" style="edgeStyle=orthogonalEdgeStyle;rounded=0;orthogonalLoop=1;jettySize=auto;html=1;entryX=0.5;entryY=0;entryDx=0;entryDy=0;" edge="1" parent="1" source="YyMaMgJApZJj3cnEreC1-117" target="YyMaMgJApZJj3cnEreC1-121">
          <mxGeometry relative="1" as="geometry">
            <Array as="points">
              <mxPoint x="226.2" y="1910" />
              <mxPoint x="410.2" y="1910" />
            </Array>
          </mxGeometry>
        </mxCell>
        <mxCell id="YyMaMgJApZJj3cnEreC1-123" style="edgeStyle=orthogonalEdgeStyle;rounded=0;orthogonalLoop=1;jettySize=auto;html=1;" edge="1" parent="1" source="YyMaMgJApZJj3cnEreC1-124" target="YyMaMgJApZJj3cnEreC1-121">
          <mxGeometry relative="1" as="geometry">
            <Array as="points">
              <mxPoint x="186.2" y="1955" />
              <mxPoint x="186.2" y="1955" />
            </Array>
          </mxGeometry>
        </mxCell>
        <mxCell id="YyMaMgJApZJj3cnEreC1-124" value="1" style="ellipse;whiteSpace=wrap;html=1;aspect=fixed;" vertex="1" parent="1">
          <mxGeometry x="71.2" y="1920" width="50" height="50" as="geometry" />
        </mxCell>
        <mxCell id="YyMaMgJApZJj3cnEreC1-91" value="" style="group" vertex="1" connectable="0" parent="1">
          <mxGeometry x="331.3" y="1637.5" width="96.25" height="177.5" as="geometry" />
        </mxCell>
        <mxCell id="YyMaMgJApZJj3cnEreC1-92" value="สร้างข้อมูลบุคคลที่เกี่ยวข้องกับในบริษัท&lt;span style=&quot;font-size: medium; text-align: start;&quot;&gt;&lt;/span&gt;" style="rounded=1;whiteSpace=wrap;html=1;" vertex="1" parent="YyMaMgJApZJj3cnEreC1-91">
          <mxGeometry x="-5" width="106.25" height="42.5" as="geometry" />
        </mxCell>
        <mxCell id="YyMaMgJApZJj3cnEreC1-93" value="สร้างข้อมูล ActivityLog&lt;span style=&quot;font-size: medium; text-align: start;&quot;&gt;&lt;/span&gt;" style="rounded=1;whiteSpace=wrap;html=1;" vertex="1" parent="YyMaMgJApZJj3cnEreC1-91">
          <mxGeometry x="6.25" y="67.5" width="77.5" height="40" as="geometry" />
        </mxCell>
        <mxCell id="YyMaMgJApZJj3cnEreC1-94" value="" style="edgeStyle=orthogonalEdgeStyle;rounded=0;orthogonalLoop=1;jettySize=auto;html=1;entryX=0.543;entryY=-0.009;entryDx=0;entryDy=0;entryPerimeter=0;" edge="1" parent="YyMaMgJApZJj3cnEreC1-91" source="YyMaMgJApZJj3cnEreC1-92" target="YyMaMgJApZJj3cnEreC1-93">
          <mxGeometry relative="1" as="geometry" />
        </mxCell>
        <mxCell id="YyMaMgJApZJj3cnEreC1-95" value="บันทึกข้อมูล&lt;span style=&quot;font-size: medium; text-align: start;&quot;&gt;&lt;/span&gt;" style="rounded=1;whiteSpace=wrap;html=1;" vertex="1" parent="YyMaMgJApZJj3cnEreC1-91">
          <mxGeometry x="6.25" y="137.5" width="77.5" height="40" as="geometry" />
        </mxCell>
        <mxCell id="YyMaMgJApZJj3cnEreC1-96" value="" style="edgeStyle=orthogonalEdgeStyle;rounded=0;orthogonalLoop=1;jettySize=auto;html=1;" edge="1" parent="YyMaMgJApZJj3cnEreC1-91" source="YyMaMgJApZJj3cnEreC1-93" target="YyMaMgJApZJj3cnEreC1-95">
          <mxGeometry relative="1" as="geometry" />
        </mxCell>
        <mxCell id="YyMaMgJApZJj3cnEreC1-86" style="edgeStyle=orthogonalEdgeStyle;rounded=0;orthogonalLoop=1;jettySize=auto;html=1;entryX=1;entryY=0.5;entryDx=0;entryDy=0;" edge="1" parent="1" source="YyMaMgJApZJj3cnEreC1-87" target="YyMaMgJApZJj3cnEreC1-92">
          <mxGeometry relative="1" as="geometry">
            <Array as="points">
              <mxPoint x="450.2" y="1529" />
              <mxPoint x="450.2" y="1659" />
            </Array>
          </mxGeometry>
        </mxCell>
        <mxCell id="YyMaMgJApZJj3cnEreC1-97" value="ไฟล&lt;br&gt;รูปภาพ ?" style="rhombus;whiteSpace=wrap;html=1;" vertex="1" parent="1">
          <mxGeometry x="303.8" y="1420" width="65" height="65" as="geometry" />
        </mxCell>
        <mxCell id="YyMaMgJApZJj3cnEreC1-98" style="edgeStyle=orthogonalEdgeStyle;rounded=0;orthogonalLoop=1;jettySize=auto;html=1;entryX=0.5;entryY=0;entryDx=0;entryDy=0;" edge="1" parent="1" source="YyMaMgJApZJj3cnEreC1-100" target="YyMaMgJApZJj3cnEreC1-92">
          <mxGeometry relative="1" as="geometry" />
        </mxCell>
        <mxCell id="YyMaMgJApZJj3cnEreC1-99" value="ไม่" style="edgeLabel;html=1;align=center;verticalAlign=middle;resizable=0;points=[];" vertex="1" connectable="0" parent="YyMaMgJApZJj3cnEreC1-98">
          <mxGeometry x="-0.6238" y="2" relative="1" as="geometry">
            <mxPoint as="offset" />
          </mxGeometry>
        </mxCell>
        <mxCell id="YyMaMgJApZJj3cnEreC1-100" value="ขนาดไฟล&lt;br&gt;&amp;nbsp;&amp;gt; 50mb ?" style="rhombus;whiteSpace=wrap;html=1;" vertex="1" parent="1">
          <mxGeometry x="296.3" y="1507.5" width="80" height="70" as="geometry" />
        </mxCell>
        <mxCell id="YyMaMgJApZJj3cnEreC1-101" value="" style="edgeStyle=orthogonalEdgeStyle;rounded=0;orthogonalLoop=1;jettySize=auto;html=1;" edge="1" parent="1" source="YyMaMgJApZJj3cnEreC1-97" target="YyMaMgJApZJj3cnEreC1-100">
          <mxGeometry relative="1" as="geometry">
            <Array as="points">
              <mxPoint x="335.3" y="1505.5" />
              <mxPoint x="336.3" y="1505.5" />
            </Array>
          </mxGeometry>
        </mxCell>
        <mxCell id="YyMaMgJApZJj3cnEreC1-102" value="ใช่" style="edgeLabel;html=1;align=center;verticalAlign=middle;resizable=0;points=[];" vertex="1" connectable="0" parent="YyMaMgJApZJj3cnEreC1-101">
          <mxGeometry x="0.4745" y="1" relative="1" as="geometry">
            <mxPoint as="offset" />
          </mxGeometry>
        </mxCell>
        <mxCell id="YyMaMgJApZJj3cnEreC1-103" value="rerturn Error Code 043&lt;span style=&quot;font-size: medium; text-align: start;&quot;&gt;&lt;/span&gt;" style="rounded=1;whiteSpace=wrap;html=1;" vertex="1" parent="1">
          <mxGeometry x="109.65000000000002" y="1502.5" width="77.5" height="40" as="geometry" />
        </mxCell>
        <mxCell id="YyMaMgJApZJj3cnEreC1-104" value="สร้างข้อมูล ActivityLog&lt;span style=&quot;font-size: medium; text-align: start;&quot;&gt;&lt;/span&gt;" style="rounded=1;whiteSpace=wrap;html=1;" vertex="1" parent="1">
          <mxGeometry x="201.3" y="1432.5" width="77.5" height="40" as="geometry" />
        </mxCell>
        <mxCell id="YyMaMgJApZJj3cnEreC1-105" style="edgeStyle=orthogonalEdgeStyle;rounded=0;orthogonalLoop=1;jettySize=auto;html=1;" edge="1" parent="1" source="YyMaMgJApZJj3cnEreC1-97" target="YyMaMgJApZJj3cnEreC1-104">
          <mxGeometry relative="1" as="geometry" />
        </mxCell>
        <mxCell id="YyMaMgJApZJj3cnEreC1-106" value="ไม่" style="edgeLabel;html=1;align=center;verticalAlign=middle;resizable=0;points=[];" vertex="1" connectable="0" parent="YyMaMgJApZJj3cnEreC1-105">
          <mxGeometry x="0.5378" relative="1" as="geometry">
            <mxPoint as="offset" />
          </mxGeometry>
        </mxCell>
        <mxCell id="YyMaMgJApZJj3cnEreC1-107" value="" style="edgeStyle=orthogonalEdgeStyle;rounded=0;orthogonalLoop=1;jettySize=auto;html=1;entryX=0.5;entryY=0;entryDx=0;entryDy=0;" edge="1" parent="1" source="YyMaMgJApZJj3cnEreC1-108" target="YyMaMgJApZJj3cnEreC1-103">
          <mxGeometry relative="1" as="geometry" />
        </mxCell>
        <mxCell id="YyMaMgJApZJj3cnEreC1-108" value="บันทึกข้อมูล&lt;span style=&quot;font-size: medium; text-align: start;&quot;&gt;&lt;/span&gt;" style="rounded=1;whiteSpace=wrap;html=1;" vertex="1" parent="1">
          <mxGeometry x="95.30000000000003" y="1432.5" width="77.5" height="40" as="geometry" />
        </mxCell>
        <mxCell id="YyMaMgJApZJj3cnEreC1-109" value="" style="edgeStyle=orthogonalEdgeStyle;rounded=0;orthogonalLoop=1;jettySize=auto;html=1;" edge="1" parent="1" source="YyMaMgJApZJj3cnEreC1-104" target="YyMaMgJApZJj3cnEreC1-108">
          <mxGeometry relative="1" as="geometry" />
        </mxCell>
        <mxCell id="YyMaMgJApZJj3cnEreC1-110" value="rerturn Error Code 044&lt;span style=&quot;font-size: medium; text-align: start;&quot;&gt;&lt;/span&gt;" style="rounded=1;whiteSpace=wrap;html=1;" vertex="1" parent="1">
          <mxGeometry x="109.65000000000002" y="1647.5" width="77.5" height="40" as="geometry" />
        </mxCell>
        <mxCell id="YyMaMgJApZJj3cnEreC1-111" value="สร้างข้อมูล ActivityLog&lt;span style=&quot;font-size: medium; text-align: start;&quot;&gt;&lt;/span&gt;" style="rounded=1;whiteSpace=wrap;html=1;" vertex="1" parent="1">
          <mxGeometry x="211.3" y="1577.5" width="77.5" height="40" as="geometry" />
        </mxCell>
        <mxCell id="YyMaMgJApZJj3cnEreC1-112" style="edgeStyle=orthogonalEdgeStyle;rounded=0;orthogonalLoop=1;jettySize=auto;html=1;entryX=0.5;entryY=0;entryDx=0;entryDy=0;" edge="1" parent="1" source="YyMaMgJApZJj3cnEreC1-100" target="YyMaMgJApZJj3cnEreC1-111">
          <mxGeometry relative="1" as="geometry" />
        </mxCell>
        <mxCell id="YyMaMgJApZJj3cnEreC1-113" value="ใช่" style="edgeLabel;html=1;align=center;verticalAlign=middle;resizable=0;points=[];" vertex="1" connectable="0" parent="YyMaMgJApZJj3cnEreC1-112">
          <mxGeometry x="-0.6182" y="-1" relative="1" as="geometry">
            <mxPoint as="offset" />
          </mxGeometry>
        </mxCell>
        <mxCell id="YyMaMgJApZJj3cnEreC1-114" style="edgeStyle=orthogonalEdgeStyle;rounded=0;orthogonalLoop=1;jettySize=auto;html=1;" edge="1" parent="1" source="YyMaMgJApZJj3cnEreC1-115" target="YyMaMgJApZJj3cnEreC1-110">
          <mxGeometry relative="1" as="geometry" />
        </mxCell>
        <mxCell id="YyMaMgJApZJj3cnEreC1-115" value="บันทึกข้อมูล&lt;span style=&quot;font-size: medium; text-align: start;&quot;&gt;&lt;/span&gt;" style="rounded=1;whiteSpace=wrap;html=1;" vertex="1" parent="1">
          <mxGeometry x="109.65000000000002" y="1577.5" width="77.5" height="40" as="geometry" />
        </mxCell>
        <mxCell id="YyMaMgJApZJj3cnEreC1-116" style="edgeStyle=orthogonalEdgeStyle;rounded=0;orthogonalLoop=1;jettySize=auto;html=1;entryX=1;entryY=0.5;entryDx=0;entryDy=0;" edge="1" parent="1" source="YyMaMgJApZJj3cnEreC1-111" target="YyMaMgJApZJj3cnEreC1-115">
          <mxGeometry relative="1" as="geometry" />
        </mxCell>
        <mxCell id="YyMaMgJApZJj3cnEreC1-117" value="4" style="ellipse;whiteSpace=wrap;html=1;aspect=fixed;" vertex="1" parent="1">
          <mxGeometry x="201.3" y="1832.5" width="50" height="50" as="geometry" />
        </mxCell>
        <mxCell id="YyMaMgJApZJj3cnEreC1-118" style="edgeStyle=orthogonalEdgeStyle;rounded=0;orthogonalLoop=1;jettySize=auto;html=1;entryX=0;entryY=0.5;entryDx=0;entryDy=0;" edge="1" parent="1" source="YyMaMgJApZJj3cnEreC1-103" target="YyMaMgJApZJj3cnEreC1-117">
          <mxGeometry relative="1" as="geometry">
            <Array as="points">
              <mxPoint x="57.58" y="1522.5" />
              <mxPoint x="57.58" y="1777.5" />
              <mxPoint x="117.58" y="1777.5" />
              <mxPoint x="117.58" y="1857.5" />
            </Array>
          </mxGeometry>
        </mxCell>
        <mxCell id="YyMaMgJApZJj3cnEreC1-119" style="edgeStyle=orthogonalEdgeStyle;rounded=0;orthogonalLoop=1;jettySize=auto;html=1;entryX=1;entryY=0.5;entryDx=0;entryDy=0;" edge="1" parent="1" source="YyMaMgJApZJj3cnEreC1-95" target="YyMaMgJApZJj3cnEreC1-117">
          <mxGeometry relative="1" as="geometry" />
        </mxCell>
        <mxCell id="YyMaMgJApZJj3cnEreC1-120" style="edgeStyle=orthogonalEdgeStyle;rounded=0;orthogonalLoop=1;jettySize=auto;html=1;entryX=-0.002;entryY=0.205;entryDx=0;entryDy=0;entryPerimeter=0;" edge="1" parent="1" source="YyMaMgJApZJj3cnEreC1-110" target="YyMaMgJApZJj3cnEreC1-117">
          <mxGeometry relative="1" as="geometry" />
        </mxCell>
        <mxCell id="yH87mLTyiJubRlxHjX0a-106" style="edgeStyle=orthogonalEdgeStyle;rounded=0;orthogonalLoop=1;jettySize=auto;html=1;" edge="1" parent="1" source="yH87mLTyiJubRlxHjX0a-105" target="YyMaMgJApZJj3cnEreC1-121">
          <mxGeometry relative="1" as="geometry" />
        </mxCell>
        <mxCell id="yH87mLTyiJubRlxHjX0a-105" value="2" style="ellipse;whiteSpace=wrap;html=1;aspect=fixed;" vertex="1" parent="1">
          <mxGeometry x="673.75" y="1930" width="50" height="50" as="geometry" />
        </mxCell>
        <mxCell id="yH87mLTyiJubRlxHjX0a-117" value="" style="group" vertex="1" connectable="0" parent="1">
          <mxGeometry x="420" y="1029.9962673342682" width="77.50999999999999" height="196.33373266573176" as="geometry" />
        </mxCell>
        <mxCell id="yH87mLTyiJubRlxHjX0a-110" value="ไม่" style="edgeLabel;html=1;align=center;verticalAlign=middle;resizable=0;points=[];" vertex="1" connectable="0" parent="yH87mLTyiJubRlxHjX0a-117">
          <mxGeometry x="38.926803833591066" as="geometry" />
        </mxCell>
        <mxCell id="yH87mLTyiJubRlxHjX0a-111" style="edgeStyle=orthogonalEdgeStyle;rounded=0;orthogonalLoop=1;jettySize=auto;html=1;entryX=0.5;entryY=0;entryDx=0;entryDy=0;" edge="1" parent="yH87mLTyiJubRlxHjX0a-117">
          <mxGeometry relative="1" as="geometry">
            <mxPoint x="38.76999999999998" y="126.33373266573176" as="sourcePoint" />
            <mxPoint x="38.75" y="156.33373266573176" as="targetPoint" />
          </mxGeometry>
        </mxCell>
        <mxCell id="yH87mLTyiJubRlxHjX0a-112" style="edgeStyle=orthogonalEdgeStyle;rounded=0;orthogonalLoop=1;jettySize=auto;html=1;entryX=0.5;entryY=0;entryDx=0;entryDy=0;" edge="1" parent="yH87mLTyiJubRlxHjX0a-117">
          <mxGeometry relative="1" as="geometry">
            <mxPoint x="38.76999999999998" y="56.33373266573176" as="sourcePoint" />
            <mxPoint x="38.75" y="86.33373266573176" as="targetPoint" />
          </mxGeometry>
        </mxCell>
        <mxCell id="yH87mLTyiJubRlxHjX0a-113" value="สร้างข้อมูล ActivityLog&lt;span style=&quot;font-size: medium; text-align: start;&quot;&gt;&lt;/span&gt;" style="rounded=1;whiteSpace=wrap;html=1;" vertex="1" parent="yH87mLTyiJubRlxHjX0a-117">
          <mxGeometry y="16.33373266573176" width="77.5" height="40" as="geometry" />
        </mxCell>
        <mxCell id="yH87mLTyiJubRlxHjX0a-114" value="rerturn Error Code&amp;nbsp;058&lt;span style=&quot;font-size: medium; text-align: start;&quot;&gt;&lt;/span&gt;" style="rounded=1;whiteSpace=wrap;html=1;" vertex="1" parent="yH87mLTyiJubRlxHjX0a-117">
          <mxGeometry x="0.009999999999990905" y="156.33373266573176" width="77.5" height="40" as="geometry" />
        </mxCell>
        <mxCell id="yH87mLTyiJubRlxHjX0a-115" value="บันทึกข้อมูล&lt;span style=&quot;font-size: medium; text-align: start;&quot;&gt;&lt;/span&gt;" style="rounded=1;whiteSpace=wrap;html=1;" vertex="1" parent="yH87mLTyiJubRlxHjX0a-117">
          <mxGeometry x="0.009999999999990905" y="86.33373266573176" width="77.5" height="40" as="geometry" />
        </mxCell>
        <mxCell id="yH87mLTyiJubRlxHjX0a-119" value="3" style="ellipse;whiteSpace=wrap;html=1;aspect=fixed;" vertex="1" parent="1">
          <mxGeometry x="307.49" y="1260" width="50" height="50" as="geometry" />
        </mxCell>
        <mxCell id="yH87mLTyiJubRlxHjX0a-120" style="edgeStyle=orthogonalEdgeStyle;rounded=0;orthogonalLoop=1;jettySize=auto;html=1;entryX=1;entryY=0;entryDx=0;entryDy=0;" edge="1" parent="1" source="yH87mLTyiJubRlxHjX0a-114" target="yH87mLTyiJubRlxHjX0a-119">
          <mxGeometry relative="1" as="geometry">
            <Array as="points">
              <mxPoint x="410" y="1206" />
              <mxPoint x="410" y="1267" />
            </Array>
          </mxGeometry>
        </mxCell>
        <mxCell id="yH87mLTyiJubRlxHjX0a-140" style="edgeStyle=orthogonalEdgeStyle;rounded=0;orthogonalLoop=1;jettySize=auto;html=1;" edge="1" parent="1" source="yH87mLTyiJubRlxHjX0a-135" target="yH87mLTyiJubRlxHjX0a-119">
          <mxGeometry relative="1" as="geometry">
            <Array as="points">
              <mxPoint x="593" y="1285" />
            </Array>
          </mxGeometry>
        </mxCell>
        <mxCell id="yH87mLTyiJubRlxHjX0a-141" style="edgeStyle=orthogonalEdgeStyle;rounded=0;orthogonalLoop=1;jettySize=auto;html=1;entryX=1;entryY=0.5;entryDx=0;entryDy=0;" edge="1" parent="1" source="yH87mLTyiJubRlxHjX0a-131" target="YyMaMgJApZJj3cnEreC1-87">
          <mxGeometry relative="1" as="geometry">
            <Array as="points">
              <mxPoint x="660" y="1027" />
              <mxPoint x="660" y="1390" />
            </Array>
          </mxGeometry>
        </mxCell>
        <mxCell id="yH87mLTyiJubRlxHjX0a-142" value="ใช่" style="edgeLabel;html=1;align=center;verticalAlign=middle;resizable=0;points=[];" vertex="1" connectable="0" parent="yH87mLTyiJubRlxHjX0a-141">
          <mxGeometry x="-0.154" y="2" relative="1" as="geometry">
            <mxPoint as="offset" />
          </mxGeometry>
        </mxCell>
        <mxCell id="yH87mLTyiJubRlxHjX0a-129" value="" style="edgeStyle=orthogonalEdgeStyle;rounded=0;orthogonalLoop=1;jettySize=auto;html=1;entryX=0.493;entryY=0.058;entryDx=0;entryDy=0;entryPerimeter=0;" edge="1" parent="1" source="yH87mLTyiJubRlxHjX0a-131" target="yH87mLTyiJubRlxHjX0a-134">
          <mxGeometry relative="1" as="geometry">
            <mxPoint x="592.52" y="1080" as="targetPoint" />
          </mxGeometry>
        </mxCell>
        <mxCell id="yH87mLTyiJubRlxHjX0a-143" value="ไม่" style="edgeLabel;html=1;align=center;verticalAlign=middle;resizable=0;points=[];" vertex="1" connectable="0" parent="yH87mLTyiJubRlxHjX0a-129">
          <mxGeometry x="-0.2225" relative="1" as="geometry">
            <mxPoint as="offset" />
          </mxGeometry>
        </mxCell>
        <mxCell id="yH87mLTyiJubRlxHjX0a-131" value="มีตำแหน่ง&lt;br&gt;ผู้บริหารในระบบไหม ?" style="rhombus;whiteSpace=wrap;html=1;" vertex="1" parent="1">
          <mxGeometry x="548.75" y="990" width="77.43" height="75" as="geometry" />
        </mxCell>
        <mxCell id="yH87mLTyiJubRlxHjX0a-132" style="edgeStyle=orthogonalEdgeStyle;rounded=0;orthogonalLoop=1;jettySize=auto;html=1;entryX=0.5;entryY=0;entryDx=0;entryDy=0;" edge="1" parent="1">
          <mxGeometry relative="1" as="geometry">
            <mxPoint x="590.02" y="1204.29" as="sourcePoint" />
            <mxPoint x="590" y="1234.29" as="targetPoint" />
          </mxGeometry>
        </mxCell>
        <mxCell id="yH87mLTyiJubRlxHjX0a-133" style="edgeStyle=orthogonalEdgeStyle;rounded=0;orthogonalLoop=1;jettySize=auto;html=1;entryX=0.5;entryY=0;entryDx=0;entryDy=0;" edge="1" parent="1">
          <mxGeometry relative="1" as="geometry">
            <mxPoint x="590.02" y="1134.29" as="sourcePoint" />
            <mxPoint x="590" y="1164.29" as="targetPoint" />
          </mxGeometry>
        </mxCell>
        <mxCell id="yH87mLTyiJubRlxHjX0a-134" value="สร้างข้อมูล ActivityLog&lt;span style=&quot;font-size: medium; text-align: start;&quot;&gt;&lt;/span&gt;" style="rounded=1;whiteSpace=wrap;html=1;" vertex="1" parent="1">
          <mxGeometry x="551.25" y="1094.29" width="77.5" height="40" as="geometry" />
        </mxCell>
        <mxCell id="yH87mLTyiJubRlxHjX0a-135" value="rerturn Error Code&amp;nbsp;059&lt;span style=&quot;font-size: medium; text-align: start;&quot;&gt;&lt;/span&gt;" style="rounded=1;whiteSpace=wrap;html=1;" vertex="1" parent="1">
          <mxGeometry x="551.26" y="1234.29" width="77.5" height="40" as="geometry" />
        </mxCell>
        <mxCell id="yH87mLTyiJubRlxHjX0a-136" value="บันทึกข้อมูล&lt;span style=&quot;font-size: medium; text-align: start;&quot;&gt;&lt;/span&gt;" style="rounded=1;whiteSpace=wrap;html=1;" vertex="1" parent="1">
          <mxGeometry x="551.26" y="1164.29" width="77.5" height="40" as="geometry" />
        </mxCell>
        <mxCell id="yH87mLTyiJubRlxHjX0a-145" value="" style="group" vertex="1" connectable="0" parent="1">
          <mxGeometry x="50" y="720" width="77.50000000000003" height="172.5" as="geometry" />
        </mxCell>
        <mxCell id="yH87mLTyiJubRlxHjX0a-23" value="บันทึกข้อมูล" style="rounded=1;whiteSpace=wrap;html=1;" vertex="1" parent="yH87mLTyiJubRlxHjX0a-145">
          <mxGeometry x="2.842170943040401e-14" y="70" width="77.5" height="40" as="geometry" />
        </mxCell>
        <mxCell id="yH87mLTyiJubRlxHjX0a-25" value="rerturn Error Code&amp;nbsp;031&lt;span style=&quot;font-size: medium; text-align: start;&quot;&gt;&lt;/span&gt;" style="rounded=1;whiteSpace=wrap;html=1;" vertex="1" parent="yH87mLTyiJubRlxHjX0a-145">
          <mxGeometry width="77.5" height="40" as="geometry" />
        </mxCell>
        <mxCell id="yH87mLTyiJubRlxHjX0a-27" style="edgeStyle=orthogonalEdgeStyle;rounded=0;orthogonalLoop=1;jettySize=auto;html=1;entryX=0.5;entryY=1;entryDx=0;entryDy=0;" edge="1" parent="yH87mLTyiJubRlxHjX0a-145" source="yH87mLTyiJubRlxHjX0a-23" target="yH87mLTyiJubRlxHjX0a-25">
          <mxGeometry relative="1" as="geometry" />
        </mxCell>
        <mxCell id="yH87mLTyiJubRlxHjX0a-24" value="สร้างข้อมูล ActivityLog" style="rounded=1;whiteSpace=wrap;html=1;" vertex="1" parent="yH87mLTyiJubRlxHjX0a-145">
          <mxGeometry y="132.5" width="77.5" height="40" as="geometry" />
        </mxCell>
        <mxCell id="yH87mLTyiJubRlxHjX0a-21" style="edgeStyle=orthogonalEdgeStyle;rounded=0;orthogonalLoop=1;jettySize=auto;html=1;entryX=0.5;entryY=1;entryDx=0;entryDy=0;" edge="1" parent="yH87mLTyiJubRlxHjX0a-145" source="yH87mLTyiJubRlxHjX0a-24" target="yH87mLTyiJubRlxHjX0a-23">
          <mxGeometry relative="1" as="geometry">
            <mxPoint x="39" y="90" as="targetPoint" />
          </mxGeometry>
        </mxCell>
        <mxCell id="yH87mLTyiJubRlxHjX0a-147" value="" style="group" vertex="1" connectable="0" parent="1">
          <mxGeometry x="239.97" y="1040" width="77.50999999999999" height="180" as="geometry" />
        </mxCell>
        <mxCell id="yH87mLTyiJubRlxHjX0a-37" style="edgeStyle=orthogonalEdgeStyle;rounded=0;orthogonalLoop=1;jettySize=auto;html=1;entryX=0.5;entryY=0;entryDx=0;entryDy=0;" edge="1" parent="yH87mLTyiJubRlxHjX0a-147">
          <mxGeometry relative="1" as="geometry">
            <mxPoint x="38.76999999999998" y="110" as="sourcePoint" />
            <mxPoint x="38.75" y="140" as="targetPoint" />
          </mxGeometry>
        </mxCell>
        <mxCell id="yH87mLTyiJubRlxHjX0a-36" style="edgeStyle=orthogonalEdgeStyle;rounded=0;orthogonalLoop=1;jettySize=auto;html=1;entryX=0.5;entryY=0;entryDx=0;entryDy=0;" edge="1" parent="yH87mLTyiJubRlxHjX0a-147">
          <mxGeometry relative="1" as="geometry">
            <mxPoint x="38.76999999999998" y="40" as="sourcePoint" />
            <mxPoint x="38.75" y="70" as="targetPoint" />
          </mxGeometry>
        </mxCell>
        <mxCell id="yH87mLTyiJubRlxHjX0a-39" value="สร้างข้อมูล ActivityLog&lt;span style=&quot;font-size: medium; text-align: start;&quot;&gt;&lt;/span&gt;" style="rounded=1;whiteSpace=wrap;html=1;" vertex="1" parent="yH87mLTyiJubRlxHjX0a-147">
          <mxGeometry width="77.5" height="40" as="geometry" />
        </mxCell>
        <mxCell id="yH87mLTyiJubRlxHjX0a-40" value="rerturn Error Code&amp;nbsp;059&lt;span style=&quot;font-size: medium; text-align: start;&quot;&gt;&lt;/span&gt;" style="rounded=1;whiteSpace=wrap;html=1;" vertex="1" parent="yH87mLTyiJubRlxHjX0a-147">
          <mxGeometry x="0.009999999999990905" y="140" width="77.5" height="40" as="geometry" />
        </mxCell>
        <mxCell id="yH87mLTyiJubRlxHjX0a-41" value="บันทึกข้อมูล&lt;span style=&quot;font-size: medium; text-align: start;&quot;&gt;&lt;/span&gt;" style="rounded=1;whiteSpace=wrap;html=1;" vertex="1" parent="yH87mLTyiJubRlxHjX0a-147">
          <mxGeometry x="0.009999999999962483" y="70" width="77.5" height="40" as="geometry" />
        </mxCell>
        <mxCell id="yH87mLTyiJubRlxHjX0a-33" value="" style="edgeStyle=orthogonalEdgeStyle;rounded=0;orthogonalLoop=1;jettySize=auto;html=1;entryX=0.5;entryY=0;entryDx=0;entryDy=0;" edge="1" parent="1" source="yH87mLTyiJubRlxHjX0a-7" target="yH87mLTyiJubRlxHjX0a-154">
          <mxGeometry relative="1" as="geometry">
            <mxPoint x="198.76999999999998" y="930" as="targetPoint" />
          </mxGeometry>
        </mxCell>
        <mxCell id="yH87mLTyiJubRlxHjX0a-43" value="มี" style="edgeLabel;html=1;align=center;verticalAlign=middle;resizable=0;points=[];" vertex="1" connectable="0" parent="yH87mLTyiJubRlxHjX0a-33">
          <mxGeometry x="-0.2909" relative="1" as="geometry">
            <mxPoint as="offset" />
          </mxGeometry>
        </mxCell>
        <mxCell id="yH87mLTyiJubRlxHjX0a-7" value="มีตำแหน่ง&lt;br&gt;ผู้บริหาร ?" style="rhombus;whiteSpace=wrap;html=1;" vertex="1" parent="1">
          <mxGeometry x="165.07999999999998" y="840" width="67.35" height="65" as="geometry" />
        </mxCell>
        <mxCell id="yH87mLTyiJubRlxHjX0a-155" style="edgeStyle=orthogonalEdgeStyle;rounded=0;orthogonalLoop=1;jettySize=auto;html=1;" edge="1" parent="1" source="yH87mLTyiJubRlxHjX0a-154" target="yH87mLTyiJubRlxHjX0a-39">
          <mxGeometry relative="1" as="geometry" />
        </mxCell>
        <mxCell id="yH87mLTyiJubRlxHjX0a-156" value="ไม่" style="edgeLabel;html=1;align=center;verticalAlign=middle;resizable=0;points=[];" vertex="1" connectable="0" parent="yH87mLTyiJubRlxHjX0a-155">
          <mxGeometry x="-0.5826" relative="1" as="geometry">
            <mxPoint as="offset" />
          </mxGeometry>
        </mxCell>
        <mxCell id="yH87mLTyiJubRlxHjX0a-160" style="edgeStyle=orthogonalEdgeStyle;rounded=0;orthogonalLoop=1;jettySize=auto;html=1;" edge="1" parent="1" source="yH87mLTyiJubRlxHjX0a-154" target="yH87mLTyiJubRlxHjX0a-167">
          <mxGeometry relative="1" as="geometry">
            <Array as="points">
              <mxPoint x="199" y="1303" />
              <mxPoint x="285" y="1303" />
            </Array>
          </mxGeometry>
        </mxCell>
        <mxCell id="yH87mLTyiJubRlxHjX0a-161" value="ใช่" style="edgeLabel;html=1;align=center;verticalAlign=middle;resizable=0;points=[];" vertex="1" connectable="0" parent="yH87mLTyiJubRlxHjX0a-160">
          <mxGeometry x="-0.5821" y="2" relative="1" as="geometry">
            <mxPoint as="offset" />
          </mxGeometry>
        </mxCell>
        <mxCell id="yH87mLTyiJubRlxHjX0a-154" value="มีตำแหน่ง&lt;br style=&quot;border-color: var(--border-color);&quot;&gt;ผู้บริหารในระบบไหม ?" style="rhombus;whiteSpace=wrap;html=1;" vertex="1" parent="1">
          <mxGeometry x="157.54" y="950" width="82.43" height="65" as="geometry" />
        </mxCell>
        <mxCell id="yH87mLTyiJubRlxHjX0a-157" style="edgeStyle=orthogonalEdgeStyle;rounded=0;orthogonalLoop=1;jettySize=auto;html=1;entryX=0;entryY=0.5;entryDx=0;entryDy=0;" edge="1" parent="1" source="yH87mLTyiJubRlxHjX0a-40" target="yH87mLTyiJubRlxHjX0a-119">
          <mxGeometry relative="1" as="geometry" />
        </mxCell>
        <mxCell id="yH87mLTyiJubRlxHjX0a-159" value="" style="group" vertex="1" connectable="0" parent="1">
          <mxGeometry x="329.40999999999997" y="960" width="77.50999999999999" height="180" as="geometry" />
        </mxCell>
        <mxCell id="yH87mLTyiJubRlxHjX0a-46" style="edgeStyle=orthogonalEdgeStyle;rounded=0;orthogonalLoop=1;jettySize=auto;html=1;entryX=0.5;entryY=0;entryDx=0;entryDy=0;" edge="1" parent="yH87mLTyiJubRlxHjX0a-159">
          <mxGeometry relative="1" as="geometry">
            <mxPoint x="38.76999999999998" y="110" as="sourcePoint" />
            <mxPoint x="38.75" y="140" as="targetPoint" />
          </mxGeometry>
        </mxCell>
        <mxCell id="yH87mLTyiJubRlxHjX0a-47" style="edgeStyle=orthogonalEdgeStyle;rounded=0;orthogonalLoop=1;jettySize=auto;html=1;entryX=0.5;entryY=0;entryDx=0;entryDy=0;" edge="1" parent="yH87mLTyiJubRlxHjX0a-159">
          <mxGeometry relative="1" as="geometry">
            <mxPoint x="38.76999999999998" y="40" as="sourcePoint" />
            <mxPoint x="38.75" y="70" as="targetPoint" />
          </mxGeometry>
        </mxCell>
        <mxCell id="yH87mLTyiJubRlxHjX0a-48" value="สร้างข้อมูล ActivityLog&lt;span style=&quot;font-size: medium; text-align: start;&quot;&gt;&lt;/span&gt;" style="rounded=1;whiteSpace=wrap;html=1;" vertex="1" parent="yH87mLTyiJubRlxHjX0a-159">
          <mxGeometry width="77.5" height="40" as="geometry" />
        </mxCell>
        <mxCell id="yH87mLTyiJubRlxHjX0a-49" value="rerturn Error Code&amp;nbsp;058&lt;span style=&quot;font-size: medium; text-align: start;&quot;&gt;&lt;/span&gt;" style="rounded=1;whiteSpace=wrap;html=1;" vertex="1" parent="yH87mLTyiJubRlxHjX0a-159">
          <mxGeometry x="0.009999999999990905" y="140" width="77.5" height="40" as="geometry" />
        </mxCell>
        <mxCell id="yH87mLTyiJubRlxHjX0a-50" value="บันทึกข้อมูล&lt;span style=&quot;font-size: medium; text-align: start;&quot;&gt;&lt;/span&gt;" style="rounded=1;whiteSpace=wrap;html=1;" vertex="1" parent="yH87mLTyiJubRlxHjX0a-159">
          <mxGeometry x="0.009999999999990905" y="70" width="77.5" height="40" as="geometry" />
        </mxCell>
        <mxCell id="yH87mLTyiJubRlxHjX0a-163" style="edgeStyle=orthogonalEdgeStyle;rounded=0;orthogonalLoop=1;jettySize=auto;html=1;entryX=0.5;entryY=0;entryDx=0;entryDy=0;" edge="1" parent="1" source="yH87mLTyiJubRlxHjX0a-162" target="yH87mLTyiJubRlxHjX0a-48">
          <mxGeometry relative="1" as="geometry" />
        </mxCell>
        <mxCell id="yH87mLTyiJubRlxHjX0a-166" style="edgeStyle=orthogonalEdgeStyle;rounded=0;orthogonalLoop=1;jettySize=auto;html=1;entryX=0.5;entryY=0;entryDx=0;entryDy=0;" edge="1" parent="1" source="yH87mLTyiJubRlxHjX0a-162" target="yH87mLTyiJubRlxHjX0a-165">
          <mxGeometry relative="1" as="geometry" />
        </mxCell>
        <mxCell id="yH87mLTyiJubRlxHjX0a-162" value="มีตำแหน่ง&lt;br style=&quot;border-color: var(--border-color);&quot;&gt;กรรมการในระบบไหม ?" style="rhombus;whiteSpace=wrap;html=1;" vertex="1" parent="1">
          <mxGeometry x="323.77" y="860" width="88.79" height="75" as="geometry" />
        </mxCell>
        <mxCell id="yH87mLTyiJubRlxHjX0a-164" style="edgeStyle=orthogonalEdgeStyle;rounded=0;orthogonalLoop=1;jettySize=auto;html=1;" edge="1" parent="1" source="yH87mLTyiJubRlxHjX0a-49" target="yH87mLTyiJubRlxHjX0a-119">
          <mxGeometry relative="1" as="geometry" />
        </mxCell>
        <mxCell id="yH87mLTyiJubRlxHjX0a-165" value="5" style="ellipse;whiteSpace=wrap;html=1;aspect=fixed;" vertex="1" parent="1">
          <mxGeometry x="260" y="918.1" width="43.8" height="43.8" as="geometry" />
        </mxCell>
        <mxCell id="yH87mLTyiJubRlxHjX0a-168" style="edgeStyle=orthogonalEdgeStyle;rounded=0;orthogonalLoop=1;jettySize=auto;html=1;entryX=0.5;entryY=0;entryDx=0;entryDy=0;" edge="1" parent="1" source="yH87mLTyiJubRlxHjX0a-167" target="YyMaMgJApZJj3cnEreC1-87">
          <mxGeometry relative="1" as="geometry" />
        </mxCell>
        <mxCell id="yH87mLTyiJubRlxHjX0a-167" value="5" style="ellipse;whiteSpace=wrap;html=1;aspect=fixed;" vertex="1" parent="1">
          <mxGeometry x="263.5" y="1340" width="43.8" height="43.8" as="geometry" />
        </mxCell>
      </root>
    </mxGraphModel>
  </diagram>
  <diagram id="druO8mZIcqzYT5ZKtBNI" name="หน้า-4">
    <mxGraphModel dx="1433" dy="1264" grid="1" gridSize="10" guides="1" tooltips="1" connect="1" arrows="1" fold="1" page="1" pageScale="1" pageWidth="827" pageHeight="1169" math="0" shadow="0">
      <root>
        <mxCell id="0" />
        <mxCell id="1" parent="0" />
        <mxCell id="g7SYC5yB3dPYeJz5y49p-196" value="เริ่ม" style="ellipse;whiteSpace=wrap;html=1;" vertex="1" parent="1">
          <mxGeometry x="85" y="30" width="80" height="40" as="geometry" />
        </mxCell>
        <mxCell id="g7SYC5yB3dPYeJz5y49p-197" value="ตรวจสอบสิทธิ์การใช้งาน" style="rounded=1;whiteSpace=wrap;html=1;" vertex="1" parent="1">
          <mxGeometry x="55" y="110" width="140" height="30" as="geometry" />
        </mxCell>
        <mxCell id="g7SYC5yB3dPYeJz5y49p-198" value="" style="edgeStyle=orthogonalEdgeStyle;rounded=0;orthogonalLoop=1;jettySize=auto;html=1;" edge="1" parent="1" source="g7SYC5yB3dPYeJz5y49p-196" target="g7SYC5yB3dPYeJz5y49p-197">
          <mxGeometry relative="1" as="geometry" />
        </mxCell>
        <mxCell id="g7SYC5yB3dPYeJz5y49p-199" value="มี ?" style="rhombus;whiteSpace=wrap;html=1;" vertex="1" parent="1">
          <mxGeometry x="95" y="170" width="60" height="60" as="geometry" />
        </mxCell>
        <mxCell id="g7SYC5yB3dPYeJz5y49p-200" value="" style="edgeStyle=orthogonalEdgeStyle;rounded=0;orthogonalLoop=1;jettySize=auto;html=1;" edge="1" parent="1" source="g7SYC5yB3dPYeJz5y49p-197" target="g7SYC5yB3dPYeJz5y49p-199">
          <mxGeometry relative="1" as="geometry" />
        </mxCell>
        <mxCell id="g7SYC5yB3dPYeJz5y49p-201" style="edgeStyle=orthogonalEdgeStyle;rounded=0;orthogonalLoop=1;jettySize=auto;html=1;entryX=-0.022;entryY=0.676;entryDx=0;entryDy=0;entryPerimeter=0;" edge="1" parent="1" source="g7SYC5yB3dPYeJz5y49p-199" target="g7SYC5yB3dPYeJz5y49p-214">
          <mxGeometry relative="1" as="geometry">
            <Array as="points">
              <mxPoint x="125" y="700" />
              <mxPoint x="206" y="700" />
            </Array>
            <mxPoint x="280" y="740" as="targetPoint" />
          </mxGeometry>
        </mxCell>
        <mxCell id="g7SYC5yB3dPYeJz5y49p-202" value="ไม่" style="edgeLabel;html=1;align=center;verticalAlign=middle;resizable=0;points=[];" vertex="1" connectable="0" parent="g7SYC5yB3dPYeJz5y49p-201">
          <mxGeometry x="-0.8925" y="1" relative="1" as="geometry">
            <mxPoint as="offset" />
          </mxGeometry>
        </mxCell>
        <mxCell id="g7SYC5yB3dPYeJz5y49p-203" value="ตรวจสอบ Account &lt;br&gt;สถานะการใช้งาน" style="rounded=1;whiteSpace=wrap;html=1;" vertex="1" parent="1">
          <mxGeometry x="271.35" y="179" width="170" height="40" as="geometry" />
        </mxCell>
        <mxCell id="g7SYC5yB3dPYeJz5y49p-204" value="" style="edgeStyle=orthogonalEdgeStyle;rounded=0;orthogonalLoop=1;jettySize=auto;html=1;" edge="1" parent="1" source="g7SYC5yB3dPYeJz5y49p-199" target="g7SYC5yB3dPYeJz5y49p-203">
          <mxGeometry relative="1" as="geometry">
            <Array as="points">
              <mxPoint x="235" y="200" />
              <mxPoint x="235" y="200" />
            </Array>
          </mxGeometry>
        </mxCell>
        <mxCell id="g7SYC5yB3dPYeJz5y49p-205" value="ใช่" style="edgeLabel;html=1;align=center;verticalAlign=middle;resizable=0;points=[];" vertex="1" connectable="0" parent="g7SYC5yB3dPYeJz5y49p-204">
          <mxGeometry x="-0.7797" y="-1" relative="1" as="geometry">
            <mxPoint as="offset" />
          </mxGeometry>
        </mxCell>
        <mxCell id="g7SYC5yB3dPYeJz5y49p-206" value="มีใน&lt;br&gt;ระบบ &lt;br&gt;?" style="rhombus;whiteSpace=wrap;html=1;" vertex="1" parent="1">
          <mxGeometry x="349" y="258" width="75" height="70" as="geometry" />
        </mxCell>
        <mxCell id="g7SYC5yB3dPYeJz5y49p-207" value="" style="edgeStyle=orthogonalEdgeStyle;rounded=0;orthogonalLoop=1;jettySize=auto;html=1;" edge="1" parent="1" source="g7SYC5yB3dPYeJz5y49p-203" target="g7SYC5yB3dPYeJz5y49p-206">
          <mxGeometry relative="1" as="geometry" />
        </mxCell>
        <mxCell id="g7SYC5yB3dPYeJz5y49p-208" value="status&lt;br style=&quot;border-color: var(--border-color);&quot;&gt;= 1 ?" style="rhombus;whiteSpace=wrap;html=1;" vertex="1" parent="1">
          <mxGeometry x="377" y="378" width="60" height="60" as="geometry" />
        </mxCell>
        <mxCell id="g7SYC5yB3dPYeJz5y49p-209" value="" style="edgeStyle=orthogonalEdgeStyle;rounded=0;orthogonalLoop=1;jettySize=auto;html=1;" edge="1" parent="1" source="g7SYC5yB3dPYeJz5y49p-206" target="g7SYC5yB3dPYeJz5y49p-208">
          <mxGeometry relative="1" as="geometry" />
        </mxCell>
        <mxCell id="g7SYC5yB3dPYeJz5y49p-210" value="ใช่" style="edgeLabel;html=1;align=center;verticalAlign=middle;resizable=0;points=[];" vertex="1" connectable="0" parent="g7SYC5yB3dPYeJz5y49p-209">
          <mxGeometry x="-0.3254" y="2" relative="1" as="geometry">
            <mxPoint x="-2" as="offset" />
          </mxGeometry>
        </mxCell>
        <mxCell id="g7SYC5yB3dPYeJz5y49p-211" value="Locked&lt;br style=&quot;border-color: var(--border-color);&quot;&gt;= 1 ?&amp;nbsp;" style="rhombus;whiteSpace=wrap;html=1;" vertex="1" parent="1">
          <mxGeometry x="377.75" y="508" width="60" height="60" as="geometry" />
        </mxCell>
        <mxCell id="g7SYC5yB3dPYeJz5y49p-212" value="" style="edgeStyle=orthogonalEdgeStyle;rounded=0;orthogonalLoop=1;jettySize=auto;html=1;" edge="1" parent="1" source="g7SYC5yB3dPYeJz5y49p-208" target="g7SYC5yB3dPYeJz5y49p-211">
          <mxGeometry relative="1" as="geometry" />
        </mxCell>
        <mxCell id="g7SYC5yB3dPYeJz5y49p-213" value="ไม่" style="edgeLabel;html=1;align=center;verticalAlign=middle;resizable=0;points=[];" vertex="1" connectable="0" parent="g7SYC5yB3dPYeJz5y49p-212">
          <mxGeometry x="-0.3745" relative="1" as="geometry">
            <mxPoint as="offset" />
          </mxGeometry>
        </mxCell>
        <mxCell id="g7SYC5yB3dPYeJz5y49p-214" value="1" style="ellipse;whiteSpace=wrap;html=1;aspect=fixed;" vertex="1" parent="1">
          <mxGeometry x="207.5" y="672" width="50" height="50" as="geometry" />
        </mxCell>
        <mxCell id="g7SYC5yB3dPYeJz5y49p-215" style="edgeStyle=orthogonalEdgeStyle;rounded=0;orthogonalLoop=1;jettySize=auto;html=1;exitX=0.492;exitY=0.949;exitDx=0;exitDy=0;exitPerimeter=0;" edge="1" parent="1" source="g7SYC5yB3dPYeJz5y49p-216" target="g7SYC5yB3dPYeJz5y49p-214">
          <mxGeometry relative="1" as="geometry">
            <Array as="points">
              <mxPoint x="176" y="386" />
              <mxPoint x="160" y="386" />
              <mxPoint x="160" y="690" />
            </Array>
          </mxGeometry>
        </mxCell>
        <mxCell id="g7SYC5yB3dPYeJz5y49p-216" value="rerturn Error Code&amp;nbsp;001&lt;span style=&quot;font-size: medium; text-align: start;&quot;&gt;&lt;/span&gt;" style="rounded=1;whiteSpace=wrap;html=1;" vertex="1" parent="1">
          <mxGeometry x="137.5" y="338" width="77.5" height="40" as="geometry" />
        </mxCell>
        <mxCell id="g7SYC5yB3dPYeJz5y49p-217" style="edgeStyle=orthogonalEdgeStyle;rounded=0;orthogonalLoop=1;jettySize=auto;html=1;entryX=1;entryY=1;entryDx=0;entryDy=0;" edge="1" parent="1" source="g7SYC5yB3dPYeJz5y49p-218" target="g7SYC5yB3dPYeJz5y49p-214">
          <mxGeometry relative="1" as="geometry">
            <Array as="points">
              <mxPoint x="312" y="715" />
              <mxPoint x="254" y="715" />
            </Array>
          </mxGeometry>
        </mxCell>
        <mxCell id="g7SYC5yB3dPYeJz5y49p-218" value="rerturn Error Code&amp;nbsp;011&lt;span style=&quot;font-size: medium; text-align: start;&quot;&gt;&lt;/span&gt;" style="rounded=1;whiteSpace=wrap;html=1;" vertex="1" parent="1">
          <mxGeometry x="273.5" y="656" width="77.5" height="40" as="geometry" />
        </mxCell>
        <mxCell id="g7SYC5yB3dPYeJz5y49p-219" value="" style="edgeStyle=orthogonalEdgeStyle;rounded=0;orthogonalLoop=1;jettySize=auto;html=1;entryX=0.467;entryY=0.027;entryDx=0;entryDy=0;entryPerimeter=0;" edge="1" parent="1" source="g7SYC5yB3dPYeJz5y49p-262" target="g7SYC5yB3dPYeJz5y49p-264">
          <mxGeometry relative="1" as="geometry" />
        </mxCell>
        <mxCell id="g7SYC5yB3dPYeJz5y49p-220" style="edgeStyle=orthogonalEdgeStyle;rounded=0;orthogonalLoop=1;jettySize=auto;html=1;" edge="1" parent="1" source="g7SYC5yB3dPYeJz5y49p-221" target="g7SYC5yB3dPYeJz5y49p-214">
          <mxGeometry relative="1" as="geometry">
            <mxPoint x="200" y="640" as="targetPoint" />
            <Array as="points">
              <mxPoint x="219" y="670" />
              <mxPoint x="219" y="670" />
            </Array>
          </mxGeometry>
        </mxCell>
        <mxCell id="g7SYC5yB3dPYeJz5y49p-221" value="rerturn Error Code&amp;nbsp;004&lt;span style=&quot;font-size: medium; text-align: start;&quot;&gt;&lt;/span&gt;" style="rounded=1;whiteSpace=wrap;html=1;" vertex="1" parent="1">
          <mxGeometry x="180" y="478" width="77.5" height="40" as="geometry" />
        </mxCell>
        <mxCell id="g7SYC5yB3dPYeJz5y49p-222" value="" style="edgeStyle=orthogonalEdgeStyle;rounded=0;orthogonalLoop=1;jettySize=auto;html=1;" edge="1" parent="1" source="g7SYC5yB3dPYeJz5y49p-208" target="g7SYC5yB3dPYeJz5y49p-257">
          <mxGeometry relative="1" as="geometry">
            <mxPoint x="310" y="390" as="targetPoint" />
          </mxGeometry>
        </mxCell>
        <mxCell id="g7SYC5yB3dPYeJz5y49p-223" value="ใช่" style="edgeLabel;html=1;align=center;verticalAlign=middle;resizable=0;points=[];" vertex="1" connectable="0" parent="g7SYC5yB3dPYeJz5y49p-222">
          <mxGeometry x="-0.4608" y="2" relative="1" as="geometry">
            <mxPoint as="offset" />
          </mxGeometry>
        </mxCell>
        <mxCell id="g7SYC5yB3dPYeJz5y49p-224" value="" style="edgeStyle=orthogonalEdgeStyle;rounded=0;orthogonalLoop=1;jettySize=auto;html=1;" edge="1" parent="1" source="g7SYC5yB3dPYeJz5y49p-211" target="g7SYC5yB3dPYeJz5y49p-227">
          <mxGeometry relative="1" as="geometry">
            <mxPoint x="429" y="538" as="targetPoint" />
            <Array as="points">
              <mxPoint x="470" y="538" />
              <mxPoint x="470" y="336" />
            </Array>
          </mxGeometry>
        </mxCell>
        <mxCell id="g7SYC5yB3dPYeJz5y49p-245" style="edgeStyle=orthogonalEdgeStyle;rounded=0;orthogonalLoop=1;jettySize=auto;html=1;entryX=0.532;entryY=-0.011;entryDx=0;entryDy=0;entryPerimeter=0;" edge="1" parent="1" source="g7SYC5yB3dPYeJz5y49p-227" target="vPG5tAMTWVrcaO3FRxMZ-13">
          <mxGeometry relative="1" as="geometry">
            <mxPoint x="560" y="420" as="targetPoint" />
            <Array as="points">
              <mxPoint x="633" y="400" />
              <mxPoint x="604" y="400" />
              <mxPoint x="604" y="436" />
            </Array>
          </mxGeometry>
        </mxCell>
        <mxCell id="g7SYC5yB3dPYeJz5y49p-246" value="ใช่" style="edgeLabel;html=1;align=center;verticalAlign=middle;resizable=0;points=[];" vertex="1" connectable="0" parent="g7SYC5yB3dPYeJz5y49p-245">
          <mxGeometry x="-0.3215" y="2" relative="1" as="geometry">
            <mxPoint as="offset" />
          </mxGeometry>
        </mxCell>
        <mxCell id="g7SYC5yB3dPYeJz5y49p-250" value="" style="edgeStyle=orthogonalEdgeStyle;rounded=0;orthogonalLoop=1;jettySize=auto;html=1;entryX=0.5;entryY=0;entryDx=0;entryDy=0;" edge="1" parent="1" source="g7SYC5yB3dPYeJz5y49p-251" target="g7SYC5yB3dPYeJz5y49p-216">
          <mxGeometry relative="1" as="geometry" />
        </mxCell>
        <mxCell id="g7SYC5yB3dPYeJz5y49p-251" value="บันทึกข้อมูล&lt;span style=&quot;font-size: medium; text-align: start;&quot;&gt;&lt;/span&gt;" style="rounded=1;whiteSpace=wrap;html=1;" vertex="1" parent="1">
          <mxGeometry x="137.5" y="273" width="77.5" height="40" as="geometry" />
        </mxCell>
        <mxCell id="g7SYC5yB3dPYeJz5y49p-252" value="" style="edgeStyle=orthogonalEdgeStyle;rounded=0;orthogonalLoop=1;jettySize=auto;html=1;" edge="1" parent="1" source="g7SYC5yB3dPYeJz5y49p-206" target="g7SYC5yB3dPYeJz5y49p-255">
          <mxGeometry relative="1" as="geometry">
            <mxPoint x="169" y="348" as="targetPoint" />
            <mxPoint x="319" y="293" as="sourcePoint" />
          </mxGeometry>
        </mxCell>
        <mxCell id="g7SYC5yB3dPYeJz5y49p-253" value="ไม่" style="edgeLabel;html=1;align=center;verticalAlign=middle;resizable=0;points=[];" vertex="1" connectable="0" parent="g7SYC5yB3dPYeJz5y49p-252">
          <mxGeometry x="-0.6573" y="2" relative="1" as="geometry">
            <mxPoint as="offset" />
          </mxGeometry>
        </mxCell>
        <mxCell id="g7SYC5yB3dPYeJz5y49p-254" style="edgeStyle=orthogonalEdgeStyle;rounded=0;orthogonalLoop=1;jettySize=auto;html=1;" edge="1" parent="1" source="g7SYC5yB3dPYeJz5y49p-255" target="g7SYC5yB3dPYeJz5y49p-251">
          <mxGeometry relative="1" as="geometry" />
        </mxCell>
        <mxCell id="g7SYC5yB3dPYeJz5y49p-255" value="สร้างข้อมูล ActivityLog&lt;span style=&quot;font-size: medium; text-align: start;&quot;&gt;&lt;/span&gt;" style="rounded=1;whiteSpace=wrap;html=1;" vertex="1" parent="1">
          <mxGeometry x="240" y="273" width="77.5" height="40" as="geometry" />
        </mxCell>
        <mxCell id="g7SYC5yB3dPYeJz5y49p-256" style="edgeStyle=orthogonalEdgeStyle;rounded=0;orthogonalLoop=1;jettySize=auto;html=1;" edge="1" parent="1" source="g7SYC5yB3dPYeJz5y49p-257" target="g7SYC5yB3dPYeJz5y49p-259">
          <mxGeometry relative="1" as="geometry" />
        </mxCell>
        <mxCell id="g7SYC5yB3dPYeJz5y49p-257" value="สร้างข้อมูล ActivityLog&lt;span style=&quot;font-size: medium; text-align: start;&quot;&gt;&lt;/span&gt;" style="rounded=1;whiteSpace=wrap;html=1;" vertex="1" parent="1">
          <mxGeometry x="271.35" y="388" width="77.5" height="40" as="geometry" />
        </mxCell>
        <mxCell id="g7SYC5yB3dPYeJz5y49p-258" style="edgeStyle=orthogonalEdgeStyle;rounded=0;orthogonalLoop=1;jettySize=auto;html=1;entryX=0.5;entryY=0;entryDx=0;entryDy=0;" edge="1" parent="1" source="g7SYC5yB3dPYeJz5y49p-259" target="g7SYC5yB3dPYeJz5y49p-221">
          <mxGeometry relative="1" as="geometry">
            <Array as="points">
              <mxPoint x="204" y="448" />
            </Array>
          </mxGeometry>
        </mxCell>
        <mxCell id="g7SYC5yB3dPYeJz5y49p-259" value="บันทึกข้อมูล&lt;span style=&quot;font-size: medium; text-align: start;&quot;&gt;&lt;/span&gt;" style="rounded=1;whiteSpace=wrap;html=1;" vertex="1" parent="1">
          <mxGeometry x="180" y="388" width="77.5" height="40" as="geometry" />
        </mxCell>
        <mxCell id="g7SYC5yB3dPYeJz5y49p-260" value="" style="edgeStyle=orthogonalEdgeStyle;rounded=0;orthogonalLoop=1;jettySize=auto;html=1;" edge="1" parent="1" source="g7SYC5yB3dPYeJz5y49p-211" target="g7SYC5yB3dPYeJz5y49p-262">
          <mxGeometry relative="1" as="geometry">
            <mxPoint x="378" y="538" as="sourcePoint" />
            <mxPoint x="338" y="595" as="targetPoint" />
          </mxGeometry>
        </mxCell>
        <mxCell id="g7SYC5yB3dPYeJz5y49p-261" value="ใช่" style="edgeLabel;html=1;align=center;verticalAlign=middle;resizable=0;points=[];" vertex="1" connectable="0" parent="g7SYC5yB3dPYeJz5y49p-260">
          <mxGeometry x="-0.4608" y="1" relative="1" as="geometry">
            <mxPoint as="offset" />
          </mxGeometry>
        </mxCell>
        <mxCell id="g7SYC5yB3dPYeJz5y49p-262" value="สร้างข้อมูล ActivityLog&lt;span style=&quot;font-size: medium; text-align: start;&quot;&gt;&lt;/span&gt;" style="rounded=1;whiteSpace=wrap;html=1;" vertex="1" parent="1">
          <mxGeometry x="271.35" y="518" width="77.5" height="40" as="geometry" />
        </mxCell>
        <mxCell id="g7SYC5yB3dPYeJz5y49p-263" value="" style="edgeStyle=orthogonalEdgeStyle;rounded=0;orthogonalLoop=1;jettySize=auto;html=1;" edge="1" parent="1" source="g7SYC5yB3dPYeJz5y49p-264" target="g7SYC5yB3dPYeJz5y49p-218">
          <mxGeometry relative="1" as="geometry" />
        </mxCell>
        <mxCell id="g7SYC5yB3dPYeJz5y49p-264" value="บันทึกข้อมูล&lt;span style=&quot;font-size: medium; text-align: start;&quot;&gt;&lt;/span&gt;" style="rounded=1;whiteSpace=wrap;html=1;" vertex="1" parent="1">
          <mxGeometry x="273.5" y="590" width="77.5" height="40" as="geometry" />
        </mxCell>
        <mxCell id="g7SYC5yB3dPYeJz5y49p-280" style="edgeStyle=orthogonalEdgeStyle;rounded=0;orthogonalLoop=1;jettySize=auto;html=1;entryX=0.537;entryY=0.143;entryDx=0;entryDy=0;entryPerimeter=0;" edge="1" parent="1" source="g7SYC5yB3dPYeJz5y49p-284" target="g7SYC5yB3dPYeJz5y49p-287">
          <mxGeometry relative="1" as="geometry" />
        </mxCell>
        <mxCell id="g7SYC5yB3dPYeJz5y49p-281" value="ไม่" style="edgeLabel;html=1;align=center;verticalAlign=middle;resizable=0;points=[];" vertex="1" connectable="0" parent="g7SYC5yB3dPYeJz5y49p-280">
          <mxGeometry x="0.0846" y="-1" relative="1" as="geometry">
            <mxPoint as="offset" />
          </mxGeometry>
        </mxCell>
        <mxCell id="g7SYC5yB3dPYeJz5y49p-282" style="edgeStyle=orthogonalEdgeStyle;rounded=0;orthogonalLoop=1;jettySize=auto;html=1;" edge="1" parent="1" source="g7SYC5yB3dPYeJz5y49p-284" target="g7SYC5yB3dPYeJz5y49p-296">
          <mxGeometry relative="1" as="geometry" />
        </mxCell>
        <mxCell id="g7SYC5yB3dPYeJz5y49p-283" value="ใช่" style="edgeLabel;html=1;align=center;verticalAlign=middle;resizable=0;points=[];" vertex="1" connectable="0" parent="g7SYC5yB3dPYeJz5y49p-282">
          <mxGeometry x="-0.4681" y="-1" relative="1" as="geometry">
            <mxPoint as="offset" />
          </mxGeometry>
        </mxCell>
        <mxCell id="g7SYC5yB3dPYeJz5y49p-284" value="มีตำแหน่ง&lt;br&gt;กรรมการเเละผู้บริหาร ?" style="rhombus;whiteSpace=wrap;html=1;" vertex="1" parent="1">
          <mxGeometry x="416.92" y="632" width="86" height="90" as="geometry" />
        </mxCell>
        <mxCell id="g7SYC5yB3dPYeJz5y49p-285" style="edgeStyle=orthogonalEdgeStyle;rounded=0;orthogonalLoop=1;jettySize=auto;html=1;entryX=0.5;entryY=0;entryDx=0;entryDy=0;" edge="1" parent="1" source="g7SYC5yB3dPYeJz5y49p-287" target="g7SYC5yB3dPYeJz5y49p-371">
          <mxGeometry relative="1" as="geometry" />
        </mxCell>
        <mxCell id="g7SYC5yB3dPYeJz5y49p-286" value="ไม่" style="edgeLabel;html=1;align=center;verticalAlign=middle;resizable=0;points=[];" vertex="1" connectable="0" parent="g7SYC5yB3dPYeJz5y49p-285">
          <mxGeometry x="-0.4559" y="-2" relative="1" as="geometry">
            <mxPoint as="offset" />
          </mxGeometry>
        </mxCell>
        <mxCell id="g7SYC5yB3dPYeJz5y49p-287" value="มีตำแหน่ง&lt;br&gt;กรรมการ ?" style="rhombus;whiteSpace=wrap;html=1;" vertex="1" parent="1">
          <mxGeometry x="345.15" y="770" width="64.85" height="70" as="geometry" />
        </mxCell>
        <mxCell id="g7SYC5yB3dPYeJz5y49p-288" style="edgeStyle=orthogonalEdgeStyle;rounded=0;orthogonalLoop=1;jettySize=auto;html=1;entryX=0;entryY=1;entryDx=0;entryDy=0;" edge="1" parent="1" source="g7SYC5yB3dPYeJz5y49p-359" target="g7SYC5yB3dPYeJz5y49p-214">
          <mxGeometry relative="1" as="geometry">
            <Array as="points">
              <mxPoint x="99" y="715" />
            </Array>
          </mxGeometry>
        </mxCell>
        <mxCell id="g7SYC5yB3dPYeJz5y49p-289" value="" style="edgeStyle=orthogonalEdgeStyle;rounded=0;orthogonalLoop=1;jettySize=auto;html=1;" edge="1" parent="1" source="g7SYC5yB3dPYeJz5y49p-371" target="g7SYC5yB3dPYeJz5y49p-361">
          <mxGeometry relative="1" as="geometry">
            <mxPoint x="170" y="840" as="targetPoint" />
            <mxPoint x="245" y="902" as="sourcePoint" />
          </mxGeometry>
        </mxCell>
        <mxCell id="g7SYC5yB3dPYeJz5y49p-290" value="ไม่" style="edgeLabel;html=1;align=center;verticalAlign=middle;resizable=0;points=[];" vertex="1" connectable="0" parent="g7SYC5yB3dPYeJz5y49p-289">
          <mxGeometry x="-0.2968" relative="1" as="geometry">
            <mxPoint as="offset" />
          </mxGeometry>
        </mxCell>
        <mxCell id="g7SYC5yB3dPYeJz5y49p-291" value="" style="edgeStyle=orthogonalEdgeStyle;rounded=0;orthogonalLoop=1;jettySize=auto;html=1;" edge="1" parent="1">
          <mxGeometry relative="1" as="geometry">
            <mxPoint x="378.41999999999996" y="840" as="sourcePoint" />
            <mxPoint x="378.17999999999995" y="865" as="targetPoint" />
          </mxGeometry>
        </mxCell>
        <mxCell id="g7SYC5yB3dPYeJz5y49p-292" value="มี" style="edgeLabel;html=1;align=center;verticalAlign=middle;resizable=0;points=[];" vertex="1" connectable="0" parent="g7SYC5yB3dPYeJz5y49p-291">
          <mxGeometry x="-0.2909" relative="1" as="geometry">
            <mxPoint as="offset" />
          </mxGeometry>
        </mxCell>
        <mxCell id="g7SYC5yB3dPYeJz5y49p-293" style="edgeStyle=orthogonalEdgeStyle;rounded=0;orthogonalLoop=1;jettySize=auto;html=1;" edge="1" parent="1" source="g7SYC5yB3dPYeJz5y49p-296" target="g7SYC5yB3dPYeJz5y49p-341">
          <mxGeometry relative="1" as="geometry" />
        </mxCell>
        <mxCell id="g7SYC5yB3dPYeJz5y49p-294" style="edgeStyle=orthogonalEdgeStyle;rounded=0;orthogonalLoop=1;jettySize=auto;html=1;entryX=0.5;entryY=0;entryDx=0;entryDy=0;" edge="1" parent="1" source="g7SYC5yB3dPYeJz5y49p-296" target="g7SYC5yB3dPYeJz5y49p-351">
          <mxGeometry relative="1" as="geometry" />
        </mxCell>
        <mxCell id="g7SYC5yB3dPYeJz5y49p-295" value="ใช่" style="edgeLabel;html=1;align=center;verticalAlign=middle;resizable=0;points=[];" vertex="1" connectable="0" parent="g7SYC5yB3dPYeJz5y49p-294">
          <mxGeometry x="-0.4263" y="2" relative="1" as="geometry">
            <mxPoint as="offset" />
          </mxGeometry>
        </mxCell>
        <mxCell id="g7SYC5yB3dPYeJz5y49p-296" value="มีตำแหน่ง&lt;br&gt;กรรมการในระบบไหม ?" style="rhombus;whiteSpace=wrap;html=1;" vertex="1" parent="1">
          <mxGeometry x="460" y="930" width="85" height="75" as="geometry" />
        </mxCell>
        <mxCell id="g7SYC5yB3dPYeJz5y49p-297" value="Picture?" style="rhombus;whiteSpace=wrap;html=1;" vertex="1" parent="1">
          <mxGeometry x="429.92" y="1370" width="60" height="60" as="geometry" />
        </mxCell>
        <mxCell id="g7SYC5yB3dPYeJz5y49p-298" style="edgeStyle=orthogonalEdgeStyle;rounded=0;orthogonalLoop=1;jettySize=auto;html=1;entryX=0.5;entryY=0;entryDx=0;entryDy=0;" edge="1" parent="1" source="g7SYC5yB3dPYeJz5y49p-297" target="g7SYC5yB3dPYeJz5y49p-311">
          <mxGeometry relative="1" as="geometry">
            <mxPoint x="459.92" y="1465" as="targetPoint" />
          </mxGeometry>
        </mxCell>
        <mxCell id="g7SYC5yB3dPYeJz5y49p-299" value="ใช่" style="edgeLabel;html=1;align=center;verticalAlign=middle;resizable=0;points=[];" vertex="1" connectable="0" parent="g7SYC5yB3dPYeJz5y49p-298">
          <mxGeometry x="-0.1526" y="1" relative="1" as="geometry">
            <mxPoint as="offset" />
          </mxGeometry>
        </mxCell>
        <mxCell id="g7SYC5yB3dPYeJz5y49p-300" value="สิ้นสุด" style="ellipse;whiteSpace=wrap;html=1;" vertex="1" parent="1">
          <mxGeometry x="370.2" y="1940" width="100" height="50" as="geometry" />
        </mxCell>
        <mxCell id="g7SYC5yB3dPYeJz5y49p-301" style="edgeStyle=orthogonalEdgeStyle;rounded=0;orthogonalLoop=1;jettySize=auto;html=1;entryX=0.5;entryY=0;entryDx=0;entryDy=0;" edge="1" parent="1" source="g7SYC5yB3dPYeJz5y49p-331" target="g7SYC5yB3dPYeJz5y49p-300">
          <mxGeometry relative="1" as="geometry">
            <Array as="points">
              <mxPoint x="236.2" y="1920" />
              <mxPoint x="420.2" y="1920" />
            </Array>
          </mxGeometry>
        </mxCell>
        <mxCell id="g7SYC5yB3dPYeJz5y49p-302" style="edgeStyle=orthogonalEdgeStyle;rounded=0;orthogonalLoop=1;jettySize=auto;html=1;" edge="1" parent="1" source="g7SYC5yB3dPYeJz5y49p-303" target="g7SYC5yB3dPYeJz5y49p-300">
          <mxGeometry relative="1" as="geometry">
            <Array as="points">
              <mxPoint x="196.2" y="1965" />
              <mxPoint x="196.2" y="1965" />
            </Array>
          </mxGeometry>
        </mxCell>
        <mxCell id="g7SYC5yB3dPYeJz5y49p-303" value="1" style="ellipse;whiteSpace=wrap;html=1;aspect=fixed;" vertex="1" parent="1">
          <mxGeometry x="81.2" y="1930" width="50" height="50" as="geometry" />
        </mxCell>
        <mxCell id="g7SYC5yB3dPYeJz5y49p-304" value="" style="group" vertex="1" connectable="0" parent="1">
          <mxGeometry x="341.3" y="1647.5" width="96.25" height="177.5" as="geometry" />
        </mxCell>
        <mxCell id="g7SYC5yB3dPYeJz5y49p-305" value="แก้ไขข้อมูลบุคคลที่เกี่ยวข้องกับในบริษัท&lt;span style=&quot;font-size: medium; text-align: start;&quot;&gt;&lt;/span&gt;" style="rounded=1;whiteSpace=wrap;html=1;" vertex="1" parent="g7SYC5yB3dPYeJz5y49p-304">
          <mxGeometry x="-5" width="106.25" height="42.5" as="geometry" />
        </mxCell>
        <mxCell id="g7SYC5yB3dPYeJz5y49p-306" value="สร้างข้อมูล ActivityLog&lt;span style=&quot;font-size: medium; text-align: start;&quot;&gt;&lt;/span&gt;" style="rounded=1;whiteSpace=wrap;html=1;" vertex="1" parent="g7SYC5yB3dPYeJz5y49p-304">
          <mxGeometry x="6.25" y="67.5" width="77.5" height="40" as="geometry" />
        </mxCell>
        <mxCell id="g7SYC5yB3dPYeJz5y49p-307" value="" style="edgeStyle=orthogonalEdgeStyle;rounded=0;orthogonalLoop=1;jettySize=auto;html=1;entryX=0.543;entryY=-0.009;entryDx=0;entryDy=0;entryPerimeter=0;" edge="1" parent="g7SYC5yB3dPYeJz5y49p-304" source="g7SYC5yB3dPYeJz5y49p-305" target="g7SYC5yB3dPYeJz5y49p-306">
          <mxGeometry relative="1" as="geometry" />
        </mxCell>
        <mxCell id="g7SYC5yB3dPYeJz5y49p-308" value="บันทึกข้อมูล&lt;span style=&quot;font-size: medium; text-align: start;&quot;&gt;&lt;/span&gt;" style="rounded=1;whiteSpace=wrap;html=1;" vertex="1" parent="g7SYC5yB3dPYeJz5y49p-304">
          <mxGeometry x="6.25" y="137.5" width="77.5" height="40" as="geometry" />
        </mxCell>
        <mxCell id="g7SYC5yB3dPYeJz5y49p-309" value="" style="edgeStyle=orthogonalEdgeStyle;rounded=0;orthogonalLoop=1;jettySize=auto;html=1;" edge="1" parent="g7SYC5yB3dPYeJz5y49p-304" source="g7SYC5yB3dPYeJz5y49p-306" target="g7SYC5yB3dPYeJz5y49p-308">
          <mxGeometry relative="1" as="geometry" />
        </mxCell>
        <mxCell id="g7SYC5yB3dPYeJz5y49p-310" style="edgeStyle=orthogonalEdgeStyle;rounded=0;orthogonalLoop=1;jettySize=auto;html=1;entryX=1;entryY=0.5;entryDx=0;entryDy=0;" edge="1" parent="1" source="g7SYC5yB3dPYeJz5y49p-297" target="g7SYC5yB3dPYeJz5y49p-305">
          <mxGeometry relative="1" as="geometry">
            <Array as="points">
              <mxPoint x="460.2" y="1539" />
              <mxPoint x="460.2" y="1669" />
            </Array>
          </mxGeometry>
        </mxCell>
        <mxCell id="g7SYC5yB3dPYeJz5y49p-311" value="ไฟล&lt;br&gt;รูปภาพ ?" style="rhombus;whiteSpace=wrap;html=1;" vertex="1" parent="1">
          <mxGeometry x="313.8" y="1430" width="65" height="65" as="geometry" />
        </mxCell>
        <mxCell id="g7SYC5yB3dPYeJz5y49p-312" style="edgeStyle=orthogonalEdgeStyle;rounded=0;orthogonalLoop=1;jettySize=auto;html=1;entryX=0.5;entryY=0;entryDx=0;entryDy=0;" edge="1" parent="1" source="g7SYC5yB3dPYeJz5y49p-314" target="g7SYC5yB3dPYeJz5y49p-305">
          <mxGeometry relative="1" as="geometry" />
        </mxCell>
        <mxCell id="g7SYC5yB3dPYeJz5y49p-313" value="ไม่" style="edgeLabel;html=1;align=center;verticalAlign=middle;resizable=0;points=[];" vertex="1" connectable="0" parent="g7SYC5yB3dPYeJz5y49p-312">
          <mxGeometry x="-0.6238" y="2" relative="1" as="geometry">
            <mxPoint as="offset" />
          </mxGeometry>
        </mxCell>
        <mxCell id="g7SYC5yB3dPYeJz5y49p-314" value="ขนาดไฟล&lt;br&gt;&amp;nbsp;&amp;gt; 50mb ?" style="rhombus;whiteSpace=wrap;html=1;" vertex="1" parent="1">
          <mxGeometry x="306.3" y="1517.5" width="80" height="70" as="geometry" />
        </mxCell>
        <mxCell id="g7SYC5yB3dPYeJz5y49p-315" value="" style="edgeStyle=orthogonalEdgeStyle;rounded=0;orthogonalLoop=1;jettySize=auto;html=1;" edge="1" parent="1" source="g7SYC5yB3dPYeJz5y49p-311" target="g7SYC5yB3dPYeJz5y49p-314">
          <mxGeometry relative="1" as="geometry">
            <Array as="points">
              <mxPoint x="345.3" y="1515.5" />
              <mxPoint x="346.3" y="1515.5" />
            </Array>
          </mxGeometry>
        </mxCell>
        <mxCell id="g7SYC5yB3dPYeJz5y49p-316" value="ใช่" style="edgeLabel;html=1;align=center;verticalAlign=middle;resizable=0;points=[];" vertex="1" connectable="0" parent="g7SYC5yB3dPYeJz5y49p-315">
          <mxGeometry x="0.4745" y="1" relative="1" as="geometry">
            <mxPoint as="offset" />
          </mxGeometry>
        </mxCell>
        <mxCell id="g7SYC5yB3dPYeJz5y49p-317" value="rerturn Error Code 043&lt;span style=&quot;font-size: medium; text-align: start;&quot;&gt;&lt;/span&gt;" style="rounded=1;whiteSpace=wrap;html=1;" vertex="1" parent="1">
          <mxGeometry x="119.65000000000002" y="1512.5" width="77.5" height="40" as="geometry" />
        </mxCell>
        <mxCell id="g7SYC5yB3dPYeJz5y49p-318" value="สร้างข้อมูล ActivityLog&lt;span style=&quot;font-size: medium; text-align: start;&quot;&gt;&lt;/span&gt;" style="rounded=1;whiteSpace=wrap;html=1;" vertex="1" parent="1">
          <mxGeometry x="211.3" y="1442.5" width="77.5" height="40" as="geometry" />
        </mxCell>
        <mxCell id="g7SYC5yB3dPYeJz5y49p-319" style="edgeStyle=orthogonalEdgeStyle;rounded=0;orthogonalLoop=1;jettySize=auto;html=1;" edge="1" parent="1" source="g7SYC5yB3dPYeJz5y49p-311" target="g7SYC5yB3dPYeJz5y49p-318">
          <mxGeometry relative="1" as="geometry" />
        </mxCell>
        <mxCell id="g7SYC5yB3dPYeJz5y49p-320" value="ไม่" style="edgeLabel;html=1;align=center;verticalAlign=middle;resizable=0;points=[];" vertex="1" connectable="0" parent="g7SYC5yB3dPYeJz5y49p-319">
          <mxGeometry x="0.5378" relative="1" as="geometry">
            <mxPoint as="offset" />
          </mxGeometry>
        </mxCell>
        <mxCell id="g7SYC5yB3dPYeJz5y49p-321" value="" style="edgeStyle=orthogonalEdgeStyle;rounded=0;orthogonalLoop=1;jettySize=auto;html=1;entryX=0.5;entryY=0;entryDx=0;entryDy=0;" edge="1" parent="1" source="g7SYC5yB3dPYeJz5y49p-322" target="g7SYC5yB3dPYeJz5y49p-317">
          <mxGeometry relative="1" as="geometry" />
        </mxCell>
        <mxCell id="g7SYC5yB3dPYeJz5y49p-322" value="บันทึกข้อมูล&lt;span style=&quot;font-size: medium; text-align: start;&quot;&gt;&lt;/span&gt;" style="rounded=1;whiteSpace=wrap;html=1;" vertex="1" parent="1">
          <mxGeometry x="105.30000000000003" y="1442.5" width="77.5" height="40" as="geometry" />
        </mxCell>
        <mxCell id="g7SYC5yB3dPYeJz5y49p-323" value="" style="edgeStyle=orthogonalEdgeStyle;rounded=0;orthogonalLoop=1;jettySize=auto;html=1;" edge="1" parent="1" source="g7SYC5yB3dPYeJz5y49p-318" target="g7SYC5yB3dPYeJz5y49p-322">
          <mxGeometry relative="1" as="geometry" />
        </mxCell>
        <mxCell id="g7SYC5yB3dPYeJz5y49p-324" value="rerturn Error Code 044&lt;span style=&quot;font-size: medium; text-align: start;&quot;&gt;&lt;/span&gt;" style="rounded=1;whiteSpace=wrap;html=1;" vertex="1" parent="1">
          <mxGeometry x="119.65000000000002" y="1657.5" width="77.5" height="40" as="geometry" />
        </mxCell>
        <mxCell id="g7SYC5yB3dPYeJz5y49p-325" value="สร้างข้อมูล ActivityLog&lt;span style=&quot;font-size: medium; text-align: start;&quot;&gt;&lt;/span&gt;" style="rounded=1;whiteSpace=wrap;html=1;" vertex="1" parent="1">
          <mxGeometry x="221.3" y="1587.5" width="77.5" height="40" as="geometry" />
        </mxCell>
        <mxCell id="g7SYC5yB3dPYeJz5y49p-326" style="edgeStyle=orthogonalEdgeStyle;rounded=0;orthogonalLoop=1;jettySize=auto;html=1;entryX=0.5;entryY=0;entryDx=0;entryDy=0;" edge="1" parent="1" source="g7SYC5yB3dPYeJz5y49p-314" target="g7SYC5yB3dPYeJz5y49p-325">
          <mxGeometry relative="1" as="geometry" />
        </mxCell>
        <mxCell id="g7SYC5yB3dPYeJz5y49p-327" value="ใช่" style="edgeLabel;html=1;align=center;verticalAlign=middle;resizable=0;points=[];" vertex="1" connectable="0" parent="g7SYC5yB3dPYeJz5y49p-326">
          <mxGeometry x="-0.6182" y="-1" relative="1" as="geometry">
            <mxPoint as="offset" />
          </mxGeometry>
        </mxCell>
        <mxCell id="g7SYC5yB3dPYeJz5y49p-328" style="edgeStyle=orthogonalEdgeStyle;rounded=0;orthogonalLoop=1;jettySize=auto;html=1;" edge="1" parent="1" source="g7SYC5yB3dPYeJz5y49p-329" target="g7SYC5yB3dPYeJz5y49p-324">
          <mxGeometry relative="1" as="geometry" />
        </mxCell>
        <mxCell id="g7SYC5yB3dPYeJz5y49p-329" value="บันทึกข้อมูล&lt;span style=&quot;font-size: medium; text-align: start;&quot;&gt;&lt;/span&gt;" style="rounded=1;whiteSpace=wrap;html=1;" vertex="1" parent="1">
          <mxGeometry x="119.65000000000002" y="1587.5" width="77.5" height="40" as="geometry" />
        </mxCell>
        <mxCell id="g7SYC5yB3dPYeJz5y49p-330" style="edgeStyle=orthogonalEdgeStyle;rounded=0;orthogonalLoop=1;jettySize=auto;html=1;entryX=1;entryY=0.5;entryDx=0;entryDy=0;" edge="1" parent="1" source="g7SYC5yB3dPYeJz5y49p-325" target="g7SYC5yB3dPYeJz5y49p-329">
          <mxGeometry relative="1" as="geometry" />
        </mxCell>
        <mxCell id="g7SYC5yB3dPYeJz5y49p-331" value="4" style="ellipse;whiteSpace=wrap;html=1;aspect=fixed;" vertex="1" parent="1">
          <mxGeometry x="211.3" y="1842.5" width="50" height="50" as="geometry" />
        </mxCell>
        <mxCell id="g7SYC5yB3dPYeJz5y49p-332" style="edgeStyle=orthogonalEdgeStyle;rounded=0;orthogonalLoop=1;jettySize=auto;html=1;entryX=0;entryY=0.5;entryDx=0;entryDy=0;" edge="1" parent="1" source="g7SYC5yB3dPYeJz5y49p-317" target="g7SYC5yB3dPYeJz5y49p-331">
          <mxGeometry relative="1" as="geometry">
            <Array as="points">
              <mxPoint x="67.58" y="1532.5" />
              <mxPoint x="67.58" y="1787.5" />
              <mxPoint x="127.58" y="1787.5" />
              <mxPoint x="127.58" y="1867.5" />
            </Array>
          </mxGeometry>
        </mxCell>
        <mxCell id="g7SYC5yB3dPYeJz5y49p-333" style="edgeStyle=orthogonalEdgeStyle;rounded=0;orthogonalLoop=1;jettySize=auto;html=1;entryX=1;entryY=0.5;entryDx=0;entryDy=0;" edge="1" parent="1" source="g7SYC5yB3dPYeJz5y49p-308" target="g7SYC5yB3dPYeJz5y49p-331">
          <mxGeometry relative="1" as="geometry" />
        </mxCell>
        <mxCell id="g7SYC5yB3dPYeJz5y49p-334" style="edgeStyle=orthogonalEdgeStyle;rounded=0;orthogonalLoop=1;jettySize=auto;html=1;entryX=-0.002;entryY=0.205;entryDx=0;entryDy=0;entryPerimeter=0;" edge="1" parent="1" source="g7SYC5yB3dPYeJz5y49p-324" target="g7SYC5yB3dPYeJz5y49p-331">
          <mxGeometry relative="1" as="geometry" />
        </mxCell>
        <mxCell id="g7SYC5yB3dPYeJz5y49p-335" style="edgeStyle=orthogonalEdgeStyle;rounded=0;orthogonalLoop=1;jettySize=auto;html=1;" edge="1" parent="1" source="g7SYC5yB3dPYeJz5y49p-336" target="g7SYC5yB3dPYeJz5y49p-300">
          <mxGeometry relative="1" as="geometry" />
        </mxCell>
        <mxCell id="g7SYC5yB3dPYeJz5y49p-336" value="2" style="ellipse;whiteSpace=wrap;html=1;aspect=fixed;" vertex="1" parent="1">
          <mxGeometry x="683.75" y="1940" width="50" height="50" as="geometry" />
        </mxCell>
        <mxCell id="g7SYC5yB3dPYeJz5y49p-337" value="" style="group" vertex="1" connectable="0" parent="1">
          <mxGeometry x="430" y="1039.9962673342682" width="77.50999999999999" height="196.33373266573176" as="geometry" />
        </mxCell>
        <mxCell id="g7SYC5yB3dPYeJz5y49p-338" value="ไม่" style="edgeLabel;html=1;align=center;verticalAlign=middle;resizable=0;points=[];" vertex="1" connectable="0" parent="g7SYC5yB3dPYeJz5y49p-337">
          <mxGeometry x="38.926803833591066" as="geometry">
            <mxPoint x="2" y="9" as="offset" />
          </mxGeometry>
        </mxCell>
        <mxCell id="g7SYC5yB3dPYeJz5y49p-339" style="edgeStyle=orthogonalEdgeStyle;rounded=0;orthogonalLoop=1;jettySize=auto;html=1;entryX=0.5;entryY=0;entryDx=0;entryDy=0;" edge="1" parent="g7SYC5yB3dPYeJz5y49p-337">
          <mxGeometry relative="1" as="geometry">
            <mxPoint x="38.76999999999998" y="126.33373266573176" as="sourcePoint" />
            <mxPoint x="38.75" y="156.33373266573176" as="targetPoint" />
          </mxGeometry>
        </mxCell>
        <mxCell id="g7SYC5yB3dPYeJz5y49p-340" style="edgeStyle=orthogonalEdgeStyle;rounded=0;orthogonalLoop=1;jettySize=auto;html=1;entryX=0.5;entryY=0;entryDx=0;entryDy=0;" edge="1" parent="g7SYC5yB3dPYeJz5y49p-337">
          <mxGeometry relative="1" as="geometry">
            <mxPoint x="38.76999999999998" y="56.33373266573176" as="sourcePoint" />
            <mxPoint x="38.75" y="86.33373266573176" as="targetPoint" />
          </mxGeometry>
        </mxCell>
        <mxCell id="g7SYC5yB3dPYeJz5y49p-341" value="สร้างข้อมูล ActivityLog&lt;span style=&quot;font-size: medium; text-align: start;&quot;&gt;&lt;/span&gt;" style="rounded=1;whiteSpace=wrap;html=1;" vertex="1" parent="g7SYC5yB3dPYeJz5y49p-337">
          <mxGeometry y="16.33373266573176" width="77.5" height="40" as="geometry" />
        </mxCell>
        <mxCell id="g7SYC5yB3dPYeJz5y49p-342" value="rerturn Error Code&amp;nbsp;058&lt;span style=&quot;font-size: medium; text-align: start;&quot;&gt;&lt;/span&gt;" style="rounded=1;whiteSpace=wrap;html=1;" vertex="1" parent="g7SYC5yB3dPYeJz5y49p-337">
          <mxGeometry x="0.009999999999990905" y="156.33373266573176" width="77.5" height="40" as="geometry" />
        </mxCell>
        <mxCell id="g7SYC5yB3dPYeJz5y49p-343" value="บันทึกข้อมูล&lt;span style=&quot;font-size: medium; text-align: start;&quot;&gt;&lt;/span&gt;" style="rounded=1;whiteSpace=wrap;html=1;" vertex="1" parent="g7SYC5yB3dPYeJz5y49p-337">
          <mxGeometry x="0.009999999999990905" y="86.33373266573176" width="77.5" height="40" as="geometry" />
        </mxCell>
        <mxCell id="g7SYC5yB3dPYeJz5y49p-344" value="3" style="ellipse;whiteSpace=wrap;html=1;aspect=fixed;" vertex="1" parent="1">
          <mxGeometry x="317.49" y="1270" width="50" height="50" as="geometry" />
        </mxCell>
        <mxCell id="g7SYC5yB3dPYeJz5y49p-345" style="edgeStyle=orthogonalEdgeStyle;rounded=0;orthogonalLoop=1;jettySize=auto;html=1;entryX=1;entryY=0;entryDx=0;entryDy=0;" edge="1" parent="1" source="g7SYC5yB3dPYeJz5y49p-342" target="g7SYC5yB3dPYeJz5y49p-344">
          <mxGeometry relative="1" as="geometry">
            <Array as="points">
              <mxPoint x="420" y="1216" />
              <mxPoint x="420" y="1277" />
            </Array>
          </mxGeometry>
        </mxCell>
        <mxCell id="g7SYC5yB3dPYeJz5y49p-346" style="edgeStyle=orthogonalEdgeStyle;rounded=0;orthogonalLoop=1;jettySize=auto;html=1;" edge="1" parent="1" source="g7SYC5yB3dPYeJz5y49p-355" target="g7SYC5yB3dPYeJz5y49p-344">
          <mxGeometry relative="1" as="geometry">
            <Array as="points">
              <mxPoint x="603" y="1295" />
            </Array>
          </mxGeometry>
        </mxCell>
        <mxCell id="g7SYC5yB3dPYeJz5y49p-347" style="edgeStyle=orthogonalEdgeStyle;rounded=0;orthogonalLoop=1;jettySize=auto;html=1;entryX=1;entryY=0.5;entryDx=0;entryDy=0;" edge="1" parent="1" source="g7SYC5yB3dPYeJz5y49p-351" target="g7SYC5yB3dPYeJz5y49p-297">
          <mxGeometry relative="1" as="geometry">
            <Array as="points">
              <mxPoint x="670" y="1037" />
              <mxPoint x="670" y="1400" />
            </Array>
          </mxGeometry>
        </mxCell>
        <mxCell id="g7SYC5yB3dPYeJz5y49p-348" value="ใช่" style="edgeLabel;html=1;align=center;verticalAlign=middle;resizable=0;points=[];" vertex="1" connectable="0" parent="g7SYC5yB3dPYeJz5y49p-347">
          <mxGeometry x="-0.154" y="2" relative="1" as="geometry">
            <mxPoint as="offset" />
          </mxGeometry>
        </mxCell>
        <mxCell id="g7SYC5yB3dPYeJz5y49p-349" value="" style="edgeStyle=orthogonalEdgeStyle;rounded=0;orthogonalLoop=1;jettySize=auto;html=1;entryX=0.493;entryY=0.058;entryDx=0;entryDy=0;entryPerimeter=0;" edge="1" parent="1" source="g7SYC5yB3dPYeJz5y49p-351" target="g7SYC5yB3dPYeJz5y49p-354">
          <mxGeometry relative="1" as="geometry">
            <mxPoint x="602.52" y="1090" as="targetPoint" />
          </mxGeometry>
        </mxCell>
        <mxCell id="g7SYC5yB3dPYeJz5y49p-350" value="ไม่" style="edgeLabel;html=1;align=center;verticalAlign=middle;resizable=0;points=[];" vertex="1" connectable="0" parent="g7SYC5yB3dPYeJz5y49p-349">
          <mxGeometry x="-0.2225" relative="1" as="geometry">
            <mxPoint as="offset" />
          </mxGeometry>
        </mxCell>
        <mxCell id="g7SYC5yB3dPYeJz5y49p-351" value="มีตำแหน่ง&lt;br&gt;ผู้บริหารในระบบไหม ?" style="rhombus;whiteSpace=wrap;html=1;" vertex="1" parent="1">
          <mxGeometry x="558.75" y="1000" width="77.43" height="75" as="geometry" />
        </mxCell>
        <mxCell id="g7SYC5yB3dPYeJz5y49p-352" style="edgeStyle=orthogonalEdgeStyle;rounded=0;orthogonalLoop=1;jettySize=auto;html=1;entryX=0.5;entryY=0;entryDx=0;entryDy=0;" edge="1" parent="1">
          <mxGeometry relative="1" as="geometry">
            <mxPoint x="600.02" y="1214.29" as="sourcePoint" />
            <mxPoint x="600" y="1244.29" as="targetPoint" />
          </mxGeometry>
        </mxCell>
        <mxCell id="g7SYC5yB3dPYeJz5y49p-353" style="edgeStyle=orthogonalEdgeStyle;rounded=0;orthogonalLoop=1;jettySize=auto;html=1;entryX=0.5;entryY=0;entryDx=0;entryDy=0;" edge="1" parent="1">
          <mxGeometry relative="1" as="geometry">
            <mxPoint x="600.02" y="1144.29" as="sourcePoint" />
            <mxPoint x="600" y="1174.29" as="targetPoint" />
          </mxGeometry>
        </mxCell>
        <mxCell id="g7SYC5yB3dPYeJz5y49p-354" value="สร้างข้อมูล ActivityLog&lt;span style=&quot;font-size: medium; text-align: start;&quot;&gt;&lt;/span&gt;" style="rounded=1;whiteSpace=wrap;html=1;" vertex="1" parent="1">
          <mxGeometry x="561.25" y="1104.29" width="77.5" height="40" as="geometry" />
        </mxCell>
        <mxCell id="g7SYC5yB3dPYeJz5y49p-355" value="rerturn Error Code&amp;nbsp;059&lt;span style=&quot;font-size: medium; text-align: start;&quot;&gt;&lt;/span&gt;" style="rounded=1;whiteSpace=wrap;html=1;" vertex="1" parent="1">
          <mxGeometry x="561.26" y="1244.29" width="77.5" height="40" as="geometry" />
        </mxCell>
        <mxCell id="g7SYC5yB3dPYeJz5y49p-356" value="บันทึกข้อมูล&lt;span style=&quot;font-size: medium; text-align: start;&quot;&gt;&lt;/span&gt;" style="rounded=1;whiteSpace=wrap;html=1;" vertex="1" parent="1">
          <mxGeometry x="561.26" y="1174.29" width="77.5" height="40" as="geometry" />
        </mxCell>
        <mxCell id="g7SYC5yB3dPYeJz5y49p-357" value="" style="group" vertex="1" connectable="0" parent="1">
          <mxGeometry x="60" y="730" width="77.50000000000003" height="172.5" as="geometry" />
        </mxCell>
        <mxCell id="g7SYC5yB3dPYeJz5y49p-358" value="บันทึกข้อมูล" style="rounded=1;whiteSpace=wrap;html=1;" vertex="1" parent="g7SYC5yB3dPYeJz5y49p-357">
          <mxGeometry x="2.842170943040401e-14" y="70" width="77.5" height="40" as="geometry" />
        </mxCell>
        <mxCell id="g7SYC5yB3dPYeJz5y49p-359" value="rerturn Error Code&amp;nbsp;031&lt;span style=&quot;font-size: medium; text-align: start;&quot;&gt;&lt;/span&gt;" style="rounded=1;whiteSpace=wrap;html=1;" vertex="1" parent="g7SYC5yB3dPYeJz5y49p-357">
          <mxGeometry width="77.5" height="40" as="geometry" />
        </mxCell>
        <mxCell id="g7SYC5yB3dPYeJz5y49p-360" style="edgeStyle=orthogonalEdgeStyle;rounded=0;orthogonalLoop=1;jettySize=auto;html=1;entryX=0.5;entryY=1;entryDx=0;entryDy=0;" edge="1" parent="g7SYC5yB3dPYeJz5y49p-357" source="g7SYC5yB3dPYeJz5y49p-358" target="g7SYC5yB3dPYeJz5y49p-359">
          <mxGeometry relative="1" as="geometry" />
        </mxCell>
        <mxCell id="g7SYC5yB3dPYeJz5y49p-361" value="สร้างข้อมูล ActivityLog" style="rounded=1;whiteSpace=wrap;html=1;" vertex="1" parent="g7SYC5yB3dPYeJz5y49p-357">
          <mxGeometry y="132.5" width="77.5" height="40" as="geometry" />
        </mxCell>
        <mxCell id="g7SYC5yB3dPYeJz5y49p-362" style="edgeStyle=orthogonalEdgeStyle;rounded=0;orthogonalLoop=1;jettySize=auto;html=1;entryX=0.5;entryY=1;entryDx=0;entryDy=0;" edge="1" parent="g7SYC5yB3dPYeJz5y49p-357" source="g7SYC5yB3dPYeJz5y49p-361" target="g7SYC5yB3dPYeJz5y49p-358">
          <mxGeometry relative="1" as="geometry">
            <mxPoint x="39" y="90" as="targetPoint" />
          </mxGeometry>
        </mxCell>
        <mxCell id="g7SYC5yB3dPYeJz5y49p-363" value="" style="group" vertex="1" connectable="0" parent="1">
          <mxGeometry x="249.97" y="1050" width="77.50999999999999" height="180" as="geometry" />
        </mxCell>
        <mxCell id="g7SYC5yB3dPYeJz5y49p-364" style="edgeStyle=orthogonalEdgeStyle;rounded=0;orthogonalLoop=1;jettySize=auto;html=1;entryX=0.5;entryY=0;entryDx=0;entryDy=0;" edge="1" parent="g7SYC5yB3dPYeJz5y49p-363">
          <mxGeometry relative="1" as="geometry">
            <mxPoint x="38.76999999999998" y="110" as="sourcePoint" />
            <mxPoint x="38.75" y="140" as="targetPoint" />
          </mxGeometry>
        </mxCell>
        <mxCell id="g7SYC5yB3dPYeJz5y49p-365" style="edgeStyle=orthogonalEdgeStyle;rounded=0;orthogonalLoop=1;jettySize=auto;html=1;entryX=0.5;entryY=0;entryDx=0;entryDy=0;" edge="1" parent="g7SYC5yB3dPYeJz5y49p-363">
          <mxGeometry relative="1" as="geometry">
            <mxPoint x="38.76999999999998" y="40" as="sourcePoint" />
            <mxPoint x="38.75" y="70" as="targetPoint" />
          </mxGeometry>
        </mxCell>
        <mxCell id="g7SYC5yB3dPYeJz5y49p-366" value="สร้างข้อมูล ActivityLog&lt;span style=&quot;font-size: medium; text-align: start;&quot;&gt;&lt;/span&gt;" style="rounded=1;whiteSpace=wrap;html=1;" vertex="1" parent="g7SYC5yB3dPYeJz5y49p-363">
          <mxGeometry width="77.5" height="40" as="geometry" />
        </mxCell>
        <mxCell id="g7SYC5yB3dPYeJz5y49p-367" value="rerturn Error Code&amp;nbsp;059&lt;span style=&quot;font-size: medium; text-align: start;&quot;&gt;&lt;/span&gt;" style="rounded=1;whiteSpace=wrap;html=1;" vertex="1" parent="g7SYC5yB3dPYeJz5y49p-363">
          <mxGeometry x="0.009999999999990905" y="140" width="77.5" height="40" as="geometry" />
        </mxCell>
        <mxCell id="g7SYC5yB3dPYeJz5y49p-368" value="บันทึกข้อมูล&lt;span style=&quot;font-size: medium; text-align: start;&quot;&gt;&lt;/span&gt;" style="rounded=1;whiteSpace=wrap;html=1;" vertex="1" parent="g7SYC5yB3dPYeJz5y49p-363">
          <mxGeometry x="0.009999999999962483" y="70" width="77.5" height="40" as="geometry" />
        </mxCell>
        <mxCell id="g7SYC5yB3dPYeJz5y49p-369" value="" style="edgeStyle=orthogonalEdgeStyle;rounded=0;orthogonalLoop=1;jettySize=auto;html=1;entryX=0.5;entryY=0;entryDx=0;entryDy=0;" edge="1" parent="1" source="g7SYC5yB3dPYeJz5y49p-371" target="g7SYC5yB3dPYeJz5y49p-376">
          <mxGeometry relative="1" as="geometry">
            <mxPoint x="208.76999999999998" y="940" as="targetPoint" />
          </mxGeometry>
        </mxCell>
        <mxCell id="g7SYC5yB3dPYeJz5y49p-370" value="มี" style="edgeLabel;html=1;align=center;verticalAlign=middle;resizable=0;points=[];" vertex="1" connectable="0" parent="g7SYC5yB3dPYeJz5y49p-369">
          <mxGeometry x="-0.2909" relative="1" as="geometry">
            <mxPoint as="offset" />
          </mxGeometry>
        </mxCell>
        <mxCell id="g7SYC5yB3dPYeJz5y49p-371" value="มีตำแหน่ง&lt;br&gt;ผู้บริหาร ?" style="rhombus;whiteSpace=wrap;html=1;" vertex="1" parent="1">
          <mxGeometry x="175.07999999999998" y="850" width="67.35" height="65" as="geometry" />
        </mxCell>
        <mxCell id="g7SYC5yB3dPYeJz5y49p-372" style="edgeStyle=orthogonalEdgeStyle;rounded=0;orthogonalLoop=1;jettySize=auto;html=1;" edge="1" parent="1" source="g7SYC5yB3dPYeJz5y49p-376" target="g7SYC5yB3dPYeJz5y49p-366">
          <mxGeometry relative="1" as="geometry" />
        </mxCell>
        <mxCell id="g7SYC5yB3dPYeJz5y49p-373" value="ไม่" style="edgeLabel;html=1;align=center;verticalAlign=middle;resizable=0;points=[];" vertex="1" connectable="0" parent="g7SYC5yB3dPYeJz5y49p-372">
          <mxGeometry x="-0.5826" relative="1" as="geometry">
            <mxPoint as="offset" />
          </mxGeometry>
        </mxCell>
        <mxCell id="g7SYC5yB3dPYeJz5y49p-374" style="edgeStyle=orthogonalEdgeStyle;rounded=0;orthogonalLoop=1;jettySize=auto;html=1;" edge="1" parent="1" source="g7SYC5yB3dPYeJz5y49p-376" target="g7SYC5yB3dPYeJz5y49p-390">
          <mxGeometry relative="1" as="geometry">
            <Array as="points">
              <mxPoint x="209" y="1313" />
              <mxPoint x="295" y="1313" />
            </Array>
          </mxGeometry>
        </mxCell>
        <mxCell id="g7SYC5yB3dPYeJz5y49p-375" value="ใช่" style="edgeLabel;html=1;align=center;verticalAlign=middle;resizable=0;points=[];" vertex="1" connectable="0" parent="g7SYC5yB3dPYeJz5y49p-374">
          <mxGeometry x="-0.5821" y="2" relative="1" as="geometry">
            <mxPoint as="offset" />
          </mxGeometry>
        </mxCell>
        <mxCell id="g7SYC5yB3dPYeJz5y49p-376" value="มีตำแหน่ง&lt;br style=&quot;border-color: var(--border-color);&quot;&gt;ผู้บริหารในระบบไหม ?" style="rhombus;whiteSpace=wrap;html=1;" vertex="1" parent="1">
          <mxGeometry x="167.54" y="960" width="82.43" height="65" as="geometry" />
        </mxCell>
        <mxCell id="g7SYC5yB3dPYeJz5y49p-377" style="edgeStyle=orthogonalEdgeStyle;rounded=0;orthogonalLoop=1;jettySize=auto;html=1;entryX=0;entryY=0.5;entryDx=0;entryDy=0;" edge="1" parent="1" source="g7SYC5yB3dPYeJz5y49p-367" target="g7SYC5yB3dPYeJz5y49p-344">
          <mxGeometry relative="1" as="geometry" />
        </mxCell>
        <mxCell id="g7SYC5yB3dPYeJz5y49p-378" value="" style="group" vertex="1" connectable="0" parent="1">
          <mxGeometry x="339.40999999999997" y="970" width="77.50999999999999" height="180" as="geometry" />
        </mxCell>
        <mxCell id="g7SYC5yB3dPYeJz5y49p-379" style="edgeStyle=orthogonalEdgeStyle;rounded=0;orthogonalLoop=1;jettySize=auto;html=1;entryX=0.5;entryY=0;entryDx=0;entryDy=0;" edge="1" parent="g7SYC5yB3dPYeJz5y49p-378">
          <mxGeometry relative="1" as="geometry">
            <mxPoint x="38.76999999999998" y="110" as="sourcePoint" />
            <mxPoint x="38.75" y="140" as="targetPoint" />
          </mxGeometry>
        </mxCell>
        <mxCell id="g7SYC5yB3dPYeJz5y49p-380" style="edgeStyle=orthogonalEdgeStyle;rounded=0;orthogonalLoop=1;jettySize=auto;html=1;entryX=0.5;entryY=0;entryDx=0;entryDy=0;" edge="1" parent="g7SYC5yB3dPYeJz5y49p-378">
          <mxGeometry relative="1" as="geometry">
            <mxPoint x="38.76999999999998" y="40" as="sourcePoint" />
            <mxPoint x="38.75" y="70" as="targetPoint" />
          </mxGeometry>
        </mxCell>
        <mxCell id="g7SYC5yB3dPYeJz5y49p-381" value="สร้างข้อมูล ActivityLog&lt;span style=&quot;font-size: medium; text-align: start;&quot;&gt;&lt;/span&gt;" style="rounded=1;whiteSpace=wrap;html=1;" vertex="1" parent="g7SYC5yB3dPYeJz5y49p-378">
          <mxGeometry width="77.5" height="40" as="geometry" />
        </mxCell>
        <mxCell id="g7SYC5yB3dPYeJz5y49p-382" value="rerturn Error Code&amp;nbsp;058&lt;span style=&quot;font-size: medium; text-align: start;&quot;&gt;&lt;/span&gt;" style="rounded=1;whiteSpace=wrap;html=1;" vertex="1" parent="g7SYC5yB3dPYeJz5y49p-378">
          <mxGeometry x="0.009999999999990905" y="140" width="77.5" height="40" as="geometry" />
        </mxCell>
        <mxCell id="g7SYC5yB3dPYeJz5y49p-383" value="บันทึกข้อมูล&lt;span style=&quot;font-size: medium; text-align: start;&quot;&gt;&lt;/span&gt;" style="rounded=1;whiteSpace=wrap;html=1;" vertex="1" parent="g7SYC5yB3dPYeJz5y49p-378">
          <mxGeometry x="0.009999999999990905" y="70" width="77.5" height="40" as="geometry" />
        </mxCell>
        <mxCell id="g7SYC5yB3dPYeJz5y49p-384" style="edgeStyle=orthogonalEdgeStyle;rounded=0;orthogonalLoop=1;jettySize=auto;html=1;entryX=0.5;entryY=0;entryDx=0;entryDy=0;" edge="1" parent="1" source="g7SYC5yB3dPYeJz5y49p-386" target="g7SYC5yB3dPYeJz5y49p-381">
          <mxGeometry relative="1" as="geometry" />
        </mxCell>
        <mxCell id="g7SYC5yB3dPYeJz5y49p-385" style="edgeStyle=orthogonalEdgeStyle;rounded=0;orthogonalLoop=1;jettySize=auto;html=1;entryX=0.5;entryY=0;entryDx=0;entryDy=0;" edge="1" parent="1" source="g7SYC5yB3dPYeJz5y49p-386" target="g7SYC5yB3dPYeJz5y49p-388">
          <mxGeometry relative="1" as="geometry" />
        </mxCell>
        <mxCell id="g7SYC5yB3dPYeJz5y49p-386" value="มีตำแหน่ง&lt;br style=&quot;border-color: var(--border-color);&quot;&gt;กรรมการในระบบไหม ?" style="rhombus;whiteSpace=wrap;html=1;" vertex="1" parent="1">
          <mxGeometry x="333.77" y="870" width="88.79" height="75" as="geometry" />
        </mxCell>
        <mxCell id="g7SYC5yB3dPYeJz5y49p-387" style="edgeStyle=orthogonalEdgeStyle;rounded=0;orthogonalLoop=1;jettySize=auto;html=1;" edge="1" parent="1" source="g7SYC5yB3dPYeJz5y49p-382" target="g7SYC5yB3dPYeJz5y49p-344">
          <mxGeometry relative="1" as="geometry" />
        </mxCell>
        <mxCell id="g7SYC5yB3dPYeJz5y49p-388" value="5" style="ellipse;whiteSpace=wrap;html=1;aspect=fixed;" vertex="1" parent="1">
          <mxGeometry x="270" y="928.1" width="43.8" height="43.8" as="geometry" />
        </mxCell>
        <mxCell id="g7SYC5yB3dPYeJz5y49p-389" style="edgeStyle=orthogonalEdgeStyle;rounded=0;orthogonalLoop=1;jettySize=auto;html=1;entryX=0.5;entryY=0;entryDx=0;entryDy=0;" edge="1" parent="1" source="g7SYC5yB3dPYeJz5y49p-390" target="g7SYC5yB3dPYeJz5y49p-297">
          <mxGeometry relative="1" as="geometry" />
        </mxCell>
        <mxCell id="g7SYC5yB3dPYeJz5y49p-390" value="5" style="ellipse;whiteSpace=wrap;html=1;aspect=fixed;" vertex="1" parent="1">
          <mxGeometry x="273.5" y="1350" width="43.8" height="43.8" as="geometry" />
        </mxCell>
        <mxCell id="g7SYC5yB3dPYeJz5y49p-237" style="edgeStyle=orthogonalEdgeStyle;rounded=0;orthogonalLoop=1;jettySize=auto;html=1;entryX=1;entryY=0.5;entryDx=0;entryDy=0;" edge="1" parent="1" source="g7SYC5yB3dPYeJz5y49p-239" target="vPG5tAMTWVrcaO3FRxMZ-13">
          <mxGeometry relative="1" as="geometry" />
        </mxCell>
        <mxCell id="g7SYC5yB3dPYeJz5y49p-238" value="ใช่" style="edgeLabel;html=1;align=center;verticalAlign=middle;resizable=0;points=[];" vertex="1" connectable="0" parent="g7SYC5yB3dPYeJz5y49p-237">
          <mxGeometry x="-0.1545" y="1" relative="1" as="geometry">
            <mxPoint as="offset" />
          </mxGeometry>
        </mxCell>
        <mxCell id="g7SYC5yB3dPYeJz5y49p-247" value="2" style="ellipse;whiteSpace=wrap;html=1;aspect=fixed;" vertex="1" parent="1">
          <mxGeometry x="760" y="971.9" width="50" height="50" as="geometry" />
        </mxCell>
        <mxCell id="g7SYC5yB3dPYeJz5y49p-248" style="edgeStyle=orthogonalEdgeStyle;rounded=0;orthogonalLoop=1;jettySize=auto;html=1;entryX=0.733;entryY=0.924;entryDx=0;entryDy=0;entryPerimeter=0;" edge="1" parent="1" source="g7SYC5yB3dPYeJz5y49p-267" target="g7SYC5yB3dPYeJz5y49p-247">
          <mxGeometry relative="1" as="geometry">
            <mxPoint x="795" y="790" as="targetPoint" />
            <Array as="points">
              <mxPoint x="1080" y="702" />
              <mxPoint x="1080" y="1020" />
              <mxPoint x="810" y="1020" />
              <mxPoint x="810" y="1018" />
            </Array>
            <mxPoint x="810.0285714285715" y="656" as="sourcePoint" />
          </mxGeometry>
        </mxCell>
        <mxCell id="g7SYC5yB3dPYeJz5y49p-274" style="edgeStyle=orthogonalEdgeStyle;rounded=0;orthogonalLoop=1;jettySize=auto;html=1;" edge="1" parent="1" source="g7SYC5yB3dPYeJz5y49p-275" target="g7SYC5yB3dPYeJz5y49p-247">
          <mxGeometry relative="1" as="geometry">
            <mxPoint x="839" y="1000" as="targetPoint" />
          </mxGeometry>
        </mxCell>
        <mxCell id="g7SYC5yB3dPYeJz5y49p-227" value="Super&lt;br&gt;Admin ?" style="rhombus;whiteSpace=wrap;html=1;" vertex="1" parent="1">
          <mxGeometry x="600" y="300" width="66" height="72" as="geometry" />
        </mxCell>
        <mxCell id="g7SYC5yB3dPYeJz5y49p-228" value="ตรวจสอบสิทธิ์การใช้งาน Company นี้ไหม&lt;span style=&quot;font-size: medium; text-align: start;&quot;&gt;&lt;/span&gt;" style="rounded=1;whiteSpace=wrap;html=1;" vertex="1" parent="1">
          <mxGeometry x="698.75" y="528" width="110" height="42" as="geometry" />
        </mxCell>
        <mxCell id="g7SYC5yB3dPYeJz5y49p-225" value="" style="edgeStyle=orthogonalEdgeStyle;rounded=0;orthogonalLoop=1;jettySize=auto;html=1;" edge="1" parent="1" source="g7SYC5yB3dPYeJz5y49p-227" target="g7SYC5yB3dPYeJz5y49p-228">
          <mxGeometry relative="1" as="geometry">
            <mxPoint x="698.75" y="548" as="targetPoint" />
            <Array as="points">
              <mxPoint x="754" y="336" />
            </Array>
          </mxGeometry>
        </mxCell>
        <mxCell id="g7SYC5yB3dPYeJz5y49p-226" value="ไม่" style="edgeLabel;html=1;align=center;verticalAlign=middle;resizable=0;points=[];" vertex="1" connectable="0" parent="g7SYC5yB3dPYeJz5y49p-225">
          <mxGeometry x="-0.3115" y="3" relative="1" as="geometry">
            <mxPoint as="offset" />
          </mxGeometry>
        </mxCell>
        <mxCell id="g7SYC5yB3dPYeJz5y49p-229" value="มี ?" style="rhombus;whiteSpace=wrap;html=1;" vertex="1" parent="1">
          <mxGeometry x="720.75" y="610" width="66" height="72" as="geometry" />
        </mxCell>
        <mxCell id="g7SYC5yB3dPYeJz5y49p-230" value="" style="edgeStyle=orthogonalEdgeStyle;rounded=0;orthogonalLoop=1;jettySize=auto;html=1;" edge="1" parent="1" source="g7SYC5yB3dPYeJz5y49p-228" target="g7SYC5yB3dPYeJz5y49p-229">
          <mxGeometry relative="1" as="geometry" />
        </mxCell>
        <mxCell id="g7SYC5yB3dPYeJz5y49p-231" value="Company &lt;br&gt;มีในระบบ&lt;br&gt;ไหม ?" style="rhombus;whiteSpace=wrap;html=1;" vertex="1" parent="1">
          <mxGeometry x="708.75" y="740" width="90" height="80" as="geometry" />
        </mxCell>
        <mxCell id="g7SYC5yB3dPYeJz5y49p-232" value="" style="edgeStyle=orthogonalEdgeStyle;rounded=0;orthogonalLoop=1;jettySize=auto;html=1;" edge="1" parent="1" source="g7SYC5yB3dPYeJz5y49p-229" target="g7SYC5yB3dPYeJz5y49p-231">
          <mxGeometry relative="1" as="geometry" />
        </mxCell>
        <mxCell id="g7SYC5yB3dPYeJz5y49p-233" value="ใช่" style="edgeLabel;html=1;align=center;verticalAlign=middle;resizable=0;points=[];" vertex="1" connectable="0" parent="g7SYC5yB3dPYeJz5y49p-232">
          <mxGeometry x="-0.2859" relative="1" as="geometry">
            <mxPoint as="offset" />
          </mxGeometry>
        </mxCell>
        <mxCell id="g7SYC5yB3dPYeJz5y49p-234" style="edgeStyle=orthogonalEdgeStyle;rounded=0;orthogonalLoop=1;jettySize=auto;html=1;" edge="1" parent="1">
          <mxGeometry relative="1" as="geometry">
            <mxPoint x="901.25" y="646" as="sourcePoint" />
            <mxPoint x="923.75" y="646" as="targetPoint" />
          </mxGeometry>
        </mxCell>
        <mxCell id="g7SYC5yB3dPYeJz5y49p-235" style="edgeStyle=orthogonalEdgeStyle;rounded=0;orthogonalLoop=1;jettySize=auto;html=1;" edge="1" parent="1" source="g7SYC5yB3dPYeJz5y49p-229">
          <mxGeometry relative="1" as="geometry">
            <mxPoint x="823.75" y="646" as="targetPoint" />
          </mxGeometry>
        </mxCell>
        <mxCell id="g7SYC5yB3dPYeJz5y49p-236" value="ไม่" style="edgeLabel;html=1;align=center;verticalAlign=middle;resizable=0;points=[];" vertex="1" connectable="0" parent="g7SYC5yB3dPYeJz5y49p-235">
          <mxGeometry x="-0.0865" y="2" relative="1" as="geometry">
            <mxPoint as="offset" />
          </mxGeometry>
        </mxCell>
        <mxCell id="g7SYC5yB3dPYeJz5y49p-239" value="Company &lt;br&gt;Active ?" style="rhombus;whiteSpace=wrap;html=1;" vertex="1" parent="1">
          <mxGeometry x="708.75" y="860" width="90" height="80" as="geometry" />
        </mxCell>
        <mxCell id="g7SYC5yB3dPYeJz5y49p-240" value="ใช่" style="edgeStyle=orthogonalEdgeStyle;rounded=0;orthogonalLoop=1;jettySize=auto;html=1;" edge="1" parent="1" source="g7SYC5yB3dPYeJz5y49p-231" target="g7SYC5yB3dPYeJz5y49p-239">
          <mxGeometry relative="1" as="geometry" />
        </mxCell>
        <mxCell id="g7SYC5yB3dPYeJz5y49p-241" value="" style="edgeStyle=orthogonalEdgeStyle;rounded=0;orthogonalLoop=1;jettySize=auto;html=1;" edge="1" parent="1" source="g7SYC5yB3dPYeJz5y49p-231">
          <mxGeometry relative="1" as="geometry">
            <mxPoint x="848.75" y="780" as="targetPoint" />
          </mxGeometry>
        </mxCell>
        <mxCell id="g7SYC5yB3dPYeJz5y49p-242" value="ไม่" style="edgeLabel;html=1;align=center;verticalAlign=middle;resizable=0;points=[];" vertex="1" connectable="0" parent="g7SYC5yB3dPYeJz5y49p-241">
          <mxGeometry x="-0.1127" relative="1" as="geometry">
            <mxPoint as="offset" />
          </mxGeometry>
        </mxCell>
        <mxCell id="g7SYC5yB3dPYeJz5y49p-243" value="" style="edgeStyle=orthogonalEdgeStyle;rounded=0;orthogonalLoop=1;jettySize=auto;html=1;" edge="1" parent="1" source="g7SYC5yB3dPYeJz5y49p-239" target="g7SYC5yB3dPYeJz5y49p-277">
          <mxGeometry relative="1" as="geometry">
            <mxPoint x="848.75" y="900" as="targetPoint" />
          </mxGeometry>
        </mxCell>
        <mxCell id="g7SYC5yB3dPYeJz5y49p-244" value="ไม่" style="edgeLabel;html=1;align=center;verticalAlign=middle;resizable=0;points=[];" vertex="1" connectable="0" parent="g7SYC5yB3dPYeJz5y49p-243">
          <mxGeometry x="-0.2152" y="2" relative="1" as="geometry">
            <mxPoint as="offset" />
          </mxGeometry>
        </mxCell>
        <mxCell id="g7SYC5yB3dPYeJz5y49p-249" style="edgeStyle=orthogonalEdgeStyle;rounded=0;orthogonalLoop=1;jettySize=auto;html=1;entryX=0;entryY=0.5;entryDx=0;entryDy=0;" edge="1" parent="1" target="g7SYC5yB3dPYeJz5y49p-273">
          <mxGeometry relative="1" as="geometry">
            <Array as="points">
              <mxPoint x="943.75" y="780" />
              <mxPoint x="943.75" y="780" />
            </Array>
            <mxPoint x="926.25" y="780.037037037037" as="sourcePoint" />
          </mxGeometry>
        </mxCell>
        <mxCell id="g7SYC5yB3dPYeJz5y49p-266" value="บันทึกข้อมูล" style="rounded=1;whiteSpace=wrap;html=1;" vertex="1" parent="1">
          <mxGeometry x="923.75" y="626" width="77.5" height="40" as="geometry" />
        </mxCell>
        <mxCell id="g7SYC5yB3dPYeJz5y49p-267" value="rerturn Error Code&amp;nbsp;002&lt;span style=&quot;font-size: medium; text-align: start;&quot;&gt;&lt;/span&gt;" style="rounded=1;whiteSpace=wrap;html=1;" vertex="1" parent="1">
          <mxGeometry x="923.75" y="692" width="77.5" height="40" as="geometry" />
        </mxCell>
        <mxCell id="g7SYC5yB3dPYeJz5y49p-265" style="edgeStyle=orthogonalEdgeStyle;rounded=0;orthogonalLoop=1;jettySize=auto;html=1;entryX=0.5;entryY=0;entryDx=0;entryDy=0;" edge="1" parent="1" source="g7SYC5yB3dPYeJz5y49p-266" target="g7SYC5yB3dPYeJz5y49p-267">
          <mxGeometry relative="1" as="geometry" />
        </mxCell>
        <mxCell id="g7SYC5yB3dPYeJz5y49p-268" value="สร้างข้อมูล ActivityLog&lt;span style=&quot;font-size: medium; text-align: start;&quot;&gt;&lt;/span&gt;" style="rounded=1;whiteSpace=wrap;html=1;" vertex="1" parent="1">
          <mxGeometry x="823.75" y="626" width="77.5" height="40" as="geometry" />
        </mxCell>
        <mxCell id="g7SYC5yB3dPYeJz5y49p-269" style="edgeStyle=orthogonalEdgeStyle;rounded=0;orthogonalLoop=1;jettySize=auto;html=1;" edge="1" parent="1" source="g7SYC5yB3dPYeJz5y49p-270">
          <mxGeometry relative="1" as="geometry">
            <mxPoint x="1080" y="840" as="targetPoint" />
          </mxGeometry>
        </mxCell>
        <mxCell id="g7SYC5yB3dPYeJz5y49p-270" value="rerturn Error Code&amp;nbsp;007&lt;span style=&quot;font-size: medium; text-align: start;&quot;&gt;&lt;/span&gt;" style="rounded=1;whiteSpace=wrap;html=1;" vertex="1" parent="1">
          <mxGeometry x="953.75" y="820" width="77.5" height="40" as="geometry" />
        </mxCell>
        <mxCell id="g7SYC5yB3dPYeJz5y49p-271" value="สร้างข้อมูล ActivityLog&lt;span style=&quot;font-size: medium; text-align: start;&quot;&gt;&lt;/span&gt;" style="rounded=1;whiteSpace=wrap;html=1;" vertex="1" parent="1">
          <mxGeometry x="848.75" y="760" width="77.5" height="40" as="geometry" />
        </mxCell>
        <mxCell id="g7SYC5yB3dPYeJz5y49p-272" style="edgeStyle=orthogonalEdgeStyle;rounded=0;orthogonalLoop=1;jettySize=auto;html=1;" edge="1" parent="1" source="g7SYC5yB3dPYeJz5y49p-273" target="g7SYC5yB3dPYeJz5y49p-270">
          <mxGeometry relative="1" as="geometry" />
        </mxCell>
        <mxCell id="g7SYC5yB3dPYeJz5y49p-273" value="บันทึกข้อมูล" style="rounded=1;whiteSpace=wrap;html=1;" vertex="1" parent="1">
          <mxGeometry x="953.75" y="760" width="77.5" height="40" as="geometry" />
        </mxCell>
        <mxCell id="g7SYC5yB3dPYeJz5y49p-275" value="rerturn Error Code&amp;nbsp;051&lt;span style=&quot;font-size: medium; text-align: start;&quot;&gt;&lt;/span&gt;" style="rounded=1;whiteSpace=wrap;html=1;" vertex="1" parent="1">
          <mxGeometry x="953.75" y="940" width="77.5" height="40" as="geometry" />
        </mxCell>
        <mxCell id="g7SYC5yB3dPYeJz5y49p-277" value="สร้างข้อมูล ActivityLog&lt;span style=&quot;font-size: medium; text-align: start;&quot;&gt;&lt;/span&gt;" style="rounded=1;whiteSpace=wrap;html=1;" vertex="1" parent="1">
          <mxGeometry x="846.25" y="880" width="77.5" height="40" as="geometry" />
        </mxCell>
        <mxCell id="g7SYC5yB3dPYeJz5y49p-278" style="edgeStyle=orthogonalEdgeStyle;rounded=0;orthogonalLoop=1;jettySize=auto;html=1;" edge="1" parent="1" source="g7SYC5yB3dPYeJz5y49p-279" target="g7SYC5yB3dPYeJz5y49p-275">
          <mxGeometry relative="1" as="geometry" />
        </mxCell>
        <mxCell id="g7SYC5yB3dPYeJz5y49p-279" value="บันทึกข้อมูล" style="rounded=1;whiteSpace=wrap;html=1;" vertex="1" parent="1">
          <mxGeometry x="953.75" y="880" width="77.5" height="40" as="geometry" />
        </mxCell>
        <mxCell id="g7SYC5yB3dPYeJz5y49p-276" style="edgeStyle=orthogonalEdgeStyle;rounded=0;orthogonalLoop=1;jettySize=auto;html=1;entryX=-0.036;entryY=0.462;entryDx=0;entryDy=0;entryPerimeter=0;" edge="1" parent="1" source="g7SYC5yB3dPYeJz5y49p-277" target="g7SYC5yB3dPYeJz5y49p-279">
          <mxGeometry relative="1" as="geometry" />
        </mxCell>
        <mxCell id="vPG5tAMTWVrcaO3FRxMZ-13" value="ดึงข้อมูลบุคคลที่เกี่ยวข้องกับในบริษัท" style="rounded=1;whiteSpace=wrap;html=1;" vertex="1" parent="1">
          <mxGeometry x="540.01" y="410" width="120" height="40" as="geometry" />
        </mxCell>
        <mxCell id="vPG5tAMTWVrcaO3FRxMZ-27" style="edgeStyle=orthogonalEdgeStyle;rounded=0;orthogonalLoop=1;jettySize=auto;html=1;entryX=0.5;entryY=0;entryDx=0;entryDy=0;" edge="1" parent="1" source="vPG5tAMTWVrcaO3FRxMZ-19" target="vPG5tAMTWVrcaO3FRxMZ-23">
          <mxGeometry relative="1" as="geometry" />
        </mxCell>
        <mxCell id="vPG5tAMTWVrcaO3FRxMZ-28" value="ไม่" style="edgeLabel;html=1;align=center;verticalAlign=middle;resizable=0;points=[];" vertex="1" connectable="0" parent="vPG5tAMTWVrcaO3FRxMZ-27">
          <mxGeometry x="-0.2668" y="1" relative="1" as="geometry">
            <mxPoint as="offset" />
          </mxGeometry>
        </mxCell>
        <mxCell id="vPG5tAMTWVrcaO3FRxMZ-31" style="edgeStyle=orthogonalEdgeStyle;rounded=0;orthogonalLoop=1;jettySize=auto;html=1;entryX=1;entryY=0.5;entryDx=0;entryDy=0;" edge="1" parent="1" source="vPG5tAMTWVrcaO3FRxMZ-19" target="g7SYC5yB3dPYeJz5y49p-284">
          <mxGeometry relative="1" as="geometry">
            <Array as="points">
              <mxPoint x="600" y="677" />
            </Array>
          </mxGeometry>
        </mxCell>
        <mxCell id="vPG5tAMTWVrcaO3FRxMZ-32" value="ใช่" style="edgeLabel;html=1;align=center;verticalAlign=middle;resizable=0;points=[];" vertex="1" connectable="0" parent="vPG5tAMTWVrcaO3FRxMZ-31">
          <mxGeometry x="-0.5555" y="1" relative="1" as="geometry">
            <mxPoint as="offset" />
          </mxGeometry>
        </mxCell>
        <mxCell id="vPG5tAMTWVrcaO3FRxMZ-19" value="มี?" style="rhombus;whiteSpace=wrap;html=1;" vertex="1" parent="1">
          <mxGeometry x="575.76" y="478" width="48.5" height="40" as="geometry" />
        </mxCell>
        <mxCell id="vPG5tAMTWVrcaO3FRxMZ-12" value="" style="edgeStyle=orthogonalEdgeStyle;rounded=0;orthogonalLoop=1;jettySize=auto;html=1;" edge="1" parent="1" source="vPG5tAMTWVrcaO3FRxMZ-13" target="vPG5tAMTWVrcaO3FRxMZ-19">
          <mxGeometry relative="1" as="geometry" />
        </mxCell>
        <mxCell id="vPG5tAMTWVrcaO3FRxMZ-22" style="edgeStyle=orthogonalEdgeStyle;rounded=0;orthogonalLoop=1;jettySize=auto;html=1;entryX=0.5;entryY=1;entryDx=0;entryDy=0;" edge="1" parent="1" source="vPG5tAMTWVrcaO3FRxMZ-25" target="g7SYC5yB3dPYeJz5y49p-214">
          <mxGeometry relative="1" as="geometry">
            <mxPoint x="489.9200000000001" y="585.0285714285715" as="sourcePoint" />
            <Array as="points">
              <mxPoint x="360" y="585" />
              <mxPoint x="360" y="742" />
              <mxPoint x="233" y="742" />
            </Array>
          </mxGeometry>
        </mxCell>
        <mxCell id="vPG5tAMTWVrcaO3FRxMZ-26" value="" style="edgeStyle=orthogonalEdgeStyle;rounded=0;orthogonalLoop=1;jettySize=auto;html=1;" edge="1" parent="1" source="vPG5tAMTWVrcaO3FRxMZ-23" target="vPG5tAMTWVrcaO3FRxMZ-24">
          <mxGeometry relative="1" as="geometry" />
        </mxCell>
        <mxCell id="vPG5tAMTWVrcaO3FRxMZ-23" value="สร้างข้อมูล ActivityLog&lt;span style=&quot;font-size: medium; text-align: start;&quot;&gt;&lt;/span&gt;" style="rounded=1;whiteSpace=wrap;html=1;" vertex="1" parent="1">
          <mxGeometry x="489.92" y="518" width="77.5" height="40" as="geometry" />
        </mxCell>
        <mxCell id="vPG5tAMTWVrcaO3FRxMZ-24" value="บันทึกข้อมูล&lt;span style=&quot;font-size: medium; text-align: start;&quot;&gt;&lt;/span&gt;" style="rounded=1;whiteSpace=wrap;html=1;" vertex="1" parent="1">
          <mxGeometry x="489.91999999999996" y="570" width="77.5" height="40" as="geometry" />
        </mxCell>
        <mxCell id="vPG5tAMTWVrcaO3FRxMZ-29" value="" style="edgeStyle=orthogonalEdgeStyle;rounded=0;orthogonalLoop=1;jettySize=auto;html=1;" edge="1" parent="1" target="vPG5tAMTWVrcaO3FRxMZ-25">
          <mxGeometry relative="1" as="geometry">
            <mxPoint x="489.9200000000001" y="585.0285714285715" as="sourcePoint" />
            <mxPoint x="233" y="722" as="targetPoint" />
            <Array as="points">
              <mxPoint x="490" y="587" />
            </Array>
          </mxGeometry>
        </mxCell>
        <mxCell id="vPG5tAMTWVrcaO3FRxMZ-25" value="return Error code 054" style="rounded=1;whiteSpace=wrap;html=1;" vertex="1" parent="1">
          <mxGeometry x="380.3" y="573" width="79.8" height="34" as="geometry" />
        </mxCell>
      </root>
    </mxGraphModel>
  </diagram>
</mxfile>
